<mxfile host="app.diagrams.net" modified="2023-05-09T07:07:52.458Z" agent="Mozilla/5.0 (Macintosh; Intel Mac OS X 10_15_7) AppleWebKit/537.36 (KHTML, like Gecko) Chrome/112.0.0.0 Safari/537.36" etag="Ve9Cv5Tp9merCIXPz__5" version="21.2.9" type="github">
  <diagram name="第 1 页" id="p2O_pzp0-64MXv6UX66W">
    <mxGraphModel dx="984" dy="530" grid="1" gridSize="10" guides="1" tooltips="1" connect="1" arrows="1" fold="1" page="1" pageScale="1" pageWidth="827" pageHeight="1169" math="0" shadow="0">
      <root>
        <mxCell id="0" />
        <mxCell id="1" parent="0" />
        <mxCell id="ETWkTozmqkmJkBLLcPK1-1" value="" style="rounded=0;whiteSpace=wrap;html=1;dashed=1;dashPattern=8 8;fillColor=none;" vertex="1" parent="1">
          <mxGeometry x="414" y="110" width="340" height="320" as="geometry" />
        </mxCell>
        <mxCell id="ETWkTozmqkmJkBLLcPK1-2" value="" style="edgeStyle=orthogonalEdgeStyle;rounded=0;orthogonalLoop=1;jettySize=auto;html=1;" edge="1" parent="1" source="ETWkTozmqkmJkBLLcPK1-4" target="ETWkTozmqkmJkBLLcPK1-7">
          <mxGeometry relative="1" as="geometry" />
        </mxCell>
        <mxCell id="ETWkTozmqkmJkBLLcPK1-3" value="访问" style="edgeLabel;html=1;align=center;verticalAlign=middle;resizable=0;points=[];" vertex="1" connectable="0" parent="ETWkTozmqkmJkBLLcPK1-2">
          <mxGeometry x="-0.2286" y="-1" relative="1" as="geometry">
            <mxPoint y="1" as="offset" />
          </mxGeometry>
        </mxCell>
        <mxCell id="ETWkTozmqkmJkBLLcPK1-4" value="用户" style="html=1;verticalLabelPosition=bottom;align=center;labelBackgroundColor=#ffffff;verticalAlign=top;strokeWidth=2;strokeColor=#0080F0;shadow=0;dashed=0;shape=mxgraph.ios7.icons.user;" vertex="1" parent="1">
          <mxGeometry x="74" y="220" width="50" height="50" as="geometry" />
        </mxCell>
        <mxCell id="ETWkTozmqkmJkBLLcPK1-5" value="" style="edgeStyle=none;rounded=0;orthogonalLoop=1;jettySize=auto;html=1;" edge="1" parent="1" source="ETWkTozmqkmJkBLLcPK1-7" target="ETWkTozmqkmJkBLLcPK1-14">
          <mxGeometry relative="1" as="geometry" />
        </mxCell>
        <mxCell id="ETWkTozmqkmJkBLLcPK1-6" value="HTTP" style="edgeLabel;html=1;align=center;verticalAlign=middle;resizable=0;points=[];" vertex="1" connectable="0" parent="ETWkTozmqkmJkBLLcPK1-5">
          <mxGeometry x="-0.0911" y="3" relative="1" as="geometry">
            <mxPoint as="offset" />
          </mxGeometry>
        </mxCell>
        <mxCell id="ETWkTozmqkmJkBLLcPK1-7" value="Web浏览器" style="points=[];aspect=fixed;html=1;align=center;shadow=0;dashed=0;image;image=img/lib/allied_telesis/computer_and_terminals/Personal_Computer.svg;" vertex="1" parent="1">
          <mxGeometry x="194" y="214.1" width="45.6" height="61.800000000000004" as="geometry" />
        </mxCell>
        <mxCell id="ETWkTozmqkmJkBLLcPK1-8" value="MySQL" style="shape=image;verticalLabelPosition=bottom;labelBackgroundColor=default;verticalAlign=top;aspect=fixed;imageAspect=0;image=data:image/png,iVBORw0KGgoAAAANSUhEUgAAADAAAAAwCAYAAABXAvmHAAAACXBIWXMAAAsTAAALEwEAmpwYAAAGOElEQVR4nO2XbWhb1xnHn3vOuZJsWU5LNkq2QdotoZRug9GxNwgMChtsKduXdGG00HY0y1yrluTYsnV179HLfX+Tru04uW1GWcv6IdQb+7BRlq3QUtiHBrqFSXlr1jbJ5jpO3MSJ7TkvO+MoiecXuYR+GAroBw869z5/Hf3/90q65wC0adOmTZs2bdrcRQRBt+gHfxArI2+QSpCBMBThrsL3N4mVwIcgiBJ/tE+sBG8TP3iF+NXdYFkJuBsQK0GBBMF3lk6Mjm4UverTolt9Ezv+Y9DyhKFI3ODXwJgAUs9mGOr9SeO853Vgxx/Htqc1eq0M8So/x7b/vcYBD7G8Z3kD2HAr0NLwq235B9Zr8wDIcHdBK0Mstw9b7qNNm2EoIs3+CxjG/dCyHDyIse68uF4bq+b3cckcg5bFsh5EutOzbp8xARW1d0DXN0IrgjTncaKa3/pEjVJ+GsvFArQiSDN/Sor6N6FkPoSKeqapiNIIGqZHIJvdAK2GWDIeQQXtZ1hRLaSU/wppr6OZDmXzzwiD0m9gaGgLtBZMwHLxV0gqvIVzxcdQTqHrSjPZrwn9WU9ID1hAaQxahiy9H+Xyz/AhyuafgIH81k/Up9NbhGRmFHrSrXY3bjEwsJV/76EZPamHUW9qUOhNh0Jv6vdAKQLijXxD9KoO8YIsfzo2ex/x/W2iV6kSp9oL9KU7un2MAmK/7H6cHej22YEN4Y0Xb1civB4m9nDN1f3dX78WdrvXwkR4lde+RPjvfYlwcV/CWAzjX+Gahf1du+fH4+HCWPcWIZlyhd70y9DfH1/6INGrTotulfHCbsVd48QMvkAcf444PiO2z0TLv6PH+9Uw8erVMMEW9yf2LoZdOxo1frMW9sW/Oz8W2zy/t2txfm/84txYvHd+vGvH/GjXjsuj8b7LY/ErsyPxhY9Hog9cGu2cmB3pZLMjsW1AKRGSqVEhmXoNenq6bl5dp8KI453Hll8jtj/LNxzLjWDTNYnlMWx6f+OvxHSlOwkwP9Y1Nbc3zlgITTcsl6qdP7g00skuBh2vrO7NVGMvzFQ72IVqx44LfnTiQiXGzvmxbUuC55//MkpmJNiV3cBXfoyY3rRoubuI6TFiuH1LQjrWRQx3hujuJDGcLDYchnRbQrqzG2nOIaytXMdg1RpHmnUINO2+i0Hn2YtBJ7tcjd/XLMBMNbL9vB9j037spdW9j9xoMOVG2aQj7py0oxOTToT90yL/C3CbVOqLQAyXEd2e5n9NWLOnsGafbPw4Gg8aO4k1myHNyiHVTjXGqi1h1fSxajGkGU8snw+VjMO4ZDAolzef86LPTnuxK1Nu5MNzbuTQFC8n8seP7Ghw3uv4/KQV2T5pc2ORNQHOGmJw1hTZaVPcedogE6cNwj7UmgRoXDXNZlizpm+OLZUbw6r5Qx4Cl62TuGzO8bUIKuopbg4VdAkXdR8XNYaotjKAUj6MlTIDqdxY358IIHrGFr/6L0N8hNdZk9AzpsjOGOR3H+h4Ozf2gY7XBHhfxdV/qJi9r6Gdp8po4lQZs1NFWCdA2WS4pDcCgKpuwkV9ERW01zHVfowLKsNUHWmYk9UUN4eUkoTloo/lIkP50soAOXoY5ygDSVqxQVkyVoKHuLH3yuitUyW8/b0yYieLwpoAxwtC5XhBYMcp7DxWECaOUYHV5PUCUJVhuTy9dJwvvYzlwn9wvngU5+l1kMpfumUuxc2hnCLhYbmEh2WGsvmBFQEGc4fRoMSgv3mAY0X4ETfGTdVl+PZRCqxO4cjpNHScGIbP1hX4U12Bek2Gd+oKcNOP1mR44dZ4d/MAEmV4WFkKAPn8VjycP4Oy+RtCVtKXmUtxc2gwJ0GGfkYYGD6I9gxfQXuyH6P+oRmUGZxB/dnrKJNl0N+/uS7DyboCM8urpsB8XYbf1nOwiQEINRn0ugwXajIsNDQyzHGzDcMKvP13CpFjEjxQl+HPXFNTYHb1nABDQ/dCH72nSbaVm+pkMtrQrl6H8FXiL/gcAw+ivswkSqZvwHPPbXyXwj1HhuDe28WPm15BADhBofu27iiFz9UUeKMuw7WjeXhquW71nLzg0yAk0xpKpmbWVG/6XZRMPfmpJm3Tpk2bNm3atIH/O/8F3QzYxkVGwuEAAAAASUVORK5CYII=;" vertex="1" parent="1">
          <mxGeometry x="628" y="130" width="60" height="60" as="geometry" />
        </mxCell>
        <mxCell id="ETWkTozmqkmJkBLLcPK1-9" style="rounded=0;orthogonalLoop=1;jettySize=auto;html=1;exitX=1;exitY=1;exitDx=0;exitDy=0;entryX=0;entryY=0.5;entryDx=0;entryDy=0;" edge="1" parent="1" source="ETWkTozmqkmJkBLLcPK1-11" target="ETWkTozmqkmJkBLLcPK1-15">
          <mxGeometry relative="1" as="geometry" />
        </mxCell>
        <mxCell id="ETWkTozmqkmJkBLLcPK1-10" value="blot" style="edgeLabel;html=1;align=center;verticalAlign=middle;resizable=0;points=[];" vertex="1" connectable="0" parent="ETWkTozmqkmJkBLLcPK1-9">
          <mxGeometry x="0.0794" relative="1" as="geometry">
            <mxPoint as="offset" />
          </mxGeometry>
        </mxCell>
        <mxCell id="ETWkTozmqkmJkBLLcPK1-11" value="Python Web" style="shape=image;verticalLabelPosition=bottom;labelBackgroundColor=default;verticalAlign=top;aspect=fixed;imageAspect=0;image=data:image/png,iVBORw0KGgoAAAANSUhEUgAAADIAAAAyCAYAAAAeP4ixAAAACXBIWXMAAAsTAAALEwEAmpwYAAADIElEQVR4nO3XbcjfUxzH8dc2dK0hxojcZdawGObC3JW7ctvQRhRNbtMiJPLA5p7N0J54QimZmzBs7h/oSpGiPTBGIpI1NUrygG3o1Odfv/5+u/5/rj34N+ddV9fvnN/5/c75nO/3fL6/P5VKpVKpVCqVyv+R/TDJNsBDOB9DfY6f0OP+rrgTC8a4rmG8isP7GVwi8Rm+wnM4rI/xH2ATPsRLeB8/4YuMuRmbce8YREzAC/gLs/t54HT8hmdwPTZgKfbokYplggsafVPwSqNdRN5tbEzCnziu18Dp2ckfs6u34UwcgXl4EZNbntuxRUhhu8b1a1tBiES+p5CXsRhn569E5BbMx1zsiQP6FHJq15gi5B5bR8jsXoNKfo9gbSJyMXbANJw1ynMdIUsTudvxcIuQ5hnZGQ/iWfyAyxr39sfreAPf4NwuIcfjKLyZ9T6FXZqTlYn+wLe4GjPSvztO6EPI47gmJrGwRch9jXZxsSdzvQhvNe4twf25LmZzRYuQgyK0Nc2OzcCRpElpdzitDyHFsju7fWGLkM7immyPx/Buo+/yrKNEa2rX+E15z4au9f3D4t7B17gW++LknJd5/0JIG0XIA432jKTEsthqMyKFE/EJfsclXUKW4228N1oNuxW/4hGsTPEptjdzlGo/pQ8hK2MkhXFYn80q3JCFdZiT/+PxREyo096czd0bPyearRyKz7EGV8WlyoGfiFO2kBp3RcgqnNMypuTz9/iykXKrU3gfxYqczXLGCh/j+RTSYjoXpf/KzLM8JaHUvI0xqTPaxCzJA2uTaqsSwkXZze5aMSvOdiQOaXnfgZn0mIaB7BSL3ivtqY13l02blY3r3Jf3H517nf6ZMaJ9bGEHy058h0vxacI5NNoBG1TmYF2iUrz86aTYcL/fOoPCeFwX5xhJfq9OGOd3FbCBZyJuTOX9Jd5dDuJuMYW5XYWyFKeTDCjjcFM+B9bH18v5uSP9i1PFl6XSLki0SoU/zwAyOUVqYeMbaE3ErYvLbUwN+ih1o1MnBpah2Oj0fAsNR+TB28pP5EqlUqlUKpVKpVLxH/gbR4StD37x4x4AAAAASUVORK5CYII=;" vertex="1" parent="1">
          <mxGeometry x="484" y="215.9" width="60" height="60" as="geometry" />
        </mxCell>
        <mxCell id="ETWkTozmqkmJkBLLcPK1-12" value="" style="edgeStyle=none;rounded=0;orthogonalLoop=1;jettySize=auto;html=1;" edge="1" parent="1" source="ETWkTozmqkmJkBLLcPK1-14" target="ETWkTozmqkmJkBLLcPK1-11">
          <mxGeometry relative="1" as="geometry" />
        </mxCell>
        <mxCell id="ETWkTozmqkmJkBLLcPK1-13" value="HTTP" style="edgeLabel;html=1;align=center;verticalAlign=middle;resizable=0;points=[];" vertex="1" connectable="0" parent="ETWkTozmqkmJkBLLcPK1-12">
          <mxGeometry x="-0.0441" y="1" relative="1" as="geometry">
            <mxPoint as="offset" />
          </mxGeometry>
        </mxCell>
        <mxCell id="ETWkTozmqkmJkBLLcPK1-14" value="Node JS" style="shape=image;verticalLabelPosition=bottom;labelBackgroundColor=default;verticalAlign=top;aspect=fixed;imageAspect=0;image=data:image/png,iVBORw0KGgoAAAANSUhEUgAAADAAAAAwCAYAAABXAvmHAAAACXBIWXMAAAsTAAALEwEAmpwYAAAE0ElEQVR4nO1ZaYhbVRR+03Hfd6mO8859M7XSH1Up/hCKFRUR0T8t0boWJznnzVTb0l+KaEcQcV+Kv4KtM++chEIQoS4V/OGCtYoLImqpIrgUB63SsVrrUtvIecnEl5tM5k0mmTylH4Q8knfv/b5771nuuY5zCP9TnJun07wc3Wg4c5PHg2c4/xX0FNYeDUx3AuOvRqioH2D60witn79h4HgnyTBM1xrBryaI13yYvgMmcoaH5zhJQl8+swgYt1pk/wbBZ0Fwgz5H/wOht43gRYnY57o1bIJG6A03l7lg4j03T+cZpi2WwINGqNC3aeicWSe+KEuHg+AaYNxTNbNMO4H9W52i0zXZFgOhLy2xe43gfe7IiqNmhbwJ8AojtN0i8ZuSUANuXjx+G4pvFxptA8gNuNPtr1dorhHMGsEDVp+vmdH0wpYR780Pnaz7HBj3W9vlAy+gxS1xAEJvVa9oKIr7N952etMdL3l9+DB1eSC0y5qhsZa7wqLTZZhShunr6rFwt8aUBYXUEdPqT5WD4PvVrg//AKYHFxRWHue0CWfyzccawfsN4z5rtd87K7j91NgdgVDOmvXne/NDnjNLcEd8UNuytlUQuwNg+rm8hPs8ocvbyrYBIMAlJTcbihh34iISMT91WuTBQDLXhTbFtFq/Xaarekb9s6fkwvTRBJ+2CND9Wfbje9TwK38UUt0e01CdwFW0vZlhXNY5ARGClWhaSHWr3TQiXisEH0+MACO40iK3FYTuNYIDkKPr3YAGlbCx3WYuc01CBNC7EfIPNEorTGSlQPDVZAhgGqv8FtDFjdsPzi+nJDreL3Yi2CEB+Flka0yZMoPgGiP4EAiuS4QAjdh1jPQLEHpOtxQEeIsbDF4YJ0XoiIBySrAthufZD4KfGKFH+zjdnxgBkbzfN0zv1KTMk4lhWp0YAVHo75rjhxmn0N16VjaMb6rRWvnOAfusPOsCtAZUTo1Temhp1LZ//aoj1feD0DcRIQ93VIBhvCMyo9k44wHTPREB3FEBXuBfXSHDNKYGHUPAM//aAj3WUQHlytz3kVXY5nHmsqpEL5L3g+C6aFlG3+2ogNKguKye5wGmHw3jjrAN4+463qiQGC8UGifTzqncp6nEA3q6XmDrqBvVWOAFtFTJhRlpKRrv0pUAoc+B6UVP6K5ezphJuTQpYLzc6Pd6KW5cATMFCF1ZKpqVKhSxGxqhESvAvKLHwpoXi05XtOyiM94K4l7enweCL1j2szF2Bz2F9Cl2tRmE/jKMT2qhqzJQQEujBjpT4v2y6gTD+Ej5PqHqQBQdNx4KqW7IZRAEf7CMbq9h2gxML1kD1XiQ2BgenmPYT1e733DS1F5IuTTdt1egEzW42LNSW/Tyz2+q/4AWhwd7a7VB6Al3ZMVJTROvGSjvzzNMTxnBnywB213xL51uf3rIMUKbJk5jkcl4WU9pTrsQJmCj6YWQo0smy+EbYW6WjtFSfMW7yETagTs0DXE6Ab28M4xrQehjrTjULfwWnS6XcbneA1grOK5tW+XBpg29GwhThKrZpA+jh/m6JfQw/8HsjErorYIWftUzWQQPAqNoUbZOXlR1h5YYaCHYqkgUp3OHlghU7sCqj4ux79ASA43mnvg3qOHqc6f5HILTJvwDFDl0Rr2QsrgAAAAASUVORK5CYII=;" vertex="1" parent="1">
          <mxGeometry x="334" y="215.5" width="59" height="59" as="geometry" />
        </mxCell>
        <mxCell id="ETWkTozmqkmJkBLLcPK1-15" value="Neo4J" style="shape=image;verticalLabelPosition=bottom;labelBackgroundColor=default;verticalAlign=top;aspect=fixed;imageAspect=0;image=data:image/png,iVBORw0KGgoAAAANSUhEUgAAADAAAAAwCAYAAABXAvmHAAAACXBIWXMAAAsTAAALEwEAmpwYAAAH8klEQVR4nM2ZfXDT5h3HtY69/LPdut1AspSwcht3zW67dd1WOsv2aikQNtpCZ9kuhdi5sI7L2uPorjiOFSuUJJKhIUfHEefFiQlxXmxLpmkaQh5l7DpujJRy+6P9ox2s626lZWspLS0tJLF3susgx5IsJ2bwu3v+kmx9P783Pc9PEKTDnGFLs73b9B4VNCbdAvmpWyDP1vDEzifHq74C3c7GMJZlzpDpdVuHMZVdboGUr7OuqAVGmFEcoflRxBc9D3uHr6LN4+9jLEhinJiSFsqCd1AWvISxIFjWChxwy/i3/y8Ajl7Tn+XiFQBSbp78i8EvtMC7BlKZNTiHNh+bRjnxWhYgb7HiLMaKL2ABcSPEMHfcFPFbD5vvoYK54hUBBDK1NbF2M1w/dB32DM5gDVFU+n1Z69RaVQDZQlnwKspNPgKlUl8oKYAzbB5YKF4NwC0QUcQXew3xDr+T/f1K5sRXpTRCWXECC0xaMBY8jXHinAYMKGfBqtIB9JpO6QVwCeQ04ouL8K5ICvHzT97beeZLKCfukYTB+6ZWZv8T48SxvAhw4F2MBTGUBc0oO0WVDMDRZ5osAgAgdOxUtg7Q5mPznjaw4J55AFY8lUkb8e3yfS+0VQXdffaQ6Q2qG//Q3mm8tmXEes4tkMdcPLnHzVt/vCQAZ59pexEpRMPekUsyALmH30RZ0JT2Pgs+uosb8zn6Hhi1dRrnFv539Yg11zE8+VLN0cr7Fg1h78EvFwJwCeTl1a29DtiT7UK5ALLO84b5UP1D9m78ipJjbAoAn3e5pIsnmooWj9Dxg/e3+WuoLuOMOgBxzTm4ySb3vhKAFIX1XdusVKdxVk28TQ3gxrPa9Ytvev7RtBjP4Mz3A/vqHN34PxcCuATylQf7t1TB3ui/5OLzAcBMxf5eq70L/0RLvK0gAJlyJay1ugBg7/DlG4IiKcQX/2sF99wTjtADTa7E2o0/a2MpQyN/RAJcKD4PgBXDzl4zKCTepgdAIK/UPm9doe39RuFZJVHSQjyRNJDadSWAn7Y/u47qMCZLAeDWk0qId/hKjiBPJGlo5CNII38I9gwpelwNAOXE886wuUePeJt+gItUlPqiovgVu/lf5Xmdjk3Nw/mE/UUChBw9pn+XFoCU2usaZe/7bryM5gF80ensdQMt9BQHAOrtXfjVUgNU80S1cgS8Q1cVc98XO4P4Yn+U0qkoABY8TgXzX1hLjkDCuitPfDk7dmemSJVERVKwd+gzPeJzijgA6qhO/FqpAdwC+UR++vjjtSrikwYm8fN0CjUKzxUFwIqt9m78g9KnUOUmBQC+QzF9Gob/k71nJZP4RlEAnDjmCJlPlhSAJ5PbeAuWB2Cg+UHl3j+QhJn4LzMR4PuLrIGrDx/eVFdigNPKHYiOj2kKqx+cLboG0p1o8jd606haB4CLtzrVAI4VALgONwy/pacTLdjMvUX1Vf7O1oEvHYAnT0MpSPnoCdPxLi3vL28R03sQg5+vKRJAKuYDzpB5YkkAPPneVmH9akjNVviFp1VFeYc/yN5XXj92p3zvrw8AJLHA5DZHyPzK4gCIi+vCOx7CODGuCrCciZNaohCabytn4qsQOn666Ahk1hzKgp3OPsthWxBP6gcgTla097sxVrwo7a1UAaSxhv5CjSwGIBuNceMfWiqdIdM0FcRnlQBcPDnj5skT649s34ayYEh2MDquDiAVckP0XEHxdPw4xKTuMPiPSrWQLBrg80MOxoEj2N6JKipUtcUZNu919OLxx6LWHY6hjRu+1y48Il1HWXA9d4YkNmgD0PGDhQAwZuKb2fth78iFxQHkHDc/lc7LKCdOY5z4OsqKn6lELmloBepFfONNOzinBWCgBUa618C8uDon5dKFHUlK+6liALBMlxKl+siOXVQmeJOa4mVROKFZzJ5IKnPoiSSlcSLi40d/yLU/RYWtHmf4F3vdcXKdObj7fpQF1VLOFh4tim9XMNEvS8/+VuDk1zBW/FjJ+2WByZ/oAoCfGbtbLbflRYzQsfive4mAvcv0UbYIqSAu7yCvuhLE499pGbWgrPgPDc+ey85FMxM9cEkhQiO6xM9HwReLqYr3RJKrngnvcPTgFxa2wQUA2XW2smvHjzBOPKvUWrFMHXQbAmADxoGoQoTeN+yZKCsKAGKYZbmTCVmBMpEmqgv/WKmPqwBIvfyCsat5DcaC/853ofRo/cQylBN/q9Fyk2UseBhajC1vTBDpPJcDNMT+5giZ/q72JlUHkLYCxJkyqVAzXn1Z/ixsHiwvdQ5ASzHYz++Upw55qKZeayugCSCQqc2xDdullEA58TLWLKa/I2Ac+IHy2B1EoWhUefpQjBloPiC1SMQXfdPeYzq/FACXQLycfoFl8v5S+rMTJ36S/24Qj0oFDZXK4MbYdoROeCiVPYxeAOk0tXo/v7NAWx347oHx0n883NJfeVeh7XBBAIFM3dfRVqe2vUBZ0QPdLNscxu8tBQAZ+n2NwnbiNQM3lR4c3DSTvgmXAmBNcPeDslw/L7XRkua7lhUakReuAeLDuw/GV2IsoJGW48aSf5ksZM6w6cUlRmAAupVWO2hdoTUq1AYgZmuOWiugW22PHsZb1SYMWgAugfRDt4ttDluixQC4BKJbdRxyq8zZb6GpTnxGE4AnLrl5og66Xe2xI1Vfd/aZeu09+LvSF0iqE09KO08XT/zJLRBP1UbXzh8/b5b9D/fRGmLs7B/EAAAAAElFTkSuQmCC;" vertex="1" parent="1">
          <mxGeometry x="634" y="300" width="48" height="48" as="geometry" />
        </mxCell>
        <mxCell id="ETWkTozmqkmJkBLLcPK1-16" style="rounded=0;orthogonalLoop=1;jettySize=auto;html=1;exitX=1;exitY=0.25;exitDx=0;exitDy=0;entryX=0;entryY=0.75;entryDx=0;entryDy=0;" edge="1" parent="1" source="ETWkTozmqkmJkBLLcPK1-11" target="ETWkTozmqkmJkBLLcPK1-8">
          <mxGeometry relative="1" as="geometry">
            <mxPoint x="544" y="223.5" as="sourcePoint" />
            <mxPoint x="634" y="277.5" as="targetPoint" />
          </mxGeometry>
        </mxCell>
        <mxCell id="ETWkTozmqkmJkBLLcPK1-17" value="pymysql" style="edgeLabel;html=1;align=center;verticalAlign=middle;resizable=0;points=[];" vertex="1" connectable="0" parent="ETWkTozmqkmJkBLLcPK1-16">
          <mxGeometry x="0.1506" relative="1" as="geometry">
            <mxPoint as="offset" />
          </mxGeometry>
        </mxCell>
        <mxCell id="ETWkTozmqkmJkBLLcPK1-18" value="" style="shape=image;verticalLabelPosition=bottom;labelBackgroundColor=default;verticalAlign=top;aspect=fixed;imageAspect=0;image=data:image/png,iVBORw0KGgoAAAANSUhEUgAAAGAAAABgCAYAAADimHc4AAAACXBIWXMAAAsTAAALEwEAmpwYAAAKZklEQVR4nO2daXAUxxWAJ3ecVI7K4VSSyvEvyW//TuxUwGz3iiMGOc7p3L4SBxPHSZxUVEmVA5pegcQRwMRgDDZIGGODy4ABC3XvroTEIXSCkNAthO773u3Ua7Rid7TS7s707Mwo81W9KpU0O+p5b7r79XuvexXFxcXFxcXFxcXFxcUpbClc/WkSWH6vspQhgeX3+oq8KwjFT6sM7VAZPqsyXKEy1EAY6iMUTRKGp2d/biYUX1MZOiWupWgDYQiBosxom0rx3wjFTypLiayLGR9Ti/BqlaE8oWiKw4RhbkgoCqkUVaoU78z2e3BWVeaHjbaTnF7+cZWhbsLwecXpZPGs9xPmfYAwtI9QNGRY4QlEZaifULzfRz3f41x5n542E4qfiRh3c9GKLypOJKvw/o9CF1YZumm20hfuHbhKZfgx6HnJtjvvHc9HCEXtcwal+PeK44YZhp9VGe6wTPHaXkFRJ7wMuy/e96FE7QeDxX4WM8UpiPGdoiarFU4WFFTno2jNQu3PKrz/g/N6LEWhnKD3y4qd2Vi44uuE4RPWKxgna4iCeC4mofin8a73MfQHxa4Q6llHGB6wXqk4NaGoRy1Ca2OdBVQT71qVoYBiN+5MVni75Ypk+kW4wRQRGHoI9T6y2HW+oge/otiFf19Y81mV4mKrFUhkGYLhc4Ti+sWvQU8pdiDbv+pLsIiyWmnEZHmvYbfWAKes1r3iC2R8U2W4xWrlEJPl9ap/8JnwNM8LrovuJRPZ/lWfsEz54IrZ28XEUsTnz+Ddo00cOF67Mfbv1LPOsjF/IQ9hqUmw5TUeoabrPY0B8H5LvJ2lNOGSRSS/8nkeDofmDDAxPcJz/KuiDIB6CgoyP5BWAzjd1SRJyu7SR/nY1CDXcrjizzHXZfu93073IosvddlR8iPeM9rM4wFDUvS1KkNqOsMLA0tf+T+cm3Tj0T5UqzEArk6LAVSKj1utHGKy7Cp9dFHlA6HwDN9anHnXABSHc4tXfsFU5UPE0GrlEJPlYPkGPjLZx5Phjep/anqBN9PceP4S9/dP1m3hM6EpniyX2t/SGADtMM0AkEyxWkHExMm2rifIU+X2SEOsASiqNEX52nTc0hEvf/uaGtfNTIZQeJpvCay5ez+KQnklnk9KNwCk7axXFpYqr5Zv4K2DVdwoMGdojPqAVOVDQsLSBDqTK7CAaugr5bI4W78z5v4qRc9JNUC2H3/XaqURg7Kt+GH+7o3tCV1LPVTdPhv7/yg+LNUAKsN7rVYg0RG53HfpCX6uYRdv7i8XPrtZgFFNm4hzgpn32G3VmxdcJ+IzL19+ih+qeE744uA+Bppf5ZWdZ8QKdSo0wdMFBOk2B1ZH9QA0CalMaeUk6Vbw9pJHROKDNb0iFNo8cJX3jbXx0amBmIiknfjvxd/EPMOm8/hbcgzAUF46lL730mPc33yAd480cidypPLvmmfyrJRkAHNzvPmVf+VN/Ze53RmfHlr076dvbNU8G/qdYeVDgZKUKuU4su/yk7x9sIY7gZ7RloQGKGktiH1GiohhA4j6fMmKhyySv+mASGw7hau3Tia8prarKOY5VYryjfcAip+W7b009V/hTmJ8eogHmg8mvC5ObuCcYQNAZE+W8nde+AnvGrnJnYa/+QBvGahIeB14aRoDXDbeAxg6I+fNX+tI5Q9P9vKXLv42Kdd3ZLJXOwQ1Ge8BFFXKWJHKjLukk5N1mzlt2p/UtVMz45oegLplGMBw8uV840vcibQMVAiHYXCiK6nrIYkT++yoT4IBcK8R5e8p+1VaQwKymJwZ43vKfs1P1G5K+jPTocnY56doyLABZreC6jZAXU+AO5HjtRtjyhB1GmDSUgOIyYuHudO42H5MtB9Wtqm6qxovaMLSIaj81jvcabQNVotxH7y2ZKsiIvSPt9tnEs7xr9SdY7WKgfFOsVaB9he3HEr58x1D17UGuGmZGwoBNicxNNHNXyz7xdzQCeN5qtzoKdbq4aplCzFIjDiF0akBvvfS47M9d5V4k/VQ2vq6ZhLGpy0LRcDb4ATGpodEVi3S7gutR3TfK044eqtlwbjesVZud/rH22OyWFApYcRr05amSNm4pzccDW+WnWkbrBJpz0h7d5X+jA9P9ui+Hyw2N0dv1rhTI7rMsAFeoJ7P60nI2Nn/r+kqjEmgQ3Wz0TQo5Kxjx38Ugq1bilUpST1ehNnAW3qmfocoRYy0E97aZgn5iaLGvfJD0XMGoDg3VQOAZ2EnOofrRdI/tp1eXn37nIS7h/nu0p/HGoBinzQD+PzeVaka4NZwHbcDofCM8Gy04zMsFKGaTQaQ156ngyLstbQwC2p5rKa5/4pI/GvbBsa43s2k/R+orNa8/YOgM8XK0sRTN/K4VfSOtfKj1Vlx25UbfEhqCUz/eIeImmrG/z2KbFItzoXNDun2hDqH6/nb10js3t0oebHsl+IamZyqy403/HxHugFmy9MbUjFCOtKQ4XCI1/eW8PyKvyzalmM1/xIbq2XSMVTLfVEelRCK6/UeBih9g8ZrV5/lZhDmYTHxnWvYyf9z4ceLtgF6Q2nbUfEpmcCumHjzC5wpp5iFni1KtV3npTzw1My4iC/B3JJI6RE5dPVPpuwFACDPHUf5HXAapGImhKE/pmIAWGVCnF3PG9Y2WC2iqqBIrRuZaP6542KaMwfN24wxZwDPesVsYJsqYbgxFSPAIiWREULhaX5r+Dova3uDH63K4rnBtUnfPyLbin8gKthkj/XRXOumYg0xX/moQbrruRBwJrOeLf/RwxFky+p7SzhtfFlssMgNfD9lhUcEdsFc7jghKhnMpKzt6DyXMyLZFGUo6UTvUQUHy9eLjJNeZZOochfauE+6WxmP0al+/lbtCwu2RWX4mJJuSAB/TZzDbFCRJMU3HXpM5/ANng6geht2wUeHrecL6tvEMr6adgMIIzDPSrP2DpDZkEFB5fNCCXomciP1oFDrDzmCxdo3++wPWaL8u0ZAW5NRJvjjJa354uEgUgq+eU6cyQyUDmEE8DTMnEy1izlwV0HpB8ufmb+4Wkgo2qJYjTiyjKFAosbGK/Moac03XelQrzk+PSzGcTh0Ceo94aw38LYgh3vgynq9DoBfxncRSGHTmWWfghKMxRo8OHE7YTk3cYjAoUw5wQc/o9iJRMdWLhUDqBS1WTbpGjm4Nfq4xwgXWo847c1vyfav+IZiZ+Do4njDEUzCxS2HReUBFLFean8zpfCC9YJqbHVA92LA+EgoClqvNCxL/LYb8xMBXweiMrTJzHUCSYOoDO22jbej/5wJ1Oc4xVM8SBh+WFkKiLCFo465RG/a1tMxHLqw8albKqRcZZaT2BGRT4AvQrPR4X8qRW2QTElbPN8O3Dl13fNEqol+6W+8Hz0ObVH+n/Ex733iTCKKetKg+AGVoVegctm06gWnkhPMvAcySypDm1WKyqHC2LDC4R4UXSEM58D4bnrSfCnhK8z4nI+h5bDRQaV4m0rxu2AYGDrE7k3YQkvRJPx853dgNHxaXAufYd5lcA+rn8PFxcXFxcXFxcXFxUWJ4n99JEWqxma+gwAAAABJRU5ErkJggg==;" vertex="1" parent="1">
          <mxGeometry x="393" y="480" width="56" height="56" as="geometry" />
        </mxCell>
        <mxCell id="ETWkTozmqkmJkBLLcPK1-19" value="" style="rounded=0;whiteSpace=wrap;html=1;fillColor=none;" vertex="1" parent="1">
          <mxGeometry x="104" y="589" width="620" height="340" as="geometry" />
        </mxCell>
        <mxCell id="ETWkTozmqkmJkBLLcPK1-20" value="" style="rounded=0;whiteSpace=wrap;html=1;fillColor=none;" vertex="1" parent="1">
          <mxGeometry x="104" y="589" width="620" height="90" as="geometry" />
        </mxCell>
        <mxCell id="ETWkTozmqkmJkBLLcPK1-21" value="" style="rounded=0;whiteSpace=wrap;html=1;fillColor=none;" vertex="1" parent="1">
          <mxGeometry x="104" y="679" width="620" height="80" as="geometry" />
        </mxCell>
        <mxCell id="ETWkTozmqkmJkBLLcPK1-22" value="前端" style="text;html=1;strokeColor=none;fillColor=none;align=center;verticalAlign=middle;whiteSpace=wrap;rounded=0;fontSize=18;" vertex="1" parent="1">
          <mxGeometry x="114" y="619" width="60" height="30" as="geometry" />
        </mxCell>
        <mxCell id="ETWkTozmqkmJkBLLcPK1-23" value="" style="rounded=0;whiteSpace=wrap;html=1;fillColor=none;" vertex="1" parent="1">
          <mxGeometry x="104" y="1089" width="620" height="80" as="geometry" />
        </mxCell>
        <mxCell id="ETWkTozmqkmJkBLLcPK1-24" value="" style="rounded=0;whiteSpace=wrap;html=1;fillColor=none;" vertex="1" parent="1">
          <mxGeometry x="104" y="929" width="620" height="160" as="geometry" />
        </mxCell>
        <mxCell id="ETWkTozmqkmJkBLLcPK1-25" value="展示层" style="text;html=1;strokeColor=none;fillColor=none;align=center;verticalAlign=middle;whiteSpace=wrap;rounded=0;fontSize=18;" vertex="1" parent="1">
          <mxGeometry x="124" y="704" width="60" height="30" as="geometry" />
        </mxCell>
        <mxCell id="ETWkTozmqkmJkBLLcPK1-26" value="应用服务层" style="text;html=1;strokeColor=none;fillColor=none;align=center;verticalAlign=middle;whiteSpace=wrap;rounded=0;fontSize=18;" vertex="1" parent="1">
          <mxGeometry x="114" y="789" width="100" height="30" as="geometry" />
        </mxCell>
        <mxCell id="ETWkTozmqkmJkBLLcPK1-27" value="数据存储层" style="text;html=1;strokeColor=none;fillColor=none;align=center;verticalAlign=middle;whiteSpace=wrap;rounded=0;fontSize=18;" vertex="1" parent="1">
          <mxGeometry x="114" y="1009" width="100" height="30" as="geometry" />
        </mxCell>
        <mxCell id="ETWkTozmqkmJkBLLcPK1-28" value="服务端" style="text;html=1;strokeColor=none;fillColor=none;align=center;verticalAlign=middle;whiteSpace=wrap;rounded=0;fontSize=18;" vertex="1" parent="1">
          <mxGeometry x="124" y="1114" width="60" height="30" as="geometry" />
        </mxCell>
        <mxCell id="ETWkTozmqkmJkBLLcPK1-29" value="windows 服务器" style="rounded=1;whiteSpace=wrap;html=1;fontSize=18;fillColor=#fff2cc;strokeColor=#d6b656;" vertex="1" parent="1">
          <mxGeometry x="224" y="1109" width="460" height="40" as="geometry" />
        </mxCell>
        <mxCell id="ETWkTozmqkmJkBLLcPK1-30" value="" style="rounded=1;whiteSpace=wrap;html=1;fontSize=18;fillColor=#d5e8d4;strokeColor=#82b366;" vertex="1" parent="1">
          <mxGeometry x="224" y="949" width="210" height="120" as="geometry" />
        </mxCell>
        <mxCell id="ETWkTozmqkmJkBLLcPK1-31" value="" style="rounded=1;whiteSpace=wrap;html=1;fontSize=18;fillColor=#d5e8d4;strokeColor=#82b366;" vertex="1" parent="1">
          <mxGeometry x="474" y="949" width="210" height="120" as="geometry" />
        </mxCell>
        <mxCell id="ETWkTozmqkmJkBLLcPK1-32" value="Python Web应用" style="rounded=1;whiteSpace=wrap;html=1;fontSize=18;fillColor=#f8cecc;strokeColor=#b85450;" vertex="1" parent="1">
          <mxGeometry x="224" y="769" width="460" height="60" as="geometry" />
        </mxCell>
        <mxCell id="ETWkTozmqkmJkBLLcPK1-33" value="VUE框架、Axios框架、Echarts技术等" style="rounded=1;whiteSpace=wrap;html=1;fontSize=18;fillColor=#b1ddf0;strokeColor=#10739e;" vertex="1" parent="1">
          <mxGeometry x="224" y="694" width="460" height="50" as="geometry" />
        </mxCell>
        <mxCell id="ETWkTozmqkmJkBLLcPK1-34" value="&amp;nbsp;浏览器" style="rounded=1;whiteSpace=wrap;html=1;fontSize=18;fillColor=#fff2cc;strokeColor=#d6b656;" vertex="1" parent="1">
          <mxGeometry x="224" y="606.5" width="460" height="52.5" as="geometry" />
        </mxCell>
        <mxCell id="ETWkTozmqkmJkBLLcPK1-35" value="" style="rounded=0;whiteSpace=wrap;html=1;fontSize=18;fillColor=none;" vertex="1" parent="1">
          <mxGeometry x="104" y="849" width="620" height="80" as="geometry" />
        </mxCell>
        <mxCell id="ETWkTozmqkmJkBLLcPK1-36" value="驱动层" style="text;html=1;strokeColor=none;fillColor=none;align=center;verticalAlign=middle;whiteSpace=wrap;rounded=0;fontSize=18;" vertex="1" parent="1">
          <mxGeometry x="104" y="874" width="100" height="30" as="geometry" />
        </mxCell>
        <mxCell id="ETWkTozmqkmJkBLLcPK1-37" value="py2neo" style="rounded=1;whiteSpace=wrap;html=1;fontSize=18;fillColor=#e1d5e7;strokeColor=#9673a6;" vertex="1" parent="1">
          <mxGeometry x="229" y="864" width="200" height="50" as="geometry" />
        </mxCell>
        <mxCell id="ETWkTozmqkmJkBLLcPK1-38" value="pymysql" style="rounded=1;whiteSpace=wrap;html=1;fontSize=18;fillColor=#e1d5e7;strokeColor=#9673a6;" vertex="1" parent="1">
          <mxGeometry x="474" y="864" width="200" height="50" as="geometry" />
        </mxCell>
        <mxCell id="ETWkTozmqkmJkBLLcPK1-39" value="" style="shape=cylinder3;whiteSpace=wrap;html=1;boundedLbl=1;backgroundOutline=1;size=15;fontSize=18;fillColor=none;rotation=-90;" vertex="1" parent="1">
          <mxGeometry x="294" y="929" width="70" height="160" as="geometry" />
        </mxCell>
        <mxCell id="ETWkTozmqkmJkBLLcPK1-40" value="Neo4j" style="text;html=1;strokeColor=none;fillColor=none;align=center;verticalAlign=middle;whiteSpace=wrap;rounded=0;fontSize=18;" vertex="1" parent="1">
          <mxGeometry x="284" y="999" width="100" height="30" as="geometry" />
        </mxCell>
        <mxCell id="ETWkTozmqkmJkBLLcPK1-41" value="" style="shape=cylinder3;whiteSpace=wrap;html=1;boundedLbl=1;backgroundOutline=1;size=15;fontSize=18;fillColor=none;rotation=-90;" vertex="1" parent="1">
          <mxGeometry x="554" y="929" width="70" height="160" as="geometry" />
        </mxCell>
        <mxCell id="ETWkTozmqkmJkBLLcPK1-42" value="MySQL" style="text;html=1;strokeColor=none;fillColor=none;align=center;verticalAlign=middle;whiteSpace=wrap;rounded=0;fontSize=18;" vertex="1" parent="1">
          <mxGeometry x="539" y="999" width="100" height="30" as="geometry" />
        </mxCell>
        <mxCell id="ETWkTozmqkmJkBLLcPK1-43" value="静态文件、&lt;br&gt;静态页面&lt;br&gt;&lt;br&gt;&lt;br&gt;&lt;br&gt;&lt;br&gt;&lt;br&gt;&lt;br&gt;动态数据接口，通过axios框架获取数据后动态填充页面&lt;br&gt;" style="rounded=1;whiteSpace=wrap;html=1;fontSize=18;fillColor=none;" vertex="1" parent="1">
          <mxGeometry x="104" y="1280" width="116" height="320" as="geometry" />
        </mxCell>
        <mxCell id="ETWkTozmqkmJkBLLcPK1-44" value="vue开发服务器" style="rounded=1;whiteSpace=wrap;html=1;fontSize=18;fillColor=none;" vertex="1" parent="1">
          <mxGeometry x="344" y="1280" width="144" height="320" as="geometry" />
        </mxCell>
        <mxCell id="ETWkTozmqkmJkBLLcPK1-46" value="Spring Boot&lt;br&gt;提供Restful API&lt;br&gt;业务逻辑和&lt;br&gt;数据交互" style="rounded=1;whiteSpace=wrap;html=1;fontSize=18;fillColor=none;" vertex="1" parent="1">
          <mxGeometry x="634" y="1280" width="146" height="320" as="geometry" />
        </mxCell>
        <mxCell id="ETWkTozmqkmJkBLLcPK1-47" value="" style="shape=flexArrow;endArrow=classic;startArrow=classic;html=1;rounded=0;fontSize=18;" edge="1" parent="1">
          <mxGeometry width="100" height="100" relative="1" as="geometry">
            <mxPoint x="228" y="1325" as="sourcePoint" />
            <mxPoint x="338" y="1325" as="targetPoint" />
          </mxGeometry>
        </mxCell>
        <mxCell id="ETWkTozmqkmJkBLLcPK1-48" value="" style="shape=flexArrow;endArrow=classic;startArrow=classic;html=1;rounded=0;fontSize=18;" edge="1" parent="1">
          <mxGeometry width="100" height="100" relative="1" as="geometry">
            <mxPoint x="228" y="1554" as="sourcePoint" />
            <mxPoint x="338" y="1554" as="targetPoint" />
          </mxGeometry>
        </mxCell>
        <mxCell id="ETWkTozmqkmJkBLLcPK1-49" value="" style="shape=flexArrow;endArrow=classic;startArrow=classic;html=1;rounded=0;fontSize=18;" edge="1" parent="1">
          <mxGeometry width="100" height="100" relative="1" as="geometry">
            <mxPoint x="504" y="1450" as="sourcePoint" />
            <mxPoint x="614" y="1450" as="targetPoint" />
          </mxGeometry>
        </mxCell>
        <mxCell id="ETWkTozmqkmJkBLLcPK1-50" value="&amp;nbsp; &amp;nbsp; 计算引擎" style="rounded=1;whiteSpace=wrap;html=1;fontSize=18;fillColor=none;align=left;" vertex="1" parent="1">
          <mxGeometry x="890" y="1340" width="223" height="70" as="geometry" />
        </mxCell>
        <mxCell id="ETWkTozmqkmJkBLLcPK1-52" value="&amp;nbsp; &amp;nbsp; &amp;nbsp;数据库" style="rounded=1;whiteSpace=wrap;html=1;fontSize=18;fillColor=none;align=left;" vertex="1" parent="1">
          <mxGeometry x="890" y="1480" width="223" height="70" as="geometry" />
        </mxCell>
        <mxCell id="ETWkTozmqkmJkBLLcPK1-53" value="" style="shape=image;verticalLabelPosition=bottom;labelBackgroundColor=default;verticalAlign=top;aspect=fixed;imageAspect=0;image=data:image/png,iVBORw0KGgoAAAANSUhEUgAAAVwAAAC4CAYAAACvtFQMAAAMPmlDQ1BJQ0MgUHJvZmlsZQAASImVVwdYU8kWnltSIbQAAlJCb4J0AkgJoQWQ3m2EJEAoMQaCir0sKrgWVETBhq6KKFgBsSN2FsXeFwsqyrpYsCtvUkDXfeV7831z57//nPnPmXNn7r0DgPpxrlich2oAkC8qlMSFBjJSUtMYpKcAAxRABp7AmcsrELNiYiIBLIPt38u76wCRtVccZFr/7P+vRZMvKOABgMRAnMEv4OVDvB8AvJonlhQCQJTx5pMLxTIMK9CWwAAhXijDWQpcLcMZCrxbbpMQx4a4DQCyKpcryQJA7RLkGUW8LKih1gexk4gvFAGgzoDYLz9/Ih/idIhtoI0YYpk+M+MHnay/aWYMaXK5WUNYMRd5IQcJC8R53Kn/Zzr+d8nPkw76sIJVNVsSFiebM8zbzdyJETKsCnGvKCMqGmItiD8I+XJ7iFFqtjQsUWGPGvIK2DBnQBdiJz43KAJiQ4hDRHlRkUo+I1MYwoEYrhB0irCQkwCxHsQLBQXB8UqbjZKJcUpfaGOmhM1S8me5Erlfma/70txEllL/dbaAo9TH1IqzE5IhpkJsUSRMioJYDWLHgtz4CKXNqOJsdtSgjUQaJ4vfAuI4gSg0UKGPFWVKQuKU9qX5BYPzxTZmCzlRSry3MDshTJEfrI3HlccP54JdEohYiYM6goKUyMG58AVBwYq5Y88EosR4pc4HcWFgnGIsThXnxSjtcTNBXqiMN4PYraAoXjkWTyqEC1Khj2eKC2MSFHHixTnc8BhFPPgyEAnYIAgwgBTWDDAR5ABhR29TL7xT9IQALpCALCAADkpmcESyvEcEr/GgGPwJkQAUDI0LlPcKQBHkvw6xiqsDyJT3FslH5IInEOeDCJAH76XyUaIhb0ngMWSE//DOhZUH482DVdb/7/lB9jvDgkykkpEOemSoD1oSg4lBxDBiCNEWN8D9cB88El4DYHXBmbjX4Dy+2xOeEDoJDwnXCF2EWxOEcyU/RTkadEH9EGUuMn7MBW4FNd3xQNwXqkNlXBc3AA64G/TDwv2hZ3fIspVxy7LC+En7bzP44Wko7ShOFJQyjBJAsfl5pJqdmvuQiizXP+ZHEWvGUL7ZQz0/+2f/kH0+bCN+tsQWYvuwM9gJ7Bx2GGsCDOwY1oy1Y0dkeGh1PZavrkFvcfJ4cqGO8B/+Bp+sLJMFTnVOPU5fFH2FgimydzRgTxRPlQizsgsZLPhFEDA4Ip7jCIaLk4srALLvi+L19SZW/t1AdNu/c/P+AMD32MDAwKHvXPgxAPZ4wu1/8Dtnw4SfDhUAzh7kSSVFCg6XXQjwLaEOd5o+MAbmwAbOxwV4AB8QAIJBOIgGCSAVjIfRZ8N1LgGTwXQwB5SAMrAMrAJrwQawGWwHu8Be0AQOgxPgNLgALoFr4A5cPd3gBegD78BnBEFICA2hI/qICWKJ2CMuCBPxQ4KRSCQOSUXSkSxEhEiR6cg8pAwpR9Yim5BaZA9yEDmBnEM6kVvIA6QHeY18QjFUFdVGjVArdCTKRFloBJqAjkOz0EloMTofXYJWojXoTrQRPYFeQK+hXegLtB8DmAqmi5liDhgTY2PRWBqWiUmwmVgpVoHVYPVYC3zOV7AurBf7iBNxOs7AHeAKDsMTcR4+CZ+JL8bX4tvxRrwNv4I/wPvwbwQawZBgT/AmcAgphCzCZEIJoYKwlXCAcArupW7COyKRqEu0JnrCvZhKzCFOIy4mriM2EI8TO4mPiP0kEkmfZE/yJUWTuKRCUglpDWkn6RjpMqmb9IGsQjYhu5BDyGlkEXkuuYK8g3yUfJn8lPyZokGxpHhToil8ylTKUsoWSgvlIqWb8pmqSbWm+lITqDnUOdRKaj31FPUu9Y2KioqZipdKrIpQZbZKpcpulbMqD1Q+qmqp2qmyVceqSlWXqG5TPa56S/UNjUazogXQ0miFtCW0WtpJ2n3aBzW6mqMaR42vNkutSq1R7bLaS3WKuqU6S328erF6hfo+9YvqvRoUDSsNtgZXY6ZGlcZBjRsa/Zp0TWfNaM18zcWaOzTPaT7TImlZaQVr8bXma23WOqn1iI7RzelsOo8+j76FforerU3UttbmaOdol2nv0u7Q7tPR0nHTSdKZolOlc0SnSxfTtdLl6ObpLtXdq3td99Mwo2GsYYJhi4bVD7s87L3ecL0APYFeqV6D3jW9T/oM/WD9XP3l+k369wxwAzuDWIPJBusNThn0Dtce7jOcN7x0+N7htw1RQzvDOMNphpsN2w37jYyNQo3ERmuMThr1GusaBxjnGK80PmrcY0I38TMRmqw0OWbynKHDYDHyGJWMNkafqaFpmKnUdJNph+lnM2uzRLO5Zg1m98yp5kzzTPOV5q3mfRYmFqMtplvUWdy2pFgyLbMtV1uesXxvZW2VbLXAqsnqmbWeNce62LrO+q4NzcbfZpJNjc1VW6It0zbXdp3tJTvUzt0u267K7qI9au9hL7RfZ985gjDCa4RoRM2IGw6qDiyHIoc6hweOuo6RjnMdmxxfjrQYmTZy+cgzI785uTvlOW1xuuOs5RzuPNe5xfm1i50Lz6XK5aorzTXEdZZrs+srN3s3gdt6t5vudPfR7gvcW92/enh6SDzqPXo8LTzTPas9bzC1mTHMxcyzXgSvQK9ZXoe9Pnp7eBd67/X+y8fBJ9dnh8+zUdajBKO2jHrka+bL9d3k2+XH8Ev32+jX5W/qz/Wv8X8YYB7AD9ga8JRly8ph7WS9DHQKlAQeCHzP9mbPYB8PwoJCg0qDOoK1ghOD1wbfDzELyQqpC+kLdQ+dFno8jBAWEbY87AbHiMPj1HL6wj3DZ4S3RahGxEesjXgYaRcpiWwZjY4OH71i9N0oyyhRVFM0iOZEr4i+F2MdMynmUCwxNia2KvZJnHPc9Lgz8fT4CfE74t8lBCYsTbiTaJMoTWxNUk8am1Sb9D45KLk8uStlZMqMlAupBqnC1OY0UlpS2ta0/jHBY1aN6R7rPrZk7PVx1uOmjDs33mB83vgjE9QncCfsSyekJ6fvSP/CjebWcPszOBnVGX08Nm817wU/gL+S3yPwFZQLnmb6ZpZnPsvyzVqR1ZPtn12R3StkC9cKX+WE5WzIeZ8bnbstdyAvOa8hn5yfnn9QpCXKFbVNNJ44ZWKn2F5cIu6a5D1p1aQ+SYRkawFSMK6guVAb/si3S22kv0gfFPkVVRV9mJw0ed8UzSmiKe1T7aYumvq0OKT4t2n4NN601umm0+dMfzCDNWPTTGRmxszWWeaz5s/qnh06e/sc6pzcOb/PdZpbPvftvOR5LfON5s+e/+iX0F/qStRKJCU3Fvgs2LAQXyhc2LHIddGaRd9K+aXny5zKKsq+LOYtPv+r86+Vvw4syVzSsdRj6fplxGWiZdeX+y/fXq5ZXlz+aMXoFY0rGStLV75dNWHVuQq3ig2rqaulq7sqIyub11isWbbmy9rstdeqAqsaqg2rF1W/X8dfd3l9wPr6DUYbyjZ82ijceHNT6KbGGquais3EzUWbn2xJ2nLmN+ZvtVsNtpZt/bpNtK1re9z2tlrP2todhjuW1qF10rqenWN3XtoVtKu53qF+U4NuQ9lusFu6+/me9D3X90bsbd3H3Fe/33J/9QH6gdJGpHFqY19TdlNXc2pz58Hwg60tPi0HDjke2nbY9HDVEZ0jS49Sj84/OnCs+Fj/cfHx3hNZJx61Tmi9czLl5NW22LaOUxGnzp4OOX3yDOvMsbO+Zw+f8z538DzzfNMFjwuN7e7tB353//1Ah0dH40XPi82XvC61dI7qPHrZ//KJK0FXTl/lXL1wLepa5/XE6zdvjL3RdZN/89mtvFuvbhfd/nxn9l3C3dJ7Gvcq7hver/nD9o+GLo+uIw+CHrQ/jH945xHv0YvHBY+/dM9/QntS8dTkae0zl2eHe0J6Lj0f87z7hfjF596SPzX/rH5p83L/XwF/tfel9HW/krwaeL34jf6bbW/d3rb2x/Tff5f/7vP70g/6H7Z/ZH488yn509PPk7+QvlR+tf3a8i3i292B/IEBMVfClf8KYLCimZkAvN4GAC0VADo8n1HHKM5/8oIozqxyBP4TVpwR5cUDgHr4/x7bC/9ubgCwews8fkF99bEAxNAASPACqKvrUB08q8nPlbJChOeAjXFfM/IzwL8pijPnD3H/3AKZqhv4uf0XBbB8iN1Jlo8AAACKZVhJZk1NACoAAAAIAAQBGgAFAAAAAQAAAD4BGwAFAAAAAQAAAEYBKAADAAAAAQACAACHaQAEAAAAAQAAAE4AAAAAAAAAkAAAAAEAAACQAAAAAQADkoYABwAAABIAAAB4oAIABAAAAAEAAAFcoAMABAAAAAEAAAC4AAAAAEFTQ0lJAAAAU2NyZWVuc2hvdKkZVjQAAAAJcEhZcwAAFiUAABYlAUlSJPAAAAHWaVRYdFhNTDpjb20uYWRvYmUueG1wAAAAAAA8eDp4bXBtZXRhIHhtbG5zOng9ImFkb2JlOm5zOm1ldGEvIiB4OnhtcHRrPSJYTVAgQ29yZSA2LjAuMCI+CiAgIDxyZGY6UkRGIHhtbG5zOnJkZj0iaHR0cDovL3d3dy53My5vcmcvMTk5OS8wMi8yMi1yZGYtc3ludGF4LW5zIyI+CiAgICAgIDxyZGY6RGVzY3JpcHRpb24gcmRmOmFib3V0PSIiCiAgICAgICAgICAgIHhtbG5zOmV4aWY9Imh0dHA6Ly9ucy5hZG9iZS5jb20vZXhpZi8xLjAvIj4KICAgICAgICAgPGV4aWY6UGl4ZWxZRGltZW5zaW9uPjE4NDwvZXhpZjpQaXhlbFlEaW1lbnNpb24+CiAgICAgICAgIDxleGlmOlBpeGVsWERpbWVuc2lvbj4zNDg8L2V4aWY6UGl4ZWxYRGltZW5zaW9uPgogICAgICAgICA8ZXhpZjpVc2VyQ29tbWVudD5TY3JlZW5zaG90PC9leGlmOlVzZXJDb21tZW50PgogICAgICA8L3JkZjpEZXNjcmlwdGlvbj4KICAgPC9yZGY6UkRGPgo8L3g6eG1wbWV0YT4KJz0LdAAAABxpRE9UAAAAAgAAAAAAAABcAAAAKAAAAFwAAABcAAB+b+E2m9QAAEAASURBVHgB7J0HoF1Vlf7X7eX1mt4rAakBRJCqgAICjoKjgiA4Ijo6g2VGsP0Vx64zY68gWEAEQfooSO8tBAgJpLf3ktfb7ff+f98+7+S9hPcSQvKEyD3Jeffec/bZZ+91zv72t9dea+1AIVcsWXkrS6AsgT1CAoFAwJVz8GOHZS6NYesujWXmO6zZnpkgUAbcPfPBlUv9+pRAGXD37OdeBtw9+/mVS/86k8ArAdwSpNgnugG+BfRjODvV+WGU2TtPGndcAh66Wr+8jZxcHmLcnOe/8tYXHdFWsqD3pfx3iwTKgLtFFOUvZQm8+hLwcc8HVmGYYOylm3fUT++dH0w5iHiCvlSmYAUligYsHAha2IoWzGUtWCAtx0uFvBXBxVwsbMFAxN0rnC1ZqBS0Urho+VBhC4CCytyG4xZiD+hyr2zKij1YzFmwlOd7gQNhkkdJP1iYbSqwdbm3OcnP4f3BS8/uuUfKgLvnPrtyyf8BJeAD7XBAGhl8BK7Anp9wCy31haLzQcGrpfJFSwOcQdKGrWCRTM6iuSKnQ+Aie4Q0wYBLWygVLZphzwHGCbM8oCvIFHsNOMaqPAXbHpB6pSArvoSKWbcHAF0DbEuBuLvSL9HwT6/YI4Ox6jVynYfnsGd+LwPunvncyqX+B5WAD6A+jqqaI4PPywBcJQEY8/mc9QUB2FAYbhoW2bUoLLYEEOfTOSskI5bhICkcgFdAeSOw2QAoWuK6ACA8tAl6Q1akgDqqXbcR3gfEcC0POwZwTWx5Rwy3DLgIqryVJVCWwKslgd0LuCUrpgaEopZPRi0HCBZLQC44F9OoX7goNI8FLM0x/ZTNUlyADJIKRPmvo+yDPzgHFLs8fdCVdkJpArBnwbAAOgAoB0phjpN2hG37DHeEC3bi0GvZeqLMcHfiQZaTliUw1hLYrYBbLAK4/agMQoBq1NJSLwCwAtJoLmSRAjpdMVmxW5LkqFwefBQgh0gTBpTNQ1O+CFUHd0dngdKQ9LlekiLfnIqX3wLTID+CUg6PspUBdxTBlA+XJVCWwN9PArsdcNMZ9LRBC8QAW9hnVjpaJrTigG0JXW1pIEvlAN1YxAJx9K6gbUGMVhNspLG8IHXYFhDbFT3muMirdjbHbbmmFGBCDTQNkSy0HRP/HQGud97Le2f/Frdz353Na3enLzPc3S3Rcn5lCeyCBHYr4IKJxRSKAibELFK0QhALAnSy4ULWCl3dVujstaIAF11usLLKQk0NAG8MlosqIhpDA5sEV4exVAeuAmCnfIDwigLrt/S6Qawh0NsCuEXSiSGXAfelL0IZcF8qk/KRsgReNQnsFOACjB7B1F8QTqxT+KfNfceiIAN71elA2tuLPdaz5kXrXLHMulevsZ61GzgZsqZxk6x53l5WMXW6hZubLVhTBzhXwlxjTlWAdkKk192vmM9YFCZcAridDtjdU0AbZZc5mGe1EBx5tk+l88rk02N3ZOs/ZYa7tTzKv8oSKEtgDCQwEuAK7LxtyAzMAySZT3kIO/w3Rx2gyQgsh2I2zMn8QLcFUpusa+1iu++mq2wA0K0DQKvJO5OG+YYA1oZxNnG/hTbj8DdbZPI0Zs/qLBuu5NYRGyCjSCQGNJt1dbVZc22NckeXULCShvBMxqEZdixXxRWpDgno97DNl+dYFbvMcMdKsuV8yxJ4BRLYJcAVwPmsUgxX8AjdTHdnLJxqs/VP3WOP3vY7qykAvl2brCEaQpeLqgHczKMHaCd9rrbRJh240OYecYyFJ8+yfFUT6JmwrOCVvGRWJo1tGLVCAn1usJgHcIFYAW4JHTCgK5WCOgCB7p62lQF3T3ti5fKWJbALEthlwN0CcmKd/MBSoK+l1fqWLbLH/vwby6152prDWRtfAXhmcYIowINllsDwvh2k3JjFNreuwaYe/EabdeyJFp42xzJSK4SrLF2KALNBfsnTLGOVgLqAV95qzswBwMUcYgvgeqx7F4TxKlxaBtxXQejlW5Yl8GpJYGcBV+WUCkF/3bU+4MJ0S1DXUrrXepcvs3uv+JXlVj5nsxNFi2V7rSaBmgHADWPBICYqYpwLh60jV7JWjgcam2zByadZ86FH4t6LWqGiAQJbbz2oEKLBiLgz9rqy7EWPC+CWNLk2CLhguMvTL4rKuKdsZcDdU55UuZxlCewGCew04ArVBK7smtQanI1imI8FQbbf8m3L7fHrr7blt/3F9krGrDE3YMkI6VEFOO0A5mK6PicTMexq82TSAeD28hmaO9f2efvpVjFrX6wYmqxU0Wz9sFzpaCPcV9/wUWN+Dp0E7LjEOcVPKHCtiiJ33z1tKwPunvbEyuUtS2AXJLDzgAvyAZhFTLQUK8EH3ALuvIFMh3U8/Re76fvftjmA4RRgMNmH55mQEHeyIsayaVSyISiuHBWcLgDgTKGT7cFUbG0wbJMOe7Pt/ZZTLTxpHna6DXisVflGYSgPhNkALrtDYeC34AA35G4hW9w9bSsD7p72xMrlLUtgFyQwOuB6dHHr8xwDJ6VREOB6eCtuWbJsNmOhgVa777IvWucjD9r0TMgmR4lG0y8VAOy3Gn1suGT9sN18rmBxgtiEZbJLjAV5kGUB8Q0AblusyvYHcMcdeRKA22iBumbLRyDPZBFHrxBGpeAAl/SapMsDuHmAV1NrxMvZZvPqsPVBVWCkbaS0frrRrvHPD792pLSjny8Dri/D8mdZAv+gEth6cmkbgMASAEgEQ/EWKxKli9NORwquBjHLElktyf2WyF9SB8B1Ge5zTW+X5dYvs9997SKbUkxZI0A7GfdeSwO4UtoSPyFDHjkihcnjLE7+IfIJYOJVBFDzgGkmHrPlnfinTZ5pR77/IxadeZBZ1QQL4gqcRdcbi4CogQx3xJECsEU7DNlmh9mC4zg/8IVbqX5S8aomjkjzHPmmP5zWSZcM1YT75Z1VsB1O6JhTTZDGXazPwWt8Nu/1NN7xkqwzAkJ6XctNdUPSu7gPZFTkPIZs7p+ugItTb+38UP2xZSu5G+rs7t/KZmG7X6blHMsS2CkJeIArYHjpVmJiqhSERRZwvc3DHklGGATUAOyBFF5jAAShFgORhKUB0gK62VgJUG1vsdYH7rDbf/1DmxYt2VSUrhXEwY3KZpbvykNuviWAOl4QuyVjZ97FMbzSsoBuCQDvxbV3ZSRp1Qe+2Q4+7TyLTpiHGVnIQgA1hr0AVMbyeLBp+ixvFa5TCAHGXE75QDElo1wKqyCXYcGoB3heXQWxdCWAI0kFuOwlOoxiEJUISYR9IfUyDn/1KV2xriWto/T6ynF2uRQLcCUzvmGyRiUFutyhINmQWY68c6r3IORG8YyLUv8IzF79Gs5yWGQo/7HZyoA7NnIt51qWwMuWgPBCADLS5gOuaGcwNwi40ruS3AEuAFQkyLgBuHksDgS4wUyvBds22r2X/dA2P3GfTYfYTgBk4zgvBLG7VXzGPL63whghdww0DG0BXPg0gJvjHgUYXzgRs5ZohT3bU7Qj3vNhm374iVbMhy1cV8fF6G9DeTqBAliFh5klAFw6BgBXzhZBgSblLIlR898HWoeXXC2wdayWA96nEistZQAcBZ4CYu2CTSEtZ/XFHXQ4zEkxfg9C3UnS6p/iOWhUwO5Yrpd1kXoX3KjBg1xqjkxIr75BnZHKWma4niDLf8sS+EeUwHYBF/ZYZNguIPMBF7xzuLAFcPEUs2jSCgCug7VUl1nLGrvqS/9hjT0tNg3W1giwhpy9LMgC8ROgCmODHI8KlMjC6QIAsyy6XZ13IXQjYesMx2yF5tqYODv63edabOocCzJ5FmCVCOWl2AuKkStPs0CBHUxXnQIwc/eFM2KjHjN1uDkItpwQhAoQwbotn1Qjzz6Ik0rkbe4+ytwDS/FlAW1xC2NVJtQTmgoHBzf5TnLVYwuGcitdH2AvikmTRkzeL5skuD2XZK8gr/xvmeG+ctmVryxLYLdIYLuACxIWg0OAKzYn/aqCg4eIjxAGLMVwS4BigTCMzhGhv83Szy+y3/6//7S9IzmbTPqKIFAidiu9Kr+z7FzqdJZRkA1cB3Q4x5aGBQpw41yTx1qhX8Pymnp7viNtsw4/zua/40wLNYwHcBPkIb0y50kjgPOZqnSlsoIQi+Wo90+3F4rqNg5g9SkE1DYEyNKjSqWhPJTM2/zvHsv1rvLP6pj/XdHOqJy7qwe0Al3t0k8rmcDVpSd/DRXyUjfwSVekGD/IlONjtJUBd4wEW862LIGXK4EdA650uKw5hnmAJn88wMWtFuYrwC2Bwlr2JgvwxYJpK/W02gu332APXP4TO6gyYONBmZADRa9ERcBagCsc1WH5h2nSSDP0GvZnOZbD+4x5NcdWM3ifGVHEOrFAaGFi7Mizz7eKNx3LRRWUJcEVUccgXXQw1AsBdldO9KMe4MI0AVaH52TFSYd6DnxVJIGuh6D6Rb4AflQaX4GsB6UezJKU3wJwT20gWPVAVQxW+KmssuzqmLTpQwyXlYLcOm4uwJlCTuoEFwSop6wupNPOUf8Y8o2K+o/RVgbcMRJsOduyBF6uBLYPuACPdKFM7ATRJQwBruxuAVz0jyWsF/IgTZa9IpIh9OJ6++sPvmV9T9xv+7B0Qz2MzTMnUwhFgIW9IHdeN872JrjCgI2C0IjcaThfhPVp2B2B+QUygDCWDOGGGnumrc+qFh5iB515jkWm7Q1QVQLUCZdVWKZpTo2A5QJgmxcQ++CoyS6ndEUq3GOI2fJd+CYh8F+nUAKj/6Xj0D+Oi0FTW375zDXsLlHxBaZSYbiCu4v5Ttk9XS3XUxflA4bTqVAXMXmnvNZN2TCnKKBCyUpvjQzimkRTjzZGWxlwx0iw5WzLEni5EtgR4CqObVCACw3TBJTHcDUhxeq7oGcAp4YcyCKzsGQ4ZYXu9XbtJf9m47o32pR8yqrEXsEXAVeem2kvoLsFW8ApDcAFSCCSgJkPcgQ4PdDSgaQQmmtFdNtCIXuOK97wzvfaXqe8j7LUclnCAzTyCaD+sKBCnctMDH0u5XIqBYLbeAx3C6rqRlt2AaNTIXAshJVFIE84SXLQfbVLzyoQF+gqCpo6EKcrFtiqfuop+O92PjAohr3CkUFapw/mqiBlCPKDfkoJPKGQpsDSFjl2lDfw9wjxJaC8Y7SVAXeMBFvO9vUlAY9BvrI6Dze29/PxQBhMgMax0DkgBDpqrMx/sJfjAAqAG1b8AibUBMRyRginN1mxe61d9ekLbVYpZc2FjNUxuZVOwxFZ1aGIGVhPCrCORCzNJFoay4W6ugrr7e23Gs5X4ACR71O+3CchRlyySjx3HfZxrgegfpEwjWvjtXbmf/yX9QbrbNykWThawBIHBqyqDjtc1pZwgCZwFJIK3LSL5Qr5lXeO+Asc0orBqpqnQHCnZM1rgT7yUFp1DOim5Yzh6g6wClcFwgJy/fX0wqTVuQxmam2tFm6s4doci2T2WLShFjBlxQt02LFQFVYWXIXtl1hvXhOJmCiE0Z9ki2l0vVHgXD50Y7OVAXds5FrO9XUmAR8oX0m1twe40rdKl+lsVAcBV5NRJdQMGnp7gKv4BQIPRsjZTZZe/oTd9LWLbQYA0siYu5owjD0DQI7WNmPl3j7UA8UQ5luJuE2YMc3C1RW2fu1qa1u1zpKAVi3gVAv4YoXGOmgFq3KAK/YaxBU4aKvDEVsTqbSKvQ+zk879hGUKFRbCSiIKsOeKqDRguLEQF2sIT16OpQK+ItECXSGn2LUAN6PVJ/gXRHXhTlNb7DEY1rPEulgrMSFKWgWYOgdlhYE8XOBzxYrgulImbfnePiuksUnWxCD3LfaijkhhI4weOFibtFB1HAaL2VqymjtXYTMMoKITDzvQlrcceQO6hYJAHlZeBtxX8hqXrylL4O8ngbEDXI/9adIp4AAXwGGGq4QysiRVA4wswI4q1/kthAHc1Xdea8/89qc2KZeyhhiODehrewdyOCsIcEOWYlIoixqiUFFtc44+zsIzplqxdYMtue9u61+3DlZctCYodi4Zsgw0sIJJpqC8sMDKHEyzFfDaGE7YiyDyBz75JUtOnAvrTli0qhZnLVlVwBiFq1g4eGBL4YSwQJkwVMCaF2AOKmFlccEZ4BOb3mKWjgMnimKVRekoMBkWZHMeVp7vpxwAaa4fZ48BlnkHIAFsLZRZaFlvq5c+bxuWr7bsJtQRgH31hHqrnTbB6udMs6Z997NQTaP14TxSijaSP7CO+ZgmBjVpGGQkUCpoVYw4stWRsdnKDHds5FrO9XUmgbEFXOlYBbgIVYpLAK0I2DrALcWdF5pMvOQoFkpvtIeu/B9L3X+bjWOJ9CpYZwR1QyrLFBYA5lgqHlhdmCL0RKvskDPOtth++1kx3WetD99tL9z/N2vo6rLmbM6KAG4Rh4kowBlx9BQcIy+pFTowQ1vPvSvnvMGOPusCC1bUs7MmGioL6YqLBM+BtFJWDfxht6C1B6sCXPSqnI9QHlJyHpCGGYu5hlFbFAMJ6zeW95HSt4TpG8cjnA9l+swGOq3Yz97bbqmNa239sudszfNLrKe1DaZasup4HBBlIo86prlGwXmSE5ts+sKDberCN1ls8lzLxpoI0BMDwqOWoD4xeoAgkdWCjkmXAfd11nTL1d0TJTCWgMuA2ulUA5pd16wW6oSiY7ma8CIgjawXAFyZPAW6l9ttP/yK1a1YRPyEfob2DJ0BPTHPRBxdLxiWYd2xloGAbY7W2TEf/Q+L7rUAxpez7mVP2JM3/cGq1yy3qQS/0Uy/qKom1JyNAJ8CzQL59ZNvezhqK7FgOPid77Fphx/PwhBahLIG8OQ+mowDrAOAr9itszagHtyeTVNfyhOmnmP4DxPXp6wiKCyTXSHrB6D7B1jinfXTErJ+6OuxztXLbfXTT9jmF5+3XPtmgvP0WwVlqk9EUIFQT/LMMbMXTlTApMmD87KvlcvzBhTckxa+0Rae9j6LTNnbMtEa60N9IAZN4DQLpgcoEwIMA7jkNFZbmeGOlWTL+b6uJPB3A1xBFu60YrcauodYWbeIl4L0oQWYaH7DIrvlR1+x6W0rrLFXek0mhwC9ELrcsGLfKk0kbhtSIduQGGdv+czXLDpjhvUAdGGuef4vf7QUMRjGtbU5hhplUkvaAIGhXF+FweKsOUB3E6qHnqoq21RZa28790KLTd0HwG3E7CrGpya6KKsDXEGrlAaivGTAN4EjEdDRweLCJqBjL2WwsOiCvfa1M6HXR73S1tHaYquefdbWLV1m+e4uqwOMK1FBVHB9DSAbp1wBJuAUAS0MsEajdAQ9aToX1CxpWDRqlHhl0lZ0DVhHvMqmHnmi7XPa2RZumuLsiqXokFohnE1TP5TVZcBFIuWtLIHXuAReLcDFEIzg4QI3QDCTtd4XHrC7LvuWzelaZ039aexotSAOLFWeDaBLCaYXSCZtYy5ua5KT7K0Xf8/yEydaB5ZQdcUu6332XtvwpystuuRZIogRHQGmWYQGypJA0cRcgDDhKCCVAuC6q+L2HMFzprzpGNvvrWdYrGE2N6lhwgqWCBMvAcweux0C3AA0W27GgRxqhHQ/6gGWbG/fZN0b1lvnxg2W3rzKOlc+ibVEL6CZtQR65xoilyVQVwSZGRRYS0estdSE51q1Qtw7A/BmUIUk4mGu4QQThYqEFsI9Oc1E3yp04GlUCkec/+8WQxXSExNsA7jKA8ANoz+2kFQKZbOw13hzKxfv9S4BAdDQttUPd9i3RBg5nZq9v3nXbpWO02AfxBBYEbOF4Tqy6P7EABlwAtZXQse58eFbbdE1v7A53ZusCbAKRpm1B+DCRAwT4Kb6ATqsEjZmk9YJOB79qa9asb7OuglSkyy0W7R7na356y228a6/WE1/h1WkM5aESTrQlj7AFQRyCkstJMLWCgD2JBO2OVhh+594pk0/FNVC5STSUURMzxx7lR5DkcOwr5WuuNDXbX1tLZbthslubrUegLZ7/Trr34xJG9YFcXS21aSNQ6cxlnDgqkm7IBYOiu6FooJ/MFvOK7JYnjLJa9lxbwSXy8h6Q04M3BY9saKpdaJqWIdet695hh1+3ietdu+DrRfVgzZNKgZSPQCuLBuqyRMLiTHayiqFMRJsOds9TwJjxVIFtkVNz7N5QCrdpvs17Jj7+pI/0svKM0rD+jxG+nlsS0uAl6ImEFQQ2PMcEoIllnrM99qTV//C2u++zWbDGmu0RjpD+xz622iSG0I623pA5+pKW59OWsXcQ+zAcz5hoTomqCoxlSr2MUGVsr5V6+yea66x5MoHbHxvD2ZiTLyh9wXZAG3KDuNthxGarBioSIFzbVgWFBpnEFHsfIvP3t+yeGfEYtXkiS5YS/30brLezWusY90L1tOyCpBdbQObNlq+qxtTtCK2wlEX70GutQo9E8bYGFsKrNioK51JkXuXiEIWYj01B7fINCDWDjt1DmwUrYSpV0lGykRMC6NqKMF2g9BXya6Lq1ZjudBZM8VOuBDLCsrYzz2VF5hMYPZNqCSIWcG6bRbwgPglD4MDfsc50rmXc6wMuC9HSuU0rwsJjDXgvhRkR2Cz20ha5FBA4wK6sNquzMFkqRDGrCvM5JRcXgU4IZwcjCV17vzRN6205AmbzVC9KoVLFYCrqFgueguTWN0Euskkkra5WGsTDn6rzf6nc2GkrLSbhEqWBsgXu9jOfnvxgYdszR1X2vj+zaB02iaihpA6QrNuAajjACAeqfTse6UnBaqtC2Y44YBDbfIRx1oQE6xidx/gus46Nm+0ns3rrWPjGhvo2GQRJsLigGwEvWsSoVQz5JfaIAioKsCMdMQh1Aea6CvB5jWXJsANIge5JbgNwJVCWf0A39xkYEAueJo95COVTluynuA6qaxtliNHc5VtxPphoHGWHXfeZ1gCfr6luO8WwE13cF8m7iK1yDe5zVMY+lkG3CFZlL+VJbBLEhg7wAUQhJw0b20vBV53eOQ/AhtAqAirLcBuA4BnkLxCgK0RCtGhLbpUlnhguL7Zrv/6JVaNDnQmE1DVqBQ04y+Mkm4zFMfbirt0YWfaFR1ve731XdZ07Gk4QBCLIUkiHCVwXXDmZ7m1G+yZmy+zvucesWjngNWDtfXoSknkXGZR7uqr5RiuR6JBHBhK1k2afnQAdXNmWU1drXW2t9vqFausvwcjL2hkkrJIX5pEvyplgwLKhDF309xaSeyZegpoQ9xHwdHzTPQV2CW1gPTHEPaIMzhWWg46wPVkqpGACxKh49wkh9lZlE6kH3O4FPfrwtGjI1Jtk9/4Vtvr5PdbqH4y1guwZS4Hd6lzL8AOa2c5eJQM7CNvZcAdWS7lo2UJ7LQExhZwxcN2EmxJz8CYkbwmn/AOc6oED6RkClZSmCt/y3Vgn7rRrv3GxdbQt9Em43lVj2ITDmhhGOgA4BvGVTcL+GwkJkN/1TRbePo5VnngUWaYVeUA3KBiGOAAoOF8sR8b1qUP2pO3XmPBjcQIk20u2J2QvYEQUlP7slfTBttMpekIWOSsk4mrPPkpfoGCwUS5XwwAlR1vAAsJhT7U+mkCUKoEyDGZxncFOxdpdXpYqRD4J+2AwkQKFDlkce7nVmYgD0dr0b3mpeLgnywocLyjEyJTOoAA9enuxestQdD2yip7vg0TshkL7PB3nmXxvRZiwlZD14L8yDhMGdXZBLBSCATkWDy640MZcPWMyltZArtBAmMJuB5CqJAeI/NY7o4LLZDNEvdWwKsrgUVAi1l5Aa5iCuogIFMkhkK25Xm76adft4bUZhsHw21iCl9DcZlKpQW46Fwx77cNDL3z4xbYoe8+36JzWacsCSihetAaaSWCxoRdODGmpTLttu6+2205E2hVPe2W7OlgMgs1QAUoCLN1dmOgpGOXAjzpi1mQsgQYZwHCNGWLA/YCwyLqCDFap4EVuLLL7dcFyeHTBafhSJa6aMXhBHnkyGOAKgqHpdGt5JqoIugIcNmKAGXGAa4juzDgwXM6VhWxzhTslpi9awZK1kvsh0NPOQNrimPRWY8DaPE4k3wkP/LRJJysHpAunQA3HWUrA+4ogikfLktgZyUwVoCrcnjszSvRVmCrBu/hh3dym78OcKUIIJ2YnJssEyAAuCg53fESIFdMtdjqR/9qj/7pMptQ6LEJ2LjWCugEcjDKXB5dKIDYCQBvJo5tZPahdsC7zsUJYC/YIF5XqCoUgjuAaRREl6E+s/uFXux6X7TH//Q7y69aapG2DdZAuhrMropYJ7hiA1pB1ABhxuWyA85oGR+td8a9cGegvAAZQBhgF2+Mo6tV+ERXdlWKMkodUUAoUn+gtYXtsqglecA5rRtELFIJMeU6KHGSeviAK4eGAeXFJueMKnYxYVktZLm+BzVCC53SunzM5hx2nB3sAqePQwfNpJgeCHkKu3VvxZhwcMv95NU32lYG3NEkUz5elsBOSuDvAbgvAVuV0SHXyIUtMkmWZUJMTBD3BSAIjkikK6mEtcseVVFriv0t9sh1l8NGb7CZbpWHgsWICiYwDHJtkdgFRdhmK1HDuisbrGq/Y23v03EAaJxmRcy+cvwLkCak2X30ASFmowL5PsCyl2XW77QHrvm1NWQ6jUXSLdMFe65NuJV7A4BaTkFqAN4sJmQVsOUAlDcH8qX51CSYQFb2AEUcEZwuVqZagLMigAnbUnwXqZa5gOLw5ukUFFS9n72DEwVsdpOcm4BqtQFnD6/ysFaEKcautc+QCGFpZAomNYO5jqUNOa3GRrl5/yPtCDzMYlPneqZqAn05OcCEhbty4CsRG0LhH7Xig1YcHm0rA+5okikfL0tgGwlsBXbbnPN+js5sdnStGq62HaXzUr38v/A9htkALoAW0JQ8RvleUG6YGdlIixsVwLEk+j1X/9L6Fj9ok4sD1swMf5CANSCRxQFBsWAFnukEtNdi9jT35LNt6rGnsnTOeIbmwnxZAyiKLawYCwjZCoQV0AVTs0LbSnvh1j9Y+6IHrAIb2hKAO5EoXFhfkRaWCKhrYi/PxFwSZiuuqDgIAtMiYBrB+SHCvUUnBbRisGKzGZjrAJYKis1bgJEqNg8Yy2fEelmSohCusJqmSTapudEKA102sHapjQuj9tAEIAJPC+R1b+6lslcziRYmn010ND0w1rUaGIybaW85++NWOXs/ViNOosfWChXIBfnQGyA9ecHBrINxFydY5soC3dG2MuCOJpny8bIEtpHArjDY3Q2kw4vmg/XwY0PfFTaQiSziFgg9pXPU3JBiaOsTB1Y8ffsst+I5+xtL6tiKZ2wmtqvjNBkEY00xiZWo4FqG9BmAr5OZ+RWlpB32wYus/uBjmCzDDIpNg3lZP2gBxRwTRwK+EOAYZua+lG613OpF9vBvf2bR9o1WR57FbkI/VrHEjqwLYIwFwDOve0G5ZcwggC8AsCEN+RGedLbqk4KaMEOnnBVgsg+wd+K50T7ABBcMvGlSkzXPmGsT5qBbDldapKYZXXK/ZVYssRWP/NWSOGNUA6ph7qe1MwWWSVQiRVQNBUzBokyWbQbAn1zfZUV0tad/+JOWnH8YkcLG43iGuoBrowr1iPQU9lGdmOyIVWetrFMGXPc6lP+UJbDrEnjtAi5gNMiQt62lzMC05zFvyqEOEJsk8Kxzt80xlI4zoZbAfjazdLHdfdlPLLpuhU0DUCqyOA1wXkHGZR4lHwExws0sx7M2WmvHf/qrFp2zr6XCxIvlphEUtwJbrZyQx71VbBPcxgwLZ4BADzEOVlvrvTfbM7ffaLMZ3veuarMGgFOTYBHZ8AK0RQBXZsJykGA0z8q+MUszWZYnzyJgr7IPALy9gH8fx9phoimONU2bbvMOOsimzN/LgvUNXFdpQUI9llBByKc4t54YD7f8yTpfXGRTUb8GAedKbhPQ8kLcT9NvTnzISZNsSzJ5W8d1p5z9YRt3xIlYJIwDnOkF4pU20N9rNdVaoUIF1RhBE2d0N4OdjNitgq+PtpUZ7miSKR8vS2AbCbxWAdf3QtumuO6nVAp5HAU0kSPr1QBDZekeCyBoGp4bQq8azfTYurv/aktuvsEaGfKPh61GNOwGcFMyJYM5xgC2NMP/DTlAt3aSHf/F77gALr3EsZW/WlzhETWUBmwK6DNlYeABLmxQgNuzDpbcbg/+7L8tuHKlNQOu9bBXF5tBeg3KJLarADIUFKA364aRxyqSbmme1s4+29QzgO0rdhaV1TZ97/2seeY8Gz9rnsXHTaQTweCM4OGx6hrCPKKsxeur0N1phdZWe/Hev9gTt91g06rDVkuMyiTMOwZoJ6RiobvI9BK+MRkn37g9vppgN8RdOO4D59n0406BTddYfz9pa9E+a4VhWH8U1YMLp4MqRt9KAK4iNGi9OIEtp0fdyoA7qmjKJ8oS2FoCr1XA3bqUW/9iYM4s/gCBW0A1ua4ydC7BXgNMjAUTYqQE40512LO//Jm1P/aoNRVyLImDWRWMM8TeD8Co3kktqYOydi3UNTNtgR3xmUutWN0Aw60kPkGB+AWoDmCdAtwius4B2DDrT7pYsb3kX5lEJ9vXapllT9ldP/2hTYEhRrt6sD4AqhKoCXA26GeY73S/gHsb91oHavcR1wDFqtVNmGQz99rHZgC0yakzKX8FYMiOPWyQlRhkJeBzziIWFsko7sCtq2G2N9giwHYKhalLMpmncI2IKACix9EBRAiGbiz5k8fMaxW2w49tbLfDz/6g7XPKPyEf8qU7CVbUIUVYOZN6lRUErJFM6GQcL3YWCfoG8LKL7dNljLqVAXdU0ZRPlCWwtQT2SMBlVj5HTIEA8WnDBJ5xM1GAIejn7GSLfQR8IU7Bc1f9zuJtm61ONLU/BQbJ+wsVBMwTbMHLC68rAGo9MQ+qDj7K9vrAxywL4GYiVTBFvLK0esIgwy2xXE4/7DHO70I/967UhF3B+tpXWl0FUbeuutKW3n6TzURfmutHfwwt7Ecd0TKQtT6AMI8+IQZrnX7QoTZnwT5WN3OWY7WKIRkgNKQDWCbGBLiKzAVZ9SweqFaI8oaZVBtofd6eve2P9thVV9i+zRU2ESNeBaoR/UzIkYJOJDQAQ03TQxCMZ8mmPnse54v5x59sh59zIeqLuEVgy33dvVZV30gAdlhwDFUJzDyCLLQ5YOVyfW75LtluB3LLgCvJlbeyBF6GBF6rgDua/lZVyoWyTCwNEH8A1pqBiWmWv6PLelY9a88vfcLamSQLdbcCtu02A7faGiaFApiJEZwAt1aiZqFnLeIsEMNZogeyuTmUtFknn2l1bz3dik0TbAA31gTDdAe4suvlvwGE/TDqCr6nOgD2uiSqCdKg563KDlhuwzp74rKfWvszT1om1WvhmoRVTJpsiSmzbMrcA2zcnAMt1AC7xKJAm1aBCBC1zEUP0/AdJg2mWhTwBUHdhBpuaY5hl5hAK/Z12brFj9rNP/ymHZAs2WTYbSWMWm66AwBusopg46hJIvQ/WUIwrsbBYVk/8jnwUDvt45dYtG4qjLsau2D02Kg4NrZstAmTJqLywPyMG4fcfT2Yld7a8Vt1VHoQlI8Cu3KP9KcMuCNJpXysLIERJLArgOuASHkO0iE3EnX3UIPl8LaoyUFhl9LJhdW1ZR1DrypLAw7pKvdP5lIy2A8wJAd9OK6zg5+BFCDRzUTRgPWv2mCrnlxkq556yto2rAZY+wnIXcTgP2ezaiusWpYCeJTpXkFF8lJwGAC3QEzYPOx2E/jXwaoMB7/vwxY/4M0WgoX2A3gssWhhLUuu26rQEXS46DsTKg6/uwFZI6B3TGoGLbRIBLHsksV2303XWRI33kmzZ9r4ufOJTzCBQFtN3LsRsy/KH2LCDbWGMtaSO86Ti/i8AYb/oC/WFwAmzJ0IWrj/qjNhxd1NLda++HG76Rc/thmYDExBVx0nTQUYGKjFI45JQFkTyHbXsWFcd59qY32zabNtvzM/ZE37HUGUsgbchWWKhq6b+8oiLY0FQ5zld6SvlWGFUzTzqdINAS4VLgOuhPPa3RjZsLk/u72QO+pNdwVAdiXvXbl214QEC3KNZeRcxvJZOAYmDIQAadkWraar4a10gTKn0mSLAEUFVGQveVNpSiYLgLJ4LKALy0PdmGNonmaXWZTcSDXPHxGQqfGzxHdhoAd8AtQ0JYYJVE/rKnvhsftsw9Kl1r2u1YjWahOIP1sLw0ugi0xw7wQgLqYmBMuJAZNGYQmjxBRg8S50vpQDi4Gl/UY82Dl27Dkft/D0vQkWXu9iHoTII6B4Deod2AOwW2cWRpYCfjQBDos9YBITpULsKcAxjElYCGYdQI+qHfqI+gGQ5zhQSh2xfuAbUOnpn3MKA4kWFmuJIlHHsshEwFtJp1LoJLLYE/fZPZi3NTBhNpVORCtUxPFik0jFViHLCAoAp0xYBFsLVhAbWcnhTe/9Fxv/xhMsWzGee6G3pVdTq/TeVb03rjJcq6P+ztfBX6T0fgw7MuzAlq9b8tlyZOe+lMMz7py8XpJ6LBv5jh5uGXC3fhxj+SycqZMYoMCHhu8Al+/8cqArAAph+iTABb1c+83jGeAcAFBShkGwMGxQ5lMYeLk9CJIpQGChd8CCKSatBlhWprfTsm3rWX32OVv6zOPWtmaF1WDmFSPfCthqNXuS+2vhQ4U21Dy9gnO7dwUcEWZqyJ6R6y3D9CpMuAp8dgO4KwoJ6ybouIbd4YmzKAt3pzzqNEjsVU7oCstTVSVPlXa0LYc+VF5sIcDVA7KhlHl6JjyE+atv6J9RCZSk6igQHEYLXwqQqVM/a6IlCTsZTWHru2qxXf/9b1ptz2abR4cRp45ZJuViikLO9xBUVcup9zMpOEDntpkC9iUr7LD34KI8Yx+LT5nPZF+SCUJM3VQPNg9nt+6ox7LduJtu508ZcLcjnJdzaiwbeRlwt30CWzecbc+O5bOQ6Zb4rLDU8aNBcBPACXzl/ZUDtDREDvE9zsRMFOZagr4VNIxliI4hLcNn2B4TYSUF5mZonunqYLWBAWt5YZm9+Pgj1rlimcX7ezC5KlkTMQsqFZUL41Z5UClsoeIKaCmZPLpILS0TdCAPsAh02UWy0eJinoXHF5gjg6d2JrM60Fu2RGosgRPAcR/6NwtVNVovIF9VW0WdAEI6AbeODldo2O36Ft2a67e/kUjb4IcjiqCcGLJW72VKjC9izwJ1CQ9rBNQJacb1UZw5oqgTSqluy77whP35x9+2YPsGmwgzb0LQUWQXA2AjuB4792XkquhgnbDXPlYN3sCoYe6Rb7HZRx5PTIhZBD0nhCMWCcQnG6yLd0v+DgLvYFG9F8X7sZN/d9Qmd5RdGXB3JKEdnPeenf+27SDxa+j0jl6cXWEBr6Fq7qai4AwAAMjoKURjd8FNhLTaADWFaGXVcYc1GnbLrz8sv1cmgEroVAXIGdAvSgQvrT5b6Nxs2dZ11rVxnfW2t9r6Vcutj2MBVo6tBVsaIYwVsLhKAEqMLgDYCklz7EWVQ/didzDJkFtbPMowms+89LUMs9UxBAXQgFU3wNcdqQSgkrbPCe+yBUe/zUKN2L66l1cMXdYPUkRovO5K7/TMyi+I+mO0TZ1QUHk4UfhtwAM3x5ophFOzaIYMJkwx3DpoOWQXRC0QVzjEzg70tuvtqSt/apuee8qawEo53ybIFPcOqxzUActkrYTbcB8dSWswYS0sIznxwCNsn2NPtljzOPTGrNRLfiGig3kBxMX9qRZy0JPxPvVd1fbL6v3emb87ajc7yqsMuDuS0A7OlwF3BwL6Bzitia4srBQjK3StqAHktaSZL21SL4BTfQCWAszIK0yxDcJM0hieUm6VBGIbdKW7zDDi74HJdjy7yAYA2UCqDxMnwBmLAhfrlu8VgEocW9sgKxVEBaZisNDFku7DLUti04CwVBWaFBPYaVgvcFSJpLvUdzTGlDloLbDVFgLLdgJf6comO/uTX7Do+GkAMasacN5pA8RnHcsdBFt4qe4l+N0e4IJjQi/+jLBJhQAAqnco0SMFAP884InNA6oGXIBRM8QybRbYsMGWX/17W3PvXTaRQOgJqU9Y+qbExFqItc0iLDTpVoFQuEZkswH1yIZYkwVmv9EOOPEMa5y/v7M3zucGcGjA4VnPIYSFBEHWtZUBd4RnsycfGkvAHe1d9uU1vNf2j73czx311NtjAWNZrh2Vf3v33hV5bO++HuDCHAEm8UjpYwVsTmHKh5ibfGcV80DrdwW1Gm0f9qmbWIl27Xpra1tjLZtWW//qVSxXs9lYfMYmAB5RwDlPWgVuKbL8TQlA0nMJYM4VhKXKDjZI5gopoxgEOpeXHhTQEvMVwqoYJBtkv5wBfHOwwTR5dKM7zjXA/pqmWWLcFEuOn24L3/nPDgTTYuj8j6Hj1R2890GskAkvpp2Up8ilmOgON4CXbmDrZACu0wvLx5fVKUqUPw2CZzhOV2FVgW4LdW60NTdcZ8/feKNN5mg9dYqjrk1r4g+vM6lDIowUNFEWwOqiheWB1mKiEN3rMJt/0getZhZrpzGBGKXOIVh0jFUv4PgUHDVJGXC3fh7/KL/KgPvSJzlWwKc7vSqAK1aGRQKczbE+TXRJteBhEYDkJoRkVpUmqEub9a1bhU72edvw4jLrXLfOOSZUYHXQyIRXHSiWxLQp7obZgBRg26c4CRxXNK8Mx8XopP9VwG7ZjoK2qAgAY74rmHeCyS7FuC2SNgUbBmIITIO/A+yuj8m7AisvVNZXWbS+yRrmvtFqp+1j1eOnWKgWqGdCqUQshkAEUEV/GuG+MmmTCmJQGQL0DQPcbYF02OMe6rQFth6AbzktdquJOGIUyNtL1gjMj5Eb7D/Qb4mBDbbhvv+zx6/8tTX39ds0kFYrQ8gON4vdcB7LhBidUhibugKsXvJ5EZvb8PTZNudtZ1ti72PwlMOhAZCOoLuOIaYKTOiIYMPtBLggN5v3Lr5OVQpj2Vi2l7eT/Jj+4WUbo220evkv0vZvu71yqZFsbxv92tHK5OfmNUTveqUdAuCR7jmUbuj6Ld8Gv7w0jZ9i+OfQfYYf3T3fFa9VulNvGwxjmGEYCxCUWLCx0N1hueXP2zr0kK0rl7FC7QbLoTIIAxa1oFm1mwDSRBGgzW+BnOxItR5YCjbrbB0AcVkUiD2LSYPxjlWL3aVwkc3L2gG6FwKAuYQZ/oL1MlGUAzytusqCtXUWJZRh3dQpNnHWTKueMNWC1RMYYmNeRVcRiONBBqAlWHJGGluxa5lcUQMP0BV0nHQKz6jygH+UYqRn5svBP+c9H2Guv5Wkw8bxoMjkVh63XaDXbeF0D6qSXtv00F9t8c3XWHTTOmLsFqwK/XSM3R9ZKX2UsJI5VCcdTBJ2IbNi8wSbh862/rC3WzZOxAjiJMiTTh2flkSPCORRQ1gYKwhUKdqG3gm/rOq0vYKOdM5dtJ0/Q9dsJ9F2Tv1ddbh+RUcuz9a90MhpRj+6/bxHv27PPbN9eXnv1LAWsBsruiPA1WSK/zz8tN6LunWZ/TL6afwi+i+1z6CG5+Wf89P+vT5FNBX1SsvH4LwKtjDsx/EA937Loo9te/Qha0M32718qYVy/W5oHCD0VBGArWUYXAW9k+7SLdQA2yOGjNAMO1bUE4BnEFtZ1ogkVgBA61QWAAOsNocDwQCeVtITi0VChh3QarnHUGWtJWCuseapFgVcq2fMtqppMyzc0OxAWF5V1VhLOKcMGLMsKdzqBg5EeUbAqtQJuo92gbKLbyvgRVcth4GgqO8r2XhQhRxecmSSxxrBMVs6nYr+but69H5bfNPVllvzPGqEnDVWcF/iHEQpX1wsl05Eapo833u4/Xoqna6ptblHvtWmHHMS9ZtKtLRaL8IXZaZPcwtRhvVyyBpCeu/h6L9N+Ye/b977tPV7uU3y3fqzDLi7VZx/z8y2/5J4L1UZcHfXE1E7zmABgJcB4JdDX9tLwGugd+NqW8mEzwu33WqNWVZCAI418ZPFa2oAxiXj/kqGtzFWHpDZmFMAAJ6yINCgl6QAN19gtShg+aJIrawHxg1TAFQa+lbCJrUPlqflvCKVlVY3cbLVT51lFeOmWmLCdAsRpDtYWc9ex1wRKzFwv/wgw+NS55ghPfQQdOrb4C5W6e7q3VtlGHKAAIh34RXS4pADxGnIQdXjLN0TZSSQe/45e+z3v7H86qVWne2z6iQgi1FxCqcPjRaSMG7Z91JVwDpk7XQELaWoTTvsGNv7qOOd/bBCN6IToQYqM8IcZOaeWRv13UGZh9fpdQ24SG8Xth1IeRdyfu1eOtSERi7jqyMTMdPhrFRlG+nF9juF4Q1gKK2u8eo3cl7Da+x1Pn5+w8/stu9CANm5iuESVwBXAgsMtNmzxIddd89d1kgsgyZAo1bIrDEu+lQWLbACgBLG9rSYFkAAJOh7wRWLydSL6pUE4gRdkbOBHBFKqAwISogpl7fLWysJk22YMMkaJk+2qvGTLArghsZNtmANLrTErtXyMIFoJSAbxVEAIy8xZlhehIk4CPTgJkbrgaz3yWHkq8DhstvFotc9M8d0ndj5I5rp4NjPY+vPbZ/b8LNkK49lmDyAi261Cu+5FKqWRy6/zCIrVlhDLmU11DEI2KaJ0dAviwR0ttLj5qiA+p8+2Pl61iRr3O8wO/AdZ2HKNglLhQpiMMBqZa0hWbt3RHpigqZL98x1DCC2U2rObZHJ4OXIZfBVG16FMfn+GmK4Y1K/cqavggTGGnBVpaEGMtRYxhJw86gEwiBlEQBhUI/+NWUbn37Q7vnd5RbbuMHmAHBVAylL4hnliBf0FZwlJgHAM3hAQ94grFXLwzjsg9kWAdySdJzoOrtgc61MZPXKPGpys9XPmmK1TZOtqWGWxevHsWpBLeEMk9icJgFYgJZsiuhzg34QGK7X4o5COpmFKXaumK7ivHKGnQvcLgnqG0c5pLMCXMGr09n6QKZOwIGuS/6SP8OBa9uTyiKHmiQc6OMUy/S0LrfHbvi9dT76GEsAYV+LTroKKlqE/aaId5BDXlpVGOUJYR5Rv2AatqYfFcS0+XbM2R+jg5mLjOhYKgjnyOSk0wo7SwiBLoCrAOKDgEupXV22LZP/e3i5vfdo6B3y04zV52sKcIcLYmcr7AluZ6/as9NvT15jK48dv6Ajs9Ktr/PK/9Jhq1/2ERmuz06EWcIPYEPp9F339O+7u59sjlkqWQbks71MvncCvmm773c/t2V33m7zCXxdh3tuHQw4qoKIVmoyh2F8CuSR3rTE8FjxEuSSC/kFjWCXAG6K7/1M8sQnTLGKWXPMxo8jiledxSY0WrK53iJxVAWhZkbQnt2sxssysRKI58hInmdaz0u7mJ3Ys2TiBAIAF2C98nQT2Ap03Tn3VzpdTZIJZgEoFVmfQkosHVwh6TGUZrRN9r+jba6OGhGwuGWhe7Ut+b+rbcMT99o4OpwkcWuT9FuK0atNrDRYGcbSomhdqGU6KMJmLWPeMMXeftZHLDZjP8vFCSCOqVgOWcZgxlFMy4KaJNPkHL8cw6WuyqsMuJIq244ag9cAvbQ7+9drfDt71Z6dfnvyGkt5+EC4Pen5z9ovo1eePRdwwQ43a19kdYUSqoRib4td+dVLLN65yWaxZlg95lk1CESRwRxtpMJilvKRkIpBdgjyUHOqBMC3D4VsF/rSdEW1zXzT0YDt3hYeNx17U1gs0boCCUybtI4ZoD2A7jdMpKuoIm2Jgw6Ctmx0BXlOtvqinaF2EbTLw5TzlCmqGXt3wme4glzBL9NlDlC9y/ScnD7ZAS5AJsSUnlSBz0fZ3NzUKOd0eYGQicX2F+yFu66zlQ/eYvW5blbWxRoBa4soOFkJgPrmC4EKPOLQe28mbm0XTHeAxR+PPfN8q9prIUy9holDltyhjP10VFrHjeSeVYJYrtfVcJTyqh4ckShG2/x3UudHei9Hu253HP8HYri8hbu0be8R7VLGY3bx8Bdn25s4aXhv07andvm3/5JuL6MhwPXk6oO0/+mupQI666f18/PT+J/+effpPyaBjnb98764fPy0fl5Dn7v2fmSgoyVALM5EWQnQza1aYt//zMftgAm1FunptPHoH5MMhcViBYMB0EiglodyBZwaQo4RnGcWKwv73cx6Xu1MEBWam+3wM862KMFXgpXjsWSoJNBLJSoLTLMwKy0Btrl6EWKtVIvRP+CiSTZIHvX1wFAY6YgojFNLhMvVmNNs3E/qBbFgvuu3d1TsVoCrT3fInZIZWtApXzGtEmKKZb5SwKVDKaZQuzx4qz19828s0r4chw88wQDbxmpqQfZRTXaluKlkRDDzLibWemPY6c6ZabPfcYFFsR8ORKuYdGMFCufoi20yVg8aQEg9E6KM2qk9cpK8xfElFx0ZfRvebvx32fsc/ZrddWbMANev1PAGsN1KOSH5LwTVc1/VnLzNBenQYV6goaPeOQlXL7g2NT4Ns7Tp3n4j1XU6rl1pgnpwTFAoX7e0yHYfkctuxD9+PXXSr58PFDqmYZdbFpqEWXrvKD7vA+j6XBxQXvgIv6MEZ/avVUQkRV9SHhkmYRTD0y93hAYqk6scfvZK09NDgDrSJVk2RGkKgEKEYZrqVECXF2YSJszvPOn1PYuZTgyjd12vsHpB9oF+lm9h6egUAVQS6Ab1O0MAlkpmw+UnXyR/5SV3S6V38uNekreXT9h6CcJSW6uZYxr84L1U9zSmPv39/XymqPOANTQ2urrGYjFXfr8eKpvELzmlaaRJ6SjJq4d8q6uqraury5VfZVL9la9kIQan3xUVCcqihsdzpVwqszaV339vdE51q6hkpdlB+XnXMxRHRhlccZ0MqVtiUObKQ89GLrtyqXWr5yKLQncXS4e32I8vvsjm18csxooLzVjeV8FGY5RHZk0CkSBgFWTlgQAz9SUmhqRiEFoUGPenKE8nSInDr+Wxn51/+LE27uDjUEVi51BgtdrqSVA40JNLSky8OQgF8KUDlpzdC+PeZb3jvPvoa4W6UjVkOI83L9800AacKJMy8t9L90kadQguL85qU/Gc2sHJTyiuHLSPvA1v234K5e2WLSeG7qYXn7OHr77cCgRJnxbD/pfA4opDo9Ua4rxLitMbgbVLXlnskdOJoK0gcM/hH/moRRacxKTgON6bfgLs1FiWd0hmbvEE77o4LLIVU9fmrzasT9XUY7yjl9sleckf78rBV+clZ3fXgTEGXL0MQ0XdbmV42n5SB6jU3/9UDmrs7ohe6BEyygE2AiHt274IDiS4Zqjx6X1VAxLrAEwUx3PL3XW3l7+NVL/h5RPg6rcAR/cP0TAee+wxu+KKX1tbe7u9+c1vtn9617tQ3Y1zN3Xl511JpYg6RXoBstw5VYcowJAGhPtxG3344Yft2uuudaDb3d3twGfKlCn2hje8wY499ljbd9993THlJ0BTGbTrtz7dYJTC9/b0OMAV+Nxzzz12zTXX4PLfakcccYSdetqpNnvWLFdmFU7XFeTJRHnUYWk9KXUe8QTLptB55Zn80L0yAOItt9xiTzzxhD3++OMuvz7KfOgbD7UPf/gCO2jhQVs6EuUrufjPQtdvwiX2q1/9qj3zzDO2YMEC+/KXv2z19fVOBhpSq+OKsVDgiuUr7Iorr7TFTz9tx73lLfbud7/bGpSOcupdUqcg0FVTUhAVxVNdvmK5/eAHP0BuROqinJVVldbX22cqX1VVlSvbu/7pXdYM81QmUToodWyhOOwKFhuV2pBVY4s9XXbHz39gm55+wGZWlawxyEw8bCvOvSkA96NO7DncWhWPQB5TWiJGsXKDAK48XgnIyPQbq9hSp00sTZOJ19jUfQ+1BYcdb9FJc8kjZn3ItKaZiSKFdlQ9eE4lzKa8jafIpJnYHT0CeWNzy8y+Yi1oEccUnUgNiyu6STpdq7IN+1T9aKHu2Cv9s21b0z3cfYgd0bXTPUUuAAA+L0lEQVT6eXvsut9b16JHWdgyxdLteNjRzhUvQhQ8hwI7Qpl5m1jqh53le14gDu7C955rjSd8xDo531CnNchwf8aJJETd1LGUpKtl8csCHYK4u7oZx3bR57p7c94D3Z2vlS+jnb/y5V2xZwHu4MMcLhT3wPXi0Li06ZxjKoNgqoasBq1daf1dwKNj7hop6F7hi7d9wPXK4hgcd1BZFi1aBIB8xe68804aRMpOOvkk+8pXLrX58+cDZArDx5LWlEslAh/Udl19PMANwxgHHFBfeulX7A9/uNoBheqke4jdipEdeOCB9pnPfMYOPfRQB7BisB67hqUqb2S0Yf16Bypa36mfdak6O7vsYx/7mD344IOOlQqw/+tr/2VHHH6Ey0NAK1dSMUvJSvmpPspbTFXsOkHEpuv/9Cf7xS9+YatWr7IXX3wR9lkBA2YZFhqK0r4LUPwKZReA+mXxn5meifJauXKlnXTSSXQ6KZs0aZLdfPPNHoPmvmKpetZi/gLzb33rW/a3v/3Nzj77bPvsZz9r4wY7LsGImKk2seAiZRXTvuOOv9r5559PZxGxzZs3uzJIdtXV1Y5RS2bf/AZLuxxwgCuL5BlikipDiES59iJBt+ZWCZl1YMB/9Te/aAeOS1pTtseqYKAalouACVjzAEI/Y3YgiPvwPJE7hwFfPMnosPyANMaqBZv70tbG8t4p5NTGBF2eqFf7Upa9jzzKwpOnALgsuCi3XIbXxBEjxwQwIwUD+emeYHBJLB9wUlyHQNR7170JJaUaG8BVvq4N6gubnqV2w8a2SFzbtQ/eaYtvv95CBFKfDF4qaHo14Cp9scqMVKgARIJjOTqVNURTiy/Y3w48+2Ir4LqbqKvm2eH6zHsRxZJD6dXJaIrQxRDinRAr1/RfmGesW0v37B4Cf3d2c2Xf2Yt2Iv2eA7h6Y9m2PNDBSnoRmryGJZtCn83qJVCD1j78hdBlfhpfuCGnAPPyGMz2ZX9sH3B5PWhcGdwpNSxW473mmj/YpZd+1f3W/Q848AD7whe/aEce+Wbu6bFh3VxsViO6HF42TpXAiyT8SJPXxo0b7cwzz7AXXlhmTU1NdvDBB7s6Pvvss44V6vqzzjrLLrnkEgdYAmK9sPrUJqCM4g7azdBY4K6hvDqAz178WWtpYVYZBjt9+nT7whe+YKeddppjta6DcjJlBME1KYZ6erkFol3kk+Tzxhtvsu985zu2jHLx/lPfCIx7X1eGpUuX2mOPP2Yf+MA5dulXL3UAqjz9Tc9E5dNI4GkY64knnuhOnXLKKfbLX/7SfQ/TMH3Q74dZ/xE2/kVkt5mAMP/xH/9pF110kVNHKLGei3aVUfVTZya1yGWX/crOP+98JzeBue6pZ+NAFca7YO8FdIBfsf32IzAKqhUBdRQViOKwCh94o4A5Mh3A1KmjxW78xhetvpsYrpoQYvQRUQ8pVAXwWGTXBrAr5QgvHaDLF+0CSNWcVO5cjkJmNByG+YUquRcBZTqJVatlxbshA41zZ9rMAw6xafsttHDjNOsP1aIygPVGscPVyJ8heZJ7Kj/eGDJlSRy3agRMP1LHMQGVZOFKsuVTF/hXuQQ7+Uf5qW0Nb1865o4D/KUMK++2LMdC4U+28fF7rIa4t43cM45LcpSOyAVsVwl4T1K861liTfTQaa3EHW/SW86whWechU0uz62GlSmQeg5TshCjBj0PPdg8qK1OUPUWOkTob0oyU1B7duqQnawQyX0Z7fyVL++KPQpw/YfpV81/2GIQejDbCss/LzbmN2g1MJ9Z6ZgDH80Gu8fm5/zyP9Wo/W3wfd5SDuXf2triAEcs6+mnF9mFF15ozz23xOrq6py6QHpaAeO5H/ygMztSHhreS4Wi8kvfKOBS8XRO6ZcuXWYnnnCCm4lWfp/85Ccdw73rrrvsf//3f+3++++3qVOn2n//938D5Ee6cyqL5CM2J/ClG3IykT51w4YNdsYZ70YF8KRNnTYVJphGbdFPWT9C2T7nQEkgK/Dx1AboPCmHhvV9sFc1gGcWP2MCR4H4TNQQb33LW+39Z73fDoQpSufawkJ+d975N2ukgxCrVzlUHtVRn6qzNpVTLPvMM88kylabfe9737OPf/zjLo3Oa4IoS/l1/U033eTO6Zmqc1Ano02PxD2XwWdTyHvPua+v1/7f//uS/fhHP7KjjjraPv/5zzsmq/cnDcCpA1AHLtVClvq5ToZ6C+ih6G4iyisl5QRwE6WMtd7/F1vxlxssuWG51QMwFZRftlkBnA7EwAYinvpGk1wKTB4EaKQrhZRRFz0TgAJ2FwRs4eHWw2Rahnclij4zzARbmu8drNaroNuBhgZrfsMhNuWgo6xu2huskMA2l2XOVWbFYAhgJhUO4yrBCgolQkIqUHkiMZ4babFGvT+68dCnBEWu7tgr+ePn50jPsHzccYCzRPzfUrbdupc8Yk/dfBU+uitsJkFq4j0pb31JMQiYfgDZpviaQ9YC32c29Vj/uBl26oX/ZtGZc9Bh1xNPuMbFwtHS7XKHlk6iGNbaGQiWe7uOEMW1VDnu4bsXYOdr5ddp5698eVfsMYCrhqltuEB8QNVxAa7XYNTXeZteaC0658xnuF7KfF2v6/wJM6Uc60kz6TkFYr/85S/s61//utXU1Nheey2wbnSDTzz5pH0SZnYRoFlNQ3edAWUSKPoMUDOzAmw1lxQM8E6G0O997z/brFkzYcuX2sknn+w6jjVr1jh2dt111zmQ/8Y3vmEnAMyuvoCJwEx5qr7+hJHO/fQnP3Hgo4mvM844w+6773579LFH7Yx3nwFof8+pHnSt25GfN5nGoA7QExuW+uBTlP+WW261aQD2JZ/7HEz2A07uuo+7J9e1o7OWamLc+PHuOaiz0znV2Qfczs5O12n8CFBUZyBQlV5a91bD0mcWli9ZSKXy2c9ebPPnzXMqlBPf9jbXOXDKNX/3yvDa6FJ1FmEa9jFHH43Mn3B1+9rXv+aYvvJUOfRZhU43T1oBkfTnmkxTblqdQDyKhXOd/jWbTbOwIe9WptNWEYRl9Z03W2XXJquhc68CQOXlpYA3ijIWBmTdmopioTAvlV1aLH1q12oOWr5bunqtQxYV+PKM5EqcY1Zf6ocsoK/g25sAlX50vXUz97Fp+7/J6ibNJBohk5E11agdAFZUHzkm6ELkw10pMcfQI2vz247/SQL+8+cVbpKXa4MA5/B8tuTP+VJmM6qFdfbUjb+1TU/cb9Noj7WoTzBGcJUPwOb1ZAuw2xQqET3zdb0Z24iFRAPLrL/pI5+g+HWWijVTG/BZMSe4IIhcS5EsMgbYHX0guhhLwCv2Lj+9F4CPnd22lH1nL3yZ6fcowN1WGP7D1lubJf6nXgA1XO1qzPqtCRQNXaQb1TBdIKHG5et8h163oW8vU3YumWvUgxdwK7cNL6fcD3uZlHkSYP2v//qqPfDAg3bkUUfaBUwe3XX3XfarX/3K3vnOd9qnPv1pAHSWK5/qRevgpVED1a5hsQdOGnJf9qvLHEAfcshC+9nPfmZz5+KFA0AvXrzYAbrUA0cddZTTaS5cuNDVd7CITjbSX0pemvR65pln0WmeZ8uWvWCHHHKwG6LfSHxSMctjjjnGvvSlL9n++x/gVCMCRk2OiYlJWmK5sqq4lAmu737nuw6gzj3nXPvWt79l3V3drmPphVUKoCV/dXwCMal+JCPt/vNQ+VVX3eOf//mfUU/c6PTa//M//+PkomcqH3s9O01kaWLth0x+Xf7rX6P2OBXm+mU6sflObMpX5fPUTV7NxYxFK5ubmp2OWjrfL33piw7k+lGPyBpC6hHpnFUW3zpE95WcAloqFkUAbxWMC0bGPUI09mSpz7Kw2zUw3d4lLBu+4gWWM88QZ4G6comuSui9gGW7xSUBXWGNwFiLUcq4dyCtgTGslrrFsEwQoARQgyAoVBSMAGCv7l3gfJrJsU50ve0cTxH9KzhukiWmzrCamfOsee7eVj95BhYO9TA/9OHcM8GzlhpDm/9e+p8q3HCg9FK9/L+jAa7LgU7GEZkSdhjsbU/da4/jaVbNaKq5DxdoOj83s0fwda2/Fmep9d4+3HvVqaHH3ow81mDBcNxHL7LavQ+37vgEZ9mgID/EBEKWVCqSIW6EOl8paAS4dC4S7usTcPWquffEfeoP7+jo2zArBVI6oFQOYnZqOHp4nmeLNwTVS6PffZgdtbd1uEbU0dHpJkI6OjrcZJIAQZM5akDSnzbR2CZOnMA+0U2uVNHIxHrUgLW5hqqXkIYvvZ8avwM/d3b4n6GK6LzqxYcrq8quTQ1VYCKwVTk+DaDefvttNpkJkIsu+nc3/P4fhv/f+e533SSXhsSyWBAr98FVmQqsXOfBTaJMWKUY+n4d5vrNb34DS4LD3aSRQOiFF16wPzFhdfvtt7syS9Uglik9pcrhNzIBtkAly9Ivkst5553vWOQhhxxiF1zwYXvb295uf/zjNUyg/St6zP2cukKqAk8VI4YpoPQmIgUSGzdsdNYMG9ZvsAFMy2679TZbePBCB65+p+fYI4inDk/SGZKeJ2uVzQdcNeJ3vOMdTo8rAFQnJPWInoUsCWS9kYDJSS8unbUY8fnnnWcf+9d/tfEwZ/fOkJ8Db2Sn56L76bisO+bNm+tUHFLpHHTQQXQEGNzTOcyYMcPOfM+Zdughh7oSqkPWO6ey53h+CjpusFxN4LD2uFtSR6supPo3WzNeUgX0uO2LHrG1j9xrPcuXWxSTtji6VS3+WEUJmGtn6My7wj/pa4XfWgUhCMNT4fSMOEV+EAcmzWKAjuYW5EEGAbYM65JhoEZC0gNmab62AVRtvNetzPSvJfxYcvp8O+rtZ9he+x/OSuc1yBRwIvaDU/RSK7fxU++YEwwHXjHguny8J7mtSkH3UZeXoWMIhHCDDjPR2bXOHr/uSut/9GFr6u6zcXRINkAnS/m0mGSsghUpiHcbEINl8qwHPHie6+twCjns/f9q6Wo6EuJGBBgaRKSKQC4C3DyAqykzfgDEOIb4gKtCbLUNf+u2OrHVD4oypttuZbh6ud3b8wqK7AJR6DGRiRqgfqtxSw0ghqrhlhq9Xtg8TEfDU7Gchx952O679z5bs2YtOr921ygFxE7v5srhNRoJsshwNsJkUVNzk71hn33sTW96kxuuzpw5yw1ldF4NW3UQYEp3qskUbrllUz4+ePkHlVYNU8cFMmo8AgfZjerzkUceQb/4ftKEHQhecMEF1oA+7g9MoH0OPaJUDFI1nIJqQKY86hwEPD7gO6bOb91DM/cfB1x+f9VVzPTXOksEAbpMqGTOJWZ22GGH2cUXXwxjPcRdo+uUh18+TZjJ2uE5AOttDMNVp4997KN27rnnusmkm2662f6Ve9TV19mnP/UpQPk8V1U/H9np6plIPbBm9Ro75R2n2PIXl9uJbzvRbvzzjaTFrpKhtYbPemb67tdJAKchu8rjQIbUQ8/cM58Ts165cqXrGCQ/v9xOJoBQjDqqLALQSZMnO3WCVCGauHPBWHiHJDs9NrVNXiOHL2tWr7Z99t7b1SXBSgFS81RgWaF3Sc9Ddf73f/93Z/ImNq53TaonvdYCPpch3lkcdHau0ufylnIeG95sJ4HFByy1bqWtBlRannrKshs3WZyOrYYJpDrUD4p9S7Zko2i0ei/F/KUu8jrrIkAqI6cg9ygwNFYgbrpFVAaUBVO0Gpl/ccztTMpp5dpVdH7tFXFbTzyB+LS97IRTz7Xxk/dFh9zgwCzADF0JG2FNNkrOkrneUYGk6qNjo23uuSiR++99+un9z9GuVSjILIBfDGH8FhqweKrNUiuetkevuAx993qrQS71dDhit4nKiHV2swoE1hoKTSmBZ2CwL7BEUc/4yXbwGR+2hgPfipqkjndHIwGloQ7oqguMMgS4wDAjA7okxOOa8GDB9G6rAt7naKX9+x1/zQBunmDFaliy78wx3NWLoYYqwNPLogYrYJOpkWaxxW4eeOABW7t2LYwnCQh7NrVqiL6Rvl4UNTzlKZDWp1iTGI0migQoMqGSDlRDbw3NxYjFbqVL8gBYOkbvpRx6aEMPUMxMnYPKrrzFQMXA9NJo4qm9vQPb0w/bo48+6u517rnnOKuCJA39jjvvsO8ydF9HHTQz/kGAzYEaDSJE/b1JKmZpmZxSu+jrG4C1ZCnvKQDsYsCx0QGsWJ426WBlXnb66afb29/+dlceyVGgJ7tTMVvJQ3JM9aedvvbJJ59CR9vkQOvww49wQPjwww853bCcFgRCnwJ0VXfVUw1N8ujGDjURT7jORCoAmVidgeWETMJ0Pz0zAaT7DjCr8xRAqyN0jZ3yqhzKT2X0G/BTAJXsaXVvMV11MJo8U6eikUh1dY1NmDDBTdbJBnfevHl2CZ2LrCnESr28yJvnLaFpBCPZ6V2QbltsWHLSaELgrw5D5WhsbHSTfNJ5+zp/r64AouqNHa3AMoB3VAAj2sF27IKSF2j8BawCcgNdFsmnWIcrbQPY+65+6mnrWrmaEfVGFo9sAxCyFmd8XwkI4s7izJicbnfw/dI7490Em2bANwu4pJS3QhhSiUAvIzWqpdUgegAqscBNsO38pIk24YA32iSiaiUqJ1tF7XQm9ZApZlSLlz5pc/aZ494TpyPGUkPPRQ9U9XNOE9x2pE3n1TF4/71P/zn5nyNdp2NIy9NTh6RTJm5wsdeKnRts5a1/Jvj4vZbo6rRa3occoFqNn24Wy4UYz0qAG0CHnaZdbaSMfXW843MPtoPe9S8WIg5uIKpg6pRFz0P6Wzoyui52nsmgrlp8V6LUpvdW6b1PfX91t9cM4ArcPLDztOlig3qoGgLLOL0LUHn88ScY7v7R7r77btcAxeaivEAJdFlhPE8EUhq2ClT0UnnsWOL3GreYlS95gbnyVoMWSznuuOOc7lAALGbqA68P4C99YN5DFNC6F5iHKv2mvvugpu8a5v/Lv/yLzZgxw2bOnMnweIpr3AKgtevW2lPY5a7HJlaWBh/5yAVWWVHp7HPlESYAEaALRMSG2ts7TeqSw2HmAgvpfg9m+C5mK9Yybdo0x9ilMpG3lo6p4xDoCbBUVu2xWBwmepObONKQffy48Tad8k2ePIlOTnawK5xjhWxeP0TZxZbjgL42lUNb/0AfsmY4y73fgtPBRqwQ9t9/f7vq91c5dY3KLRlrxl8vvFQAAuygnisAozr5gCt5adPzvv7665289Pvqq692HYjKrGel83V1DS5fTaZJbaIJtS+hZz4Zu11/4lR6Za+DFdhSXq7X9vnPX2I/+P73XV01KTd/3nxGSa2Oceco68SJk1BLjHMsWfdUuVTbPM8xh+Iwz7E4DDtKNPASJghallzZ608v4QaTlbKNhXUNsKoBoFuizF0rV9n6ZYusffUSG2hdD/ACNKx9VoeRfg3yiLkMyMMrokMKbuHyzCOnFADdi1I3LBkRPSsIywWW0OFSruoqC82aaZMPP9wa5r3BQvWs7oDyIlhMWL4nb/9361/tKtYM+/Rn/9OZu+ldVmeiZ6NNbcfpWd2vl/6R7F4p4LpWzPVFJvGyRPeK0yEFCfzTt/gRW3TTtVgsrLJaJh7DvBeVYvqk5c3wvM+qNCoi6DjLxLdgItaZbLIDT/2ANR5ypFvenZeHfOn4GSm4kQfyEMst0P4kRsYgw/TWqlcZcCWFbTY1SmaEeYEFEtIzadirh75kyRK7Df3n7bfdbq00EHkBaainF0iNt6+nD/amdYy8BiKgE6BxqbveB0EfCNWY1OAFSGJSff1M7NBIGxubGFafY8cff4J3D47pWoH/aJvu4SagADUNUT39IrolWFMXTFrs9p577nYgJIahl13XyNFAHYk6CaV933vfa//GcHYyQ2TvntIfa6ip/PGsonFIH/zXv/zF3vOe99hEdLPf+MbXYbsnuTqqfKqXP3TXb33XpnpKVgJryVZgdO4559ndd92Nu20D4FxBWT2WLK8rXSc3Xz2PM898D+z3004eyktlEnDqJVa5VVYBrTy45s2d53TLxxxzrGPXKrdkrl1lU1qxXJm8Sf4+qEkmSqMyysNME3ayL5Y+Wp+6Tu+BwCJDnlId/eTHP7Yf/vCHbnJQtrgHoz5RPspXeWmTZ1mGDsS7NuBk9RgjjaOPOdp+85vfOE8z1VUA7Zi3q5trnu6emizTC6ng3SnGqnkHkEH0stRHSlihijZ9pXyySCoxFJZ5lthsgCVsEDZss8v6WlbbphXLrH3Vi5Zet8KKuAZXAzjjMP0KU0bZ76qcVJGCkw9lV345B7pgLQxQnmt5vCLh0GYsDjlj4WE27oCDLDJxigWqaljPjPriYvbM4iX22EOP2jW/v4ZRVsYu/9WvHeDGVNfB903WJZrA5I6uCiP9UXleKeDm6FBEZNQ+RXzCspwopFginlV677rFVt93h1X1dbgFNcPop5N6BnpeYrrEVZCiIEAnv7EzY13EU6ghiM2C099jkRlzscaowlqEkZvYsFQQqgNlzfG49BxijA6GJgpVszLgjvB84QboBtVDiTkJvNQg5Qb7k5/8xHkViXlqWCxbUAGqmJtruHzPaxZ48OVxDYxGp0+BjTYfHAQ4usYDvoADBnl8dXR2kHfS2XieduppDig1zBTT9YHLPViXm/eH7N2hLAbZ+k5xSesZ74th/uhHP3ZuqQKAN+LWOmXKVKcr1G95PfWig3wc99eVK1e6CZwvfP7z7lONTrajrrfmRZSaQu6zmqW/FNXDt779bZsEi/35L37m7GxVGtVVAKdPAZc2H6gkRx0Tm1e5pGe94IILncpD7HT27DnokaudjHQvTdRpaL8YvbAcMv7zPz8Lk1zgZOzpNtUJ0RjJV89Jzg7f+e53XJwG6XE/8+nPuI5DZZaX2bp16xzIT58+3aq5j1OX+CDqZJF2z1JlPu+88+zPf/6zY65iu3re2lR+PXPJTi69UnPcceedTu1wySUyDZvv6itrCLFVjQCUNoVJnuyEZVd7CKOB1ehxde2nPvVJ6uOBjuqkOBNxmL8vP8lOnbAesfSRWqRRDFeWB+rG3OSMR+OUwD0rtX2tsSWA0bo5WiZc7hKBAh0Pewi71GznZutcvtRann3SelYstWB3uyVgvMmS5/YaZ2LN2ZlyL+krtawPyjDrwjyswPs/kKyxMKZg84i9ULcX1iMVtZYmTmyGjmw1DjGPPv6w3XTLjfbQg/exzE/M9p21n132k8vcqM3vjASCsu/WiEwyGm2TLF4x4FJfuig6PYG6RhrAL6OAUGAAdcvT9tA1V1h2xRKbiUBDHb0sAInpHYtfZtWOOSb3ZDkx5OFg3ZiIDWD6Nu3Ek635LSfQuTSykkSFxfKMapksVDvhcmLoajJS6hpGhOIEbIhRfwc/9f3V3V4zKgUJRUAqIBSQagh566232u9//3vXSCQmuV/mSCPwrKqkl6MRKX1FstIyKV5oGqVeEqGgGoukLPapQ3qxdE7DdKXwGLCGtiFijqK0B3D1bKQ31fBXZkPnnHOOa/BSXWhzWbur/e86yG2GsVCl60N3u2rVShc3QOxcQ33Pe2lfANkDfJVn6bKl9vOf/9yuv+EGp1f8+te+Zu849VSAC9AADFRPDeUFtCpnT0+vfQi31FuQy8wZM+zXV1zuYg0oL3UKSi8Q1Ka66rdkoobm2CV1e+655+ziz15MR/aks2dV7ATFK3AdGfeRfFpouJf/+nL7zZW/sSmoQOQyK0sF5eHJWMCn4DRpN+Gke0tWGoVMnjSZEcLxjplOnz7dleHBhx50nahUJgcehAUDz8bv8FROfVce0sfLskL6bumgL7/8cqd7VJ1UF69lBV0dZMq2iuH6+973Pmcip5GB8pLNcgpHC71DTgZ6n8j7WTqP008/Dd39ejdRuGCvBa6zVZ0kH7kES/etDkHy1FBb99V5J0/AydFPGnTA0Sd1iMhaYCvTLXYBt5aVyTEfEWZSSw4NBZgdhXdsW4sqlnh/S8R8LRJhrH31i9bKwpNrnnmS320WIV5AJVHBqgGbSm6noDMYOmCCFrFWALdixnSbfPBhVoPra8WEWQQihxBA6/IsLfHIgw/b33As+dsDf7OWjlbcuYLW1tFubzvmRPv5j37mnptk4uQO4OqfnqX/vrhKbvNH8nulgIsSBnkB6pS9hM5bcsyiZonjmFHoEcu9yV6842abDjDHOojnQT3jmIjlkK0GD+q4LEWdAdseerJuQlZm6FTnvue9Vjl9AS7Q9XRUBEGSYbQ2PrIJ9MUAOwunIzvvuNccXveA64GCJ6mhv2KTclSQq+WtGNH/9ne/xeSr3TUcBwicU0NQA9HLooeoF0ZaLb3oYcxjNNwVq5V6QQ1HumEJ3evdBULeDLmu1+YcI2AVYmNSL6hVC0j0sqnxn3XW2Y79Ka2ODf/Ud5VB91I5VH4NTcWWNNv9l//7PzdZdSYqgK98+SseqKnBUR6lVfCaHzE0vvKKK5ze8HOfu8TOAbjE5PUGqQNSI1He8tZasXy580h7Gr2vTK+uvfaPjjE7GQgBtZG3JhqdDMhDbEtlVP1VLwH/H/5wjW1qabMTjj/RLr/8MifLeELAjuqBfDRr/weAWJ5qkvdHLvwIjPgCjwFyG3crXmw5IKRROyjvhx56yL71zW85/bo6KKkONPOv0YryU4yCS796qQuqI5WCyix5evLziq6YCRdd9EnH+BXv4PvoW5W3nqk6Tum1ZYVw99332Fnvf787d/6HPmQf/eiFVstqCHre2gQqYrpO0NxDcrzi11fY52DCrryoiDQaqCEKVU93j1OzyGLl24wcpk+f7uThP2vlJxkEsBrQc5NpVxF9rjyc9E/PSf+CDPcjAEuQ95ALeAycg2Yx8kXXy3fyCFKmrDpSzocVCSzPumdd7bZ5JcupA77tyxZbeu0KS/R3od/NO681sdtstNrqF+xtzbiBV+y1t5Wwvc0rnkKgytpWbLJ7b7zL7rjxVmthArAPXWmKcJCB2rit2rDGznrv++ybX/u6q3clJEUdl95iv37+p+q57aZzIwMuNfaaApdIKMOv5Ic6Icy1sPHiRUcALJPjxALQB8N0Nuk2K7ECxD2//IE1bka1ApGIIyOtqJHHTEweelINVCDzoMI3EjtBdsfLa6tt/KnvsAXHnmrp2ATOJwFcrwiICcBl3gC5J1n9ISx9jE5xucrofer7q7vtEsP1hL6VtLdbGw8YeBjUXkCgK9WQ1CDizPDLOkDul9dee53zItJwVLpa+cELeLSJn/pMTsNj5SVPLpkKSaiSr8BGjUTX+NeJJfpALBarN8aBLowlh64tQVQlgaDy0/GWllYmaGrdEFdupppockNMrlPefuNWJVROgaQausBGwP1+AEGBatSQNekkFqn7C2D0qU3A/Oc/32A//dlPbVPrJtxTP89E2D85AFAalcNnf1IHLFu2zJVHHdKZZ5yJk8KXXFqVWbvXeNT81b4ZXiE3XS9HB8lBapPP4QWmzmz27LnOhle2ttLtNjbVCycoGwDNLvfa//3+/9qKFSucy6ziD8iUSkzbNUIxPfcsBkclsMgH7r/fWQIsWvQ0ZnqrcfPtdqCre4ixygStEcsKdYLaVCaVUfWULK7/0/X2PTzbpPv+2Ec/6ibFFB1NWxy1gJ6v7nkXuudPfOITzp5ak41y8lAeqr/kq2ej35KZnoeigl1Gx/K73/7OPachkBGDxbqEeh2AHlpmcc0wXXUS/qa8JFuBiMMW2nGRGfIi9feUPl6Z6H/QQQKiegGVHHMtZnQcKS7AWrWWWYDhta6RM06QmTFydqAbQqWQ7WqzTsA2CzvtBSifeeRB62YisnHyVHvDm0/AqwwHFjow2QLn40yssuTPo48+bdf+7lpb8tRzlmbFCU08SeeRAsjD2LWuWb/OPv3/yTvz4Lqr645fWbI2y5ItyQvesI0T7LCUNExTQjMNzmSdNkOAPxpPpmFI087QPwoOTgMuMyUtUHeaEpZAZgp0CFsyTUKgYKeNaYAASWr2GvAClsE24F2SN0mWrH4+575rPRuLTvnDdMq1n957v/f73eXce77n3HPPPffrl6XFCH9nbdLE/guBhCCzotLL/lTQOr5dO1HAxUzQ/Ej9aObyT1NDC/7bbFIgD7oBYeKT+9m/0AMmImxqWDRkG/EwO77ASEAW90EWv9Q2YyFQAcT9w4eIw0Fwm22PrkzPIfzn4Is8xKJ4DXbfpjbMiYwFzzZrlkb7sfnT9z24w63FP7kVb6Izv7iI+MHwE0KnppbdmfwbZMyOoe30DOoXY8H+OiLZMfbLEReP+5d3Dbi5LyBkVbuiMTao6tpIi9QA1bRkWEYn99ldBRRcmHITw8MrHw6mXb9ufTCO0+tgChhnP1N1GU6glWld/DGuay33aPPxPjVWAcZKqIGp7cksarZecyA5uCzP8vv68BHEpAAbhbnC/B14PqsrleaAJUsuAzjPDhAzb5mwgL7TVXdTqYFr4jAJJCtXrgwg003LyFNqedqPvc8B7+dDDLCdO3eEacGNAwahcWqs21UuI4OuWp6uX7ZFDw3tb/NP/lBaMD/7lEahR/+hD7JrVhYgxUvB6bpgeAr+qAbO2c1mEemicJFGgpF96qLexo0bIwbCrFknAtDzogRt1NJNO6AMrGDwpUnAMrSR6salEFKjVhCVjSZ+tv+HsG2apKXCyTJdwNHWu3nTplgcXPChBWn27NnRB4KCO8F0F1QLF0B1DTQ/66UnhHWhGVEHaac2rA+v+Uq/9etfSbtw0XMGkiOeZeHivX4fh3eI7nG69klnhY+JyUseq+QdH3w7RhoB8bf/mPVhd0QJsWaUX/71Si1gjG2AeDN76DRmQLy/8NRv0o6tb6bp8+aneWd+HKBlsRP7QlPjOGJpvJLuvPPu9KsnOZqdTT8NRBYTSRSyKijSq6Gxnr54PV177TIE5iLGAlnDH3WAUh+uWI55y7cv7T950u/RRgUFfaJgGFAgsu1WIdg+gRCiqKq73trP9uxxxJ/oTXVNREmvx+WLp/WQOJQmUhU8WshMjtNbow4ATcMYY/FWqOGMoRrkmXEWBvGjf+6uu9NuXBxncI7bof2EGWWxsZmTjg0w3kK5B9kMIVobenIL4Rr7OLF3zsLPpKmf/HyqnTAZTwaC+GC1NURlo4uZgDKSj2dya6JJR/yhxe8h6B5XwJWhayGGtLBD1RQdJL6ryej2dRMrz11dXSoHEIZdOjBVrHbTgwanlslaAK0epoJK4kYYawCQdcg4jZS51GzUnGUek5H2ZW7LygtcAhoMSnLxZxANQw2kDR9Pk+EKBVIZ3Fio8+cviO2v5yxcaKW4I2vZLsyYnOYKOAV81KoEa+si+NpWtT2BwWsFrPWprYMegq/CRtBwJdn8BFWLUrgoRLZv285Gh4nQj4GpFgrNmho452qUpHCTzgKKg1+Q0n4sCFkHvSmkk6aKVt2LKFuaSdOiGXq/tLDfFBSCpeUywnnPGzzMX6ANJqcd0sAUAMi7fVgEkTQKwKU95R77VvODAMnd0WbbGyAO7WxE0d5Dk4mZSjaRhIcKXhXSuNDZWYoN1ndZOlm25doHClnb4j3WTzqYrLvl+bvCzlTKlHYlCU6jJfMfNaHtMo/iJbxm0HUhLp6APkPMsBoAwgEC4gwDUPX41h7aC/jgeje2DWd/AtSMwYapcFyx4t+IknYfXiEb0Sjr4Ae9c7I2rzCUDmqpzhg2IbzuvfeH6RO//3Hapyku17EfrbMBMBuiL22vfR6zO+AyAtPTpzFDCnuqkkdb8lDq2vAGLoQz49iecUz98T1jB9yWNL4NYFZY1Oh/3oGHxRTssOSB4gJ24k2g1qy/LOOa0JEH4bdGbNs1BPvpf/H5tPzm69IHxo1JLQf3pd7tPWlqZyN8yphrxp3xAO5hfJan9jJD2LQHJWruB9PvLrow1Z98KmedtdJ+TXD1qV6hgiZc49a83NRjdMn7CHAdxDKoHewglyiCj5rqZnxRb7/9nyNMoK4/Rt1vYGons8g4TikFi35W0QW6MjCMs+qkyGmIgKtJQpuq23YFHV2bBK5wGWOQm5/mAVevZXYXSWpYct5LHE6ZMDMcixa4bKmJbsW0YPhBfV61wzr9VItwELqiHxoU5RYQlYlto+0rtmCvyZC+ZOzC6NLBfLwubcyj+nl+CG3cvIJOlem3o6ieFWjEhh9HTeYpDSxHGsiQGRwZ+oIcNLWu0kZNM88ctJe6fVZhletrPkEbFzLEHN60hVpv6envIRSjbx3Qlfv5Xp1yWQpAfDOhvW31ZZZ6FuhHK2DoS63Q0bPATS0KphAC9Jt9pyCUHoKqz1mhUo9SnmVZT2nnbMX7FSBlHJT+yO+Vp7jfyviM9NJdzDyim9QA/H2UZD6jJvOjH+zPkFa8V9Z0ou3SYyyAO8gpCUP9nryh+URNl6k3IHMQm+TO3T3phutvxAT1IDRoRgCORwHRxu9iad4hqSLi+BIsdfNzVmSs4Nknzok2NeAFYHKW4IGY0ttktfKsyvqpBGVF6BAA7U63vr59EXLz1tvvTEuvvCpNmDgJ/2HG5J4t6aVVK9P8GeNRjOCL8Zg8UiuZdVBnZjwseNV7bhltP0iDaxWq5BmaL/mO2b+T1/a0/v57UtcvHkon4LMLXOP0ZoWoCW/OSN1xpxwfpK29GHjfqm9Kcz7xqfTBz/xBqpk6C1qOJ09O3gjjrx3ng7bsWOl9A7i5Y2MwA5HFjupAVfv70b/8ON15113BiJJJQHX6F3FMYeoe7JZTcND3u9NVAVlAM6xeA9ratl07ApDdRSRTatcVpMfj2eB3y822q3qABXsx7iduo1Wh6UPSdnQYNzSvvDulNF+nxgLL6cR0deFo4TkLg/m1hwnIas10b5ggHOiF6SxL4PDd5Lu/WW+BQG8Lr2XNAu0HBlGjtm0Ci+CWNdmsLQoWOUB2thWrwVh/QXe0JGCUlOuRwTdPpzPAy2TW2/wdodbZJANmTTCDsgCq14j3+oxCR6Y2+Yxt8x5T0SgLPWyvL+sg/W1rmCW433sykGc7vfl4X3ZXyt4LVkZ/2KAXGtmB/dlMYV4BiNRbtz6fdUy4scKx5dgQhBXO1k2QFmxLG62rdknro2ab81IY2B8ZbNWg7eCYLfCZx0dNlj9a0mIQ7gZxC398rwBKAK+X4jeuA7S1gNkwU2s1X9vTu+cA8S5WEEXtpjC3NAA4mhEgFbTJQsT6WwfHj8Jyx45tCKRGFm5/HrOZoI+aM884fpxplllQ9APf7Sejo9mHKhL1aMH9eFS88NxTmCauSRu3vJV+8uDyNPmEaSwOUs6BXemB276TGna+ltq5dyYbR9qmz8NtbT7Hmp8Qx7pTw+yzXIt731jMbjSxG7tsy3jMBOzKax7Ygf12Y3r4uqtSz/Nr0qdOnpT2bCXeB764+h7XswvN/ti3F7oAuHW0eyNbhve3Ewd60R+ndnyRh/FY2M8GieZhDt8k//hT6On3I9L7DHCDERqc9mQpqnb71FOriCWwDHvhtmBAGUzty8Hj1Dqm1YCCW0mNvyogTpk8Bfelt9hSui1NnzkjffSsj2KT/EicJKAm3IXLkEe8+K42pVaqhiPzCZhqR+5QizOTWj0RoT/MB24CsGwDcWvLNR7BokWLIqiJ+ZicXsuJTq/9p5+ng7UkB2wwOXX3Xp9zSuTANuU6sKBAO0Kjpk4+HwsVjhb+Z+HgQoT+tdnmK/jrK+rzOq7rlTFa8hmZOACmMvh6e/bEdxcpA9RhZhlR0LHN0sUZgrMDGVhAsp0ZqJx+54xoOXXNGrt1sU993jz9bp6CuO3NAJoXsTLwZhqo2cY0NtrugpegQ10oRc1WsPSi48N8za/XRbh2gm5zXfdAgcN8pJv3Wb1iOpI+h/uE63lWkutvnbzZMk0FeCzHOtveMWpJJipkPwfYVi7lH478a51GSwJuRPzihrjNP1WAqybnNl6Tmq7+uwfdhYU2WI9Q3751e7r5u7ekW//pdsY3nh/1jfQRtktMCrmPHHtonGjKChuVjPXr16WT5s5N99/PaQu0y/aUWYBjzirYV9LB8eA16eVYdXYRpi14YsPaNenKy5dgnngt9TLT+BlrCJ3TpqFPErf3tbXp5RU/SnuffjyNxfTkUuMYgoXvZZo/1DY+Tcd3+8RTPszGjDmUhfbdD9834E1CzASD79TS1nRwR2qq6U67H3sg3ff3306fnjM5HdoFECMA+tCMa4gLbDUPab8GcPEiY8tvSm+wMDb7s59LJ3/+3DS2c07q7RuLK11bmCJj4kfWx07vI8C1g+3cvKUQLY1pravzriDffdc9aeIE7FUwlkwUq8sV4PK70yWnSK4gG+xl3dq1Eel/0ZfYobX4kjRtxvR4zmmS5gK1Y4Fk9eoX2VXEAsOvfh3T8/YOpjsVbUcw9ABE98kLMDLiLnwXNW+4eHXpJZdGfACZyX/mJ0N6aGMBAkHTAep12xdAUdXTXssDm8FYGdCWkwe/Wq62tRzgxamz+aiRC5SlvCgTW6721rzCz8IhU+1Ap6qyjv5oOcWEoFbvZ4HR9pTPPqPfsHULzZ/yBSBBVPp43XxkROsqY6o12m7z8ZoCLj/vYmamRbUmaRkFgH1GLdv7q5O/q0W7eGVZfrdP1D7dZWeS5sanMG/7QGB2A0kjgljhqOnJ/AsI+4wmpdhVxTNOv22b9BSE1PIiwcA0I0DI+ofZwZ/iOn/o+2DidyC45Y6WRtNw1W4FW/Nmlh/l04wATmwQCA+AkrK3oVhcffU16SG0y+nTZ3JFYajgymBk2b6kqW1yUfiZZ56OKG6GsJR+uuI5drzHPnRs2a78PjILky7mZR+8/PzqdO1V30pda1dztFFPap7UkS79qyvS5y44Dxssrnc921LfqkdT1w/uSM3a+vcScHx8U+pFudiDMWIfbmHdaKNNnZPTvFPPSvNOOSvVTz6J6Wtr2kcdWqdPArb3sDOsJ46dfxpbbs26V9IUNPwm+l/PrgHkvAJPM0ODR+uwvbmbNm6nHbuY8Z52/h+lWR85BwBvw/WYBTvKc+MEt4+S3jeAm6eQhxeaIKhM9cSTT6Rv0alu42WeGmAjQzjaZSo1YUFaIHVhxelo14YumKwhdkAZOGWI1f4xAh8S3sFSGCtPO/Mi1R13fJ+DG78fQCND2SMCt5otYyy0W00bak5nf+zsCNqi14B1FKQEAwdjBhKBJ68GyyVqFkV7kGG9T5uoUzvb4m+5LjA5vwlSXvfd7/6W652n50W79d3y/K1okX72Oe2SeaHp2OOqaG3eb1ttcjd2wGzOQDsG9Fy1b+/QHUwbbN58IKNZJxe3LF/TQjAsA1xtyt/MKyKGxX154claWFYGyqwpSosAAZ/hN79bd99NAqN08OVn7/X5AMxKO33OtluXiMtAXUs+/iaQOD5sg8+ZvF7Ksb5cQAjvj3ER90gScNSyvK/U0Wf9bjIP6yWzR5tD482/xQ1H/fH+URN5GHeBXKMu3ifQBuDy+SDam3ZTj1B3ZPrZ0yHQvQlZyFHjeLBcesni8LTo7JhMvVlQamllDHiWHMDMGJEm1kFQVQitRTP9u2XXpgsv/ApCLC8eG5/ARVrbKz19d5zUM+NUmPlytqYwNpj9Pyz7x/TSf72ID4BbtDmP79W16S+WfjP9+eIleJ9hUsCr4MAvf56eu+HbLHohFAmI1AfY9eIBMUhQGYxVnNRAvF94pZcNCn3Eq23tnJ2mGjz9zN9hp9wHOBqe+lC9wR2b08GNr6ZV19+U5rABotnTIli0E3DtW4HUwD2xuYSx241kenxnbzrlvHPTmX/45VTTOov2d7BoRn+y6eT/HeAyGo6RaOiR48qxHslxLDPLvGpyJlfyDe5ikGmnys1M8asHroM/GIdMi2+kzKdbkwcxnn/++bHo5RHfzQ6qSllRh/iSLxSguPpvr073/fT+ANn2ifl0V6X97t070+7uXbF77YILLojIWdYzbLV4RVTXKSpe9Sc0lKrvR3+sfrYATfW18tnfCgAU8Cm/eb3YdvNiVtb2apH4hb5xr82FzhmQ5O3c/vymFjRSO/vjnVL1vUffl9s8egYyrCAQYMfD0YcVQMhMnu3G1q98994AtkrBGewyQJf7NK/YPvNXo9VEBDcGaHiPgq+4/DnWQlgBKsOAkDb9ZrTnKhIc3ax3/u6DlYcLKJd3HyxCQyCzrxTSztLsO93/wm4dJSAMyEiRYx8IrmqsmgLq2QzRjTteOy56tsvYu9JnzZp1BDa6GBdCBOTETtqf7dF1+OQWOjkbsL2ayA6hHW/etImZ4+2VI5Y0XWUbr3TyZQpyUoei7ToT8OIuXBiv+8716We/eAzviPrUwjFBe3p3pg1bN6dPn/eFdM0N16cOfG4nDrHGserx9MjfXJkWcBZbAzOwAywu7kVw1BNTogXwxRmMgzQxOwGEB1j8OoAtYR9byXbiWdGN3bdz/px09ifOTrOndqZ9L69J21Y9m2q2b00ddVCIvAaQQAohTx4m8FgA7wAAvB9PhNdRvt5k8fDci/8yNc35bVzHJnEzHimuDR7uKz5DcWn9fyG9a7ewY1eeVtow3ip9evjd+wWCAB1+d4DptnLTd29KD/7rg7FTaBwnk+bkKAgyBaEc2Brxjfal5jh37twAaTVUp70OsGxzK1St1COortalXc6cx8TuJUMIOjWdge13K7ZaO1bA/jq7nNSYLVmQlmEs28E6WnonwPVZNWMZIZifSnjNl4M+g6zavLbHPE0v5ahxCiyCr89ahzwVzJpZbAaB4dTQ1bbVomU+GV7t1Kl4Sbntxw9wA/wAGsHGz7ZBMLXdOdkZfh6pk8LNvrU/Q+BY6VxxboVm/mP8+Ix5advfyzRWLV8hpH1bQA4Q5i7NVWps0ljwUxOOIvntXSWrzGukDUd+tp/tgzLT8T77IoQIXaG2FxlUxqSf8z/7ExMH31woPgTNNNe4O20A4B4in/WvdqWvsvHE+9pwE9PFa5iBp7anhmpy1uH4UJlxTLhV/QfETD7jjNNj7NgPBXTjgaiHbdANUFhkc4mmANzsbrv1tnTXPffik4h5h3KaQLomQPSVLRtT65RJacUjT+CLUAfodqf+Z55Mjyz76zQHjXYcmrXbctVy9T1p4rMn3sTJFuTjP7dAD+Eve4A+eROA3oyyNMj9E/Ab7sC01slvEzApNOKXXANfyh0+J+CiZMdMoQbhsod2b0eTXoenxhlf+FI6eeEXU23nSWzGONJVksdI0sv39z4dV8C1uUp/pb3g8DyHKi69Ymn43XayGGKwjSCOf6HQETRiwGR3l+50xdKlAYwOaKdDQU065+1JDuEqz+p1IDBpb7z8m5enl15+OWLreoaVp0DceOP1cc6YmxhcMNAuGHVF03UhZrT0ToBbnpHpy1S9MKR1N6mlZLusDJO1kAzETv+yOYHqB/Y4vfU322GbNSu4Jdc2lt9kLF/VKX/1+sjV/2kAVt878lT+lNt8LHqP3Gk9TUVY2d+CknWXnrr+KRikh/VXY62ut/cL2CYXvAKEqPQggJIBufp+6aJZxB1RChyEFGPMfAPwoKur79rG33WKoTTS5mrgLXla/yL0bLdlRztwO/TYcqGDWh/xN4tyaKXWhhLQpHAQPe0g+xk6/uapp4nV+xVmc22sZbCzChUuQJccRxYHBRXMCkzDXZew8ffd95PYuFPGRHm3HiWpWEg31wR6WZBWGbmXEJvAWxzVsxtT33hObpzY2pjWvdaV3mCRei3eCm3wagdxy/pf/M/065uXpQnYcydgBlB/H2axT5uJi5kqM8MAqOLfVwkq04N/7TBuah6Pvo9+9tZWQLcBYTIEiDaz+ywoRj7SKNgbGpF9bK8+AOD20sev66c75cT02a8t5sDJ3yK+hK5pqrg55XEubcqV9/b9uAOuWpvTH9Njjz2alnzjGwEc7SyY1bpTBMrkf0Hbw9RRY1FLMf6q7mOnnX5auH05sLXh1dFBb0uBDHa+K+k5ZKJM55lfl122JJjTgNPLll0T5eq2ZejHAEMeE6Rd8X2n3srg87aSD1/QBKKGKvOZqhk1g2RlJFBHAUYgUvt3qqnd0Wv6F6sB236fVyCoCeqvqtZTwNvFqJFyDlehArTHD3Cto/0i2Ai8MvqR9cp1cZFL23zWXLOpQCEnRWQ2FyNNBcjU4Ma3jIvfpIXarflaho7++mQrzFX3nAFoy9Q1SgC2LxWi7zblfs59Vd2H5XPRcO1rkyBm+9Wu9T2N02UrXR1AQivAxtDKGfVBgwHGSiPAl7Vb/Mf5ZyCep599Pl140UVp2gnTaZ/BjyobTHhe+klrSBNavTba7UzJOzs72CL/4zjdRGoG2AblMgXoIpI1ke4DmAz2pIeWL48j6V10boBWg0zP+wHANuRUI1P819gqvAm/9BX/8cv04VNOTS0Epxl45dm0+off4/2F1AngNpJxPZUZog8GnWUx+6RmtJW1DcpjN3CUOoiJoY4AO25S8NQHF8ia2Oggnfs84418PHyzvrKymOurxouZify93I9AGmDn3XOEcPy9L/9pmvKxT6Y0cRrjgH4mULypPJff49J7+ue4Aq6NRhcJZrDVRgPzLC8HQxuLALUQWKDx5Z2RVLV4qd0KPBs2bIhjaS766kWhFTmlEr9VCg4/UwZWcAnPMvDNw3L04xSgjKW6YMH8OCBx5qwZwZROUwU4Yw5MIjauWpfahs+NlqKI0X7kuvkJCuYhMDiQfPe6YKkg0JYt2BvTYPNmtrfy0iNDphV0BWEBV5Dt6OwkzONMwjMSLJt9/7rMefKD5hXztm2SL7RA1QZSrv7xA1xB02m+bRZ0fBUa2l9quV7biZ+z7bbO3SxYrl2zJjxEpIfxIjQxaCZoYYdeO2eQORtpb29nO+9J4RbYAvi2EbTG88nsK+llOQKvNJfGeWW+2IczPYIo/8s/MRrV1mJs5oeP/mw77NtiuxWEo+3URRWOIZyFix9I1kaNMLgCe60hMscCqNqczVuhoqD46f0PhGIyY/pMskF7r9hu7VjbaFLYumjszsktWzYR3vLUdOttt0UsC0sp9Lc4m+CLqsIb2lUPpOUPLU+33PI9xl13rItojqljd5tlNYzBuwXV1DH51tad6U/+7BLqs9jGpMHNq1PXyns5RPPf01TCL7bBas3yMe3dF/xDf0O3MUgX+dS1R7V8685REGzxpRIsGhoDooZtaYO8NEP0Y+/1ZN96NzPIZJEnihMeRaq7xjo29ONYAPdZALd+/hnprK9dnIbQdhs4Ur2GKGWm3F32W3x9z//8NwAAAP//dNXLuwAAQABJREFU7J0HgJXF9fZnO1voRRRUmmBXbLEmtqgxsaWpMRawdw32ir13xRYUFQt2TdRYUOy9JIKV3mFpS9u++z2/Z+7AArsbJerf+GXg7n3vW6acOec5Z86cmTertrquPnxnKSsEctNXlj6k9B1/6XJ9fairqw3V1dXhb3/7W7jo4otCdlZ2aFXcMuRn54a6+rpQW1en+zLPKoOs7KyQk5PrfMdNmBDW32D9MHjw4NC2XbuwaNGi0Lp1S2Vfm4rIfFOBTH30XVNTHerVVPLJzs7Wc4tDixYtXJfFixcrj1ahbH6Z72nTtm2orakJFRUVIb8gP+Tl5i2X99Kf9Zl2Lj2z7FFlZaXLo921tbWB32VlZaG0tDSMHzchjBz1Wfj8s8/C+Anjw/z5C0SXKtMwJycn5OTmqr45oSA/38f1oku56kQeHLdv1zZsvfU2YYstNg/dunUPXbt2CR06dAy5ei5LdKOdJB3yd5m+gL7NpfhM43fENjedAfXLV51pM4m68OH8nDlzw5Qp08IEtffrr0eHUaNGuf2z58wOeXnQmb7O1rHonqf2Z+dwSv1UrzZDv4qwaOHC0KpVq7DJppuEn2+3XVhvvfVDx44dQqdOq4SioqJQVVXl8ug7+JH+5XyW+Gxlk0r3v/R8ahu/OU5tnjNnjto2IcyePTssVD3p5wVli9SEPLVBfG3ertNTdeJrmlavuhWKl9uGvffZOxTqGBmoEa9AjznK554hQ8Jtt90eVlH7oEtWVo74uVZykxXlpbZOvJwvualRXWpF38lh1113CZdeeklo27a9ykjtVmmqq6qg71TvqvDWW2+H6667LowZPSZ06NgxVFdVhxaFhSFfn8oa8WP1/NCqMDdULq4ME8dPDeuss3l48uknQ1ZOfaiZ8UWY+OGz4f0nh4autRWhfXUIHeuyQ73qViO5zcqqVz0lnbpXp0NdRl5a1OpapSqB2OboOF8XdM/cHLVd90naQ1F1Vsiv0g8YTp8aXV+YW6fb60OuThVB09rsMDmnMHxRkxv2ueiSkN2tT8jLahOy6tX3SpEF1XeRFX3u//JP1g8NuAhDfn5eKC8vD3//+9/DwAsGhoKCgtCqqKWInN0AcEWhjKACuLliPhi2bMECM/KRRx0ZjjzySORJDNtC4LI8RTM9a2mtD1UCeHWrQShboFuj3wgxoFpUXCjB5lqOywCoAL5cAW0WoNVMb/07wKW95IdAIoSff/55eO2118LLL78cpkyeqvqrzQKSwhaFoVAMbuWiehS0KBDoS6gEPjyPssgW+ObqUyNlQL61UiKzZs0ykK+55hph2223Ddtvv0PYZJO+AqBOBmuYS2Tkb+ab42ab5OvxGR+u8OffAW4CI5SqQUb0mzlzptv+5ptvh1dffT2MGzvWtC8uKQn5AK0KhA8KBJIoYNrMJ4E13QjgLl68yECcqz4E0ObOnRs6d+4cfvGLX4Ttfr5d2HijjcOqq65qhQ49c3JzwmIp10IAl0xWMjUE3NQ+suKYD8D6xRdfuF9HjBgRxowZ436iTTn1BaGukj7EkNBHKAMQZQlowEJ4bd311w1D7rsndOjUMfa97qXvZ0yfFi698MLw0osvCjzbideLlU/WEqUCv9RU14h3VIYAt6qqIkyfMS0cdNCB4S9/+YsUUxvVknZDwNjv8L3+h6rKqvDRR5+EG2+4MXzw4Yeh8yqdTX+uwWvVBj/JTZ3opy6qLa8Ok8ZMDb16bBSeeeYfIb8kO5TPGR2mfPVqeOGeW8LqNRWhs0B01ersUJgpkn6Fl+qEoOVqa4UqgSQW1+SEklop0yoVJoUB2Fa0qA9ziuoEzPWhhdrYqkqAK7oZqeslk3n1YV6+ZELKqFC0KVY59bpnjrBjZGUIO517Tiheb5OQEwS4dQV0T0Z0f8qA62Zafny0vOBGSwDArQjDhw8PZ5xxupmoVUmrUF8jVpRQJSG1sImh0jfCAzjNkPC2bt3aYL3zTjuGyqrKUFhcZGbGiuF5mAtLmX6HeRC2CLohWgnKt46OVsqRYGMBY03V1NbYQkTL58rCQujJy4nMUuKcftdK2GolRFiiXAYMsTABSPKsUDtLVd9PPv5EQPNq+OD998P06dNtXRfJqpfUGWhaSDCVlYGZrLG+yYO2Y+0AXtQlXxYOqVb15He1gBeLsLxiscC3VBZuu7DTzjuF3Xbd1RYg1jnWJvfWqQDaSJ6U1WRSQ7jHaZn7Mj94PkOU1F7upY55UqZ8Y1W2kBKZWTozjHjllfDJJ/8M73/wfpg4bmIoKihWnxeZTvSNQQkBF3C4bsqLthvMyDhTH/oJZU3+te47KVK1f+HCRQLVRaFlq5Zhm623Cr/97T5qe1+BjZS4eKZKyo4yxAhhgRR2y5YtnTcjDsAdpQoQRgt4mQa7cEgR+UP4QBszfVApwIKH3nzzzfDcc/8waE0YP9H05p5Im5xQlI8xof6VVQsz1ckKJc9smWnQcdbsUimLbcNNg27WiErIJt6kbnk6Lp0xMxx31NHhM42EsD5j/2dJWTFyigYEtMjP1+hQ/F5ZWS75mBFOGTAgHHzIwaGl5KpKvJwnHqA+tJdnaetHH30UBg0aFN55592waudVTQdGD4zwoH2N/mV5YFkjHssKs2bOkcU9P+z3xwPDBQPPD8VFOaF28fQwfewHYfiwwSFv9tTQuqIqdBQJi0XPQrUtT3XEmKlR27Fus3MlT+rQvBqBqaAxyNKtr46KqFJNXyT2rsuqM7Xy9ECOLNha3VMtLV+brTxk4RaqvcXSVPXVop6uT23RKkwpWSVsdcxfQmGfjUJBTrFKUN5QO9OdtOfHkL5TCzfKqKjaZIqNpvEIyttvvxMGiDEYOhYXtZLFJoKK0WBIEkxBnlgDJJgRweJclayCYoHsTTfdGHr06hWyxeAIr4VU+VcL7NTfBhrAawmAOKelf6gt2WeKWHqhwRF5um3xT+YKgAC/aDipshj+qba22rgAgM6UsIz69NPwxGOPhzdefz1ULC5XnYttyRr4cG/kauitHAEYAJE8zRw6wOJWzfSBSZcm2sI/rkchhmFl3VSXh0WL58tdsiB0794t/OlP+4ftt9/eFmBBAQCuoZoAOLYnMuTSXJcemVZuK+eoULzmevmMTug6oMCH+wE03B2ch/a4TT6Tq+Tpp58OLw1/ySMarNmSfIFtbqH7BSVAO7C4UI4oLupHm6HDEnqoAkv6z/yQHd0taj8gg3IEVLHuZs2eqbavGQ788/5h51/uKGt3FbtkANUs0XuWRhkooBLVJSkx6kFKZaR2pt9811bLjSO+tCJWHfPyCwyCGA0PPjgsTBg/SXm2DK1atraiwXVFmfRzjpSq0Ua8wjnAG4AHfKpkLMycNSMcfexR4fAjDpMiKgxVGsajtKv1PWXylHDwnw+RpTszrLHG6uYvrmG4REMi1jv2qWgvhcBo4vLLrwi/+tVuVtyM4qhbLDe6WCZOnBiuvvpqWeTDzR8tW7YyINPZ+WobciiBDPlSWAsWV4jPs8N4uYL6rLueXRWbbLReKMgWgMtmrZk+Loz75zuhdOyoUDl7eqicWxrC/DlyCVSGFlii+aKBRms5NQLiPClN0VPYmeGryN/VAlfhp4AZmYenpFRFn8WS6XKdLxePFKlOrfVYO4FvPZaxUo2Ov8wqCiWb/TJs8IejQm2H1dXf4iqyXYmU+n4lHv1Gj/yggAuTISC2ACVR7777Xjj77LPluywTkTT8kzrFf0WjuZdkphejMuwEiBcsmG/rqIWG3CNHfhr23HOPcLJAu+ua3azFDQB6Llpz6jwxOAKFddRUAmz5NJUiM+tqw17U/aplqBRTVuuDYCHIFXKVYHWOHT3GFvzfnnrafjhVKLSW3xGLEyvdAC2wrZK2ju0VdOqehpZdbk4Cn1Q5GCnzMQirTWIs3Cl8bJNISKurK8LceXMkZMVhjz32CHv8Zg/5vTcQKKJ4sIplvRvYGm9xpDkc60b6JnLnP6lG9ceiR7hph90bEgaG7Vi2Y8eODc/947nw/PPPy0/7degovzL1RPHl4jiS4C0tAz8kbYcOOi86QmczvovUg/znnMqmf7meLRCDj1A6XGG4rtNWNlOmTpJ/u0349W9+Ffb94+/D+hque15AbW9RWBSmTp0qf28n8wX5UjY84jLdwmX/KFspjIWiODWI9H/vvffDsGEPyy32TCgqLNGIq61ogd+ZEQijp6hA7R5RXev1m3+Ug6/VxBTTLVy0UIqyMlx2+aVhx513UP3kShJ9uY9Ry9jRY0O/g/vL0CgPXbp0UfsWuu+wVnEn4Mel3rQBkOc8yg7LFd9+NFqiQoR23Ef7r7ji8jBcbq1WsvbpF67xPHLl+8SXdVJghXLxlM6dF6aVzgobb7pFOPzoY8L2O2wfWpcUhGzJY1ZNeaivKAt1i+aEusVzQ60Ad8aEMWH+jClh4azpYebkyaFeVneR+LNY7S0WyxaoDi1Ud3kINPTHhQtNkU8pNslAtq7nigZ1uqdS5+VFNrDmCRNkNoRc1S1Xz1To+ly5GibmtQub73t0aNt3p1DfpoOtcV1eqdQUD6xUZo089IMCLkSgMy08IjY+ryuuuCJ8KP9RSZF8efktllQRwI2gS2cAKvhxxbjqDBgyV9qPCQqE/dcClGOOPy6stloXW1cAHz4+rGDKAhSaTKqHoRhZaiIhKKrFMlfpGP5VicFrxHgArt0lEjis2UE33xy+VPsAt44dOoRcXcdqYEho4RZjaaRkRlqSc8MDtLhKBITMBPqGKXmWsiRtyi9Wyf5AQFd+sCxxsHK2f3fOnFl2R2y66abh+OOODxv33cSAjjUaGXyZJi35YWblT4YmtDMdc1CtNuNTR7ihLcA7b948+Y07eiL08cceCy++9JKvARLcBzjyqamUcpKQ0C9OfC8pC/cJ9c9cgua6ZuuU78y90QcZ+4QJJJ8Wv6CsWwggFgsc582drTpmh8033ywcd+zRYd311pVijJZ0crEszxtJ2Difjl0TdUJFxSLTFL5iCH7llVeFTz8dKWBvH9q176B+ZtjNZKX6RklV0bH6SudoUE01fE+3MUQGLDldZwOCEcEDDw4N3Xt296itXsAEkC4uXxw+lo/18EMPl0FS4ElBDA7yTPVDLpKyoi8qKsqVf1249957Q8+ePawAUPDUBUuXz1VXXWllseqqnW3N0j/IJWDLfUxM0s488dIiGUNTZTH36N0nDDj9zLDd9jtKscpQqBLP63quRla59VVyB8o7qxFW4FtKv17ulsXya8+cPCHMnzUtlE0dr8+EkKURWFFdtSa8akOJ6l6oD9KZDYjqGIsa13aoEHOLhvWSA0+aiR4e6XItLysslPtprmg5Swq846bbhz47/i7krb5hqClopTbpJu5biZTouhKPfqNHfkDAldiKcelQBJQE89x1191hyJAhoUT+TCw6AAXGBGxhJFL6jQ8XywoXxOzZs0I7RSkwEcVs/l6//W3Yd999Q5euXcwsyVLGomTyockkYfi2gEs7/JHIGBzEKIDtwgULPRE4RG2aPm2arfJOsu7wi+WJgZnwIlEnGB/rOK8wKhnySTxiJtNvgJXz0erlBjGdahtphGUXBQ/BlSrTZSwotUfAi1+7QP5OLE58xltttXUYcMopYd111jUNmZxqMplfY20agm06BhIBXZQfQo6wiiDhzjvuDA8//HCYOmWK+6BNmzb2tc+bN9eTgliyqqLAJFqT/CaRL202DehstYxL8arabJ6gUmq9juNIgNuipZtq6kctpVhrEspF88P8snmhb9+NwplnnhHW23CjMGXqtLD66qu7zgArn2gdxr7hd0qpn6lMlaw0Ju0+/PCjcNFFF4Vp06Yb2ErkI7VVq/qnfqH+JHrLFjvKVYAC71JnJskASpFBdVxgi/fpp5+Sj7a9J3CpD/xLBM5LLw6XP/aU0KF9R02atbUP2vkof+jmSAXdDwjTFxgh3HfvvfeEVTQJRp24E5phHV933fXhkUcesVXbtm0b8Ue5ACpPvwulGKvFx1XOBxkrk3tm+pRJobd45tQzzghbbrtdKJbLpEb0YMTAqBGrPxe+U33rZRHXyVpXYe4z+EO+GIGvfOwzJoU5U8eHxTOnhPJZU8PMcV+F6rLZIUtyUKQqthGIF8mgyhKNswXmJaJTDoMZfbIzoEuUgxw7YYEU6Vy1al5BYSju3jtstusfQmG3DUNWYceQlVccBXppN+rOb57o8+8z/aCAC9BiXTA5AhPAOM8882y45JJLxNC6llcgKyjHTGLAVSeabvpj61DPAtKdNJM7b16ZQ7YgUIXAhTAUwmqOO/Y4+xMNsqIdZViImugAAMCXmqEzjI3wxAQ4RAbmPMAJcNC2wYMHh/tkWQC8xRpetxXgVIuBizWzTP0NNmJSIjRs8SmUB9B1UvYuw8XwBzBBWESpVB6gpGMVq4TykUXi6wioOFNgg3xhANPuCg1JuZ8Qovnz54cN5Fa45pprrahKSgrJpOnkeuhyhi60NR3jUuA0kR4IFdEAV8niu+P22/0bRdhSPkMUTK36GqFnJp0+NXgKbOivhon8aBqWM0n4EIFVJzlPQ/2tg/SNOwHXQqSBBF+jHj6qhIBkgXmpbP48Kbz5YbPNNg2nnXlW6LVWb/MgZcCL0Ie+oz8SAPPN+fQBABcon0kTJohXLw3vy52w6mqrypouFMDNEz3bm8YYE1YmrmOst/NwY9QnAjGSAVdGAN07X/xMXzzy6COhfYf24t2owFBiWLj33nNvuOqKq+1OIEIB3gGsSZEsUWGgQAHdKVJ2G264QbhBkQeEylE+FizXrrrqqjB06H2epAZkAWhoCa9gBQO+hTIA8G/Pkgth5vRJYbXOncLZ55wTdtj5l6GF5h+QyErlV6C2U341E90aOZj24jswFlbExnE1NS8jkBHvC4jrxS/lZaFi0lhZv5MFuDND2fTxoVQuiLnTpmgCrjy0EJi21ARga9GqhfItUF758u8qXkhRE/LnCh/GCSsqCX9cvXvo/rPtQo8NtgzZxR1lWasPNT+gBolfluUvE+wb/IFe32f6QQEXJmLmn5ldQAAtOkqzr9dee234SJZDnnyadgeIqAg4TECCiRmGIdho8DbSzFh/RBTYf6j7yjUMYhZ3v/32C/sIeFu1am2BQ7MjQFgCTSVf+YZ0TkIIeNA3fI8dMzbce9994SUNo2eLUWHYTqoLEzmALInymR0GePGtwq0VYsTsAjGHUgTbWEeOeYxhqg7dfoQ5oU6sg56rj2FrWLbQyoCm42xZd0za4QPEV0tMMZNFZRr277bbrwQaF4dVOsuv6lL09W8SfZFu5XixhJ44TQiAK+H6a6+z1VQgd0kJQqnyAFyuo3xKpHxQTCXyFxIKtVjWIiCMUrQFmGnvUtrG4iJ9VTn6zqTRHykdW7iqknrVfevq6WZuY2IL0ELYUTjEpzJHgKL++Q47hCukGIhSoD7UAZ5KIynIkECXY+oDz6JUFss6vExxrY8++pisdoVa6VpxcXSDYRVSV56lVvRV7C9nEklnC1jX9Z/yADtcCYRwrb1273DLLTdr8kpxtlICdjnoPixcJr/uu3eorXK7ZERbyol1lhUoGiJL0U2SFSZOnBT23nuvcNpppzkmmzA6fLR33nmnlW379u1EnxZqPxO4ceIQwMW6JXKkUD7umYpyGDt2bOjefY1w6qkDwpY/+5n4ZZWQr3wWacTk5+Uqy8E9plEp+iQOE9U2Hao68rMKLAWy5F0vGlapPGFpyBaY1ldiCChkcOHcUDdneiifVxoqZO3OnTk1zJg8McyRC2LRgtmhlZRnGz2vYMmQq0iGhcp8kdxRdZ26htU22TJ0XrdvaL3GWqGwpK36A3lQAXxyNHrLuHZUnW+V6PPvM/2AgAtDRmajQWhdmBJ/0VNPPRVuHXSbmDouRoAZRTkxVQZwRXT7tNTZWEAICZNTnjCxGo1WboXywro64IADwh/+8AdHBNDh/y6pWhT3DRJWS/xg1XI8d/acMOiWQZqpfsDMRbga7gOURCXDJc06IxAIiSfMpCSSxZEjsK2RHwyhxsrybLu+sQY5B32wTBCmqIjyXIarW4dPWHSBNqIBtFoKurEpCCPlAixYRoskfMSLHnH44eHc8862VfINGu12uswMMxJNwEQhyuTyyy8Pg//6VwXldwrVCgnqIGuPeqhkW8C0OVfl4xOkDqp2yG1BrJGprnujewKaEP5GCBOolAA5R89DA/oxWvwoX9xNdBj3xfNxaB0nm5g0LJBgE1/NMLpS5WItzheAnXTyyeGoo44y4NEmygG8+KY/oRcfEr/pB64//eST4UrNN5Qrnw7y2c6XImEYTr9Uqt0p+iPlYd408MY6okRxE9BXMRQu3xNmY8aM1iKFXcO5554tK3Y1u8eqxMfUh7qffPJfFEkwQotaurpO0I3aMUokL0CYY+hDvVn0cPTRxygO9yD71HEpPfvsM+G88873YhHag8sBgEXpUH9cIrjEWEyCAh09enTo2atnOPGkE8Iuu+4id5AmyIRjTFwTCQLgcn+ulLrG8IEIgyoBbJbC3CCdDjUxpk91mQisDlf/YfXWoXTEk9AT3hSDyCqV37dWCqt6sSbd5ocKRiSLZ4eZcyaEqrJZckFMU9TDXE+0FbXtFFp1Wj206rF+aNGld2jRQfMDeSV6nrhc8UHVYpcVsuSmU71WJtF/32f6QQE3NYROoWEQHqABBACtp558ytYHsZxYFUWylmK4j2JNmXCRUGLZwozRJwYg6TcWsYCLYTP3EPh+2GGHmZHR2txDOZQHmMfnIwhyf76EuqmEkGCVRmADRCutJLDw5sravl4+secVg0l8ZjutFqoXGLBgAddIBAUBjMqnHBQFwkL51GehJmKqNeEAyCyQABPIj78WS7BNm7ZWGCihuRICrCgmu7DOHMMqd0Kehk8M7RYuXOA2YuHGtkUriFls+9EoEwYXzYnRZEj78MMPht591rK1hm+yrGy+LSGsodgvqpfqaGtQscQIM+UDXEgVVu6Qu+8ON914k63a1UTzMs1mA8KsjMPape9yBDoIKs+igKoU+JOjVUvEYROjDMjSblbZ2S8oWpUoRIk2EmYGXXBDMGrATcMwHjCLIJwBG37rY2ERgeskyFj9hBHWMoGjfmeidbboSJuGDh0attxyS4+OABz6gsRx4kl+wysAFpbm+eeeG14Z/rJXN1I36gzwMAnKMaCFgozGgsIWNZmLCwBgYvK2RkNrLFeHQGqEA+Aw/zBp0qTQr18/LVI4WT5XKS3dC2/TD4DnkUcepcnlL2XhrkGVXL+oWOEjwDxOhkEPymYhyEknnRj22mtvA+uwYcPCPfcMCV9++WXo1r27fNrzXYdUN0YstIF+nqPVfqNHj9Hk82peNLH7nnuEopYl0T0g25VxpxCS7het5SpQe/GL1Mm6JDyrPhtFqjqqngVC2KyaBTrSPeob5hvU884FQKbuyELmjPpIsQiaTDMya2lElSIf6qsXhrryefINy9BSudnyz2YVtA7ZJauG+hYdFTYmY4YSlF9elvzitYv0S8AfSmiVjr99+kkBLo2hs+gVviNzK6xKTPbG6294eSErpxgOw6QwMXGrdhsIxBIxYj5p8ki2FEasqI5Ap8mcTqusYn/ubopFROAQWpiTZykXEIz50PGuVKO9w72ALryGBQ14w6AAKMO0oXIlzJc/uaUYk9VitjzUOJQG92Ct4nMu0z0IBBYJVgQANL10Wpi3qEyhOa1Ct27dws9+tqUmt7YKXbt0tdBxD5YTComZ8TfeeENLgCe4ndnZeSqzra0+7oOmCTjM9VTYSe1V/fGxMclByND0GdMlwKspbO1FgwL1YdEAdKDOKR/TS/kg/JxHGTBxCd3+Kqv25ptudlw0Cs7FiVYAowr0RGGR6IHlCQ3w99raLcoNc9VmlviyCIFhbbfu3eR33Dj01Qq5zp1XdR6FAisUxlyB+Geffxbe1vJT3E8LpFSZsc832BX4eRQcSov2oRhUUX3Da/qACaovM/8YxV+PGRP69OkTXnnlFZdPn/ChrfS1n89QjmOschY2XHv1NfLhTvSigDz1YYUUIIqE/kT5tJPVOFUTcrQHtxk8wmQhS8jhmwoBL1Ylox2IRXmADmngwIEelRFXLuKavigQLM3+/fuHGer/rl1X972ANoBM3aAPxoAeWSInADzxtVtu+TPV+61wwQUXmH8AVJav46elHgA0CcMA4GSkOUauMfj4rLPODr/Z4zehhSzebGgj2skRKHAUiGKqir6ipp+PvAbdmT4TDf2tkD25E+rrFJdtX4N4RhZnrT6Ca0fnUGe6ChKoi5y/J8xUBg2qUWcREKaxmW4kMAwfsAwxLYmoy24tcJfriq7OlCATRvcu1AlGXq30HVea6fK3SvD295l+UAsXrZgITQdBcJiHYU65hrtPy7Vw22232U8EgwCg+JQAOQu8Hub5mIceBiKUideQy8LFBwY4ITjky6TBiSeeFHbYfnsDOIQEPGBKgBHmsoB9AxpTPvVEwLAK2AfihutvCNMU09hG/mJCahLYYimRuB+fHECApZSsKawQgtN79ekVdt5Fq8LkV+3Zs6etOvzYCFIUTGWiumHdonSo5kQJPS6Y559/waDFTDRDW+I0oRUp0RShikIdh3A5Al2GxGWauf/qqy88gYLrZdYs+cskXNAN+uBbBCRjfaPio80AMa6BF154wSAxUeDfu3dv9w2CD6CidOapfVijLQU+9BKgBYBwzzTFZpZp6NhFSmW33XYLe+61p8EERUn9AWx4A0sUsUbpQnt8wTNmzAjvvvOW2v6iwTdHFhUKWXaeYmGLYr+rDSpIpYpaBl1ZUVRCUo3Pcey4cV4Ofeutt9rfTx/RTgQt8VjqP4bc8Ar7DDzx2BNW0li3EZgFmOI9nqNfAH1oB9iWziz15FXrNq29/0GvtXqFEu33QTWgIZY7fnUAm/z6H3poWG/ddc3YBcoDnlwkZTR69BgtXvmToQ1FRLnpwz2ANsqCPqUe1JsFDkxCM4l2rCaQoVmHDpo80z/ccNCT56APxzxDu7/66ivndeKJJ4gu+3tvhzrxOpSEfsApgEvsLX5y05gGLUnIon6o75BL+9ohTAaAa2UVAZC+pC9kWFk2yFcWrMDS+WodcH2deFn3Z+UIaLMV3qkPsGxXQR37TahG5KfEd70WStRnsWeFIlTqReu6/1m4kCYyKIQWqBjsdJahN9NECzWbfIUmCZ544onQWjP8gADLNt0xZhIYHBLrlA9iD8rTpqEpyxdzLfDlxCJKABg+r7P2Op5AwHL0EmABAkKxQEPYKNyZXovZNvqX4SjWHc/x/b6W5w68YKAny5gkaiUmpy0Mt7G+OGYFUZwA0SSZgAcrB4uOYSSreo499piw6267ara7swEWUGKlHauxGJLDvV6gIKGghoA5QISwAAIMN29WrC/Azxr7XE0UQBLiQBEkEjQiPAphw9qD5lhI1I3hI/X85JOP7eqgD/DxAlzkD3hEYIn9BOBT9j//+U9ZQGdpiPpFWGP1NVWWLDwpE57z/hQCMIarWJVM0hEahgtgpgSftnfQZN2fDvyTgRbLuFIzztAJ4EGxLpIFRv0draCGo2wABACbtuAiGD9+giYoX/YEFv5TtdruCSbqIk+JEFbuWIICDD1H3ReqfTpwu2jPJ598kqFR9PNTDm0GhPjmHhQji3Pef+d9AxcjI+jDaizoy0isULQC+KADYEo7u6zWxZOTm262mUbU6oMMm1Ef6gvgYpUzumun/nPfANpyO3F9gZTip//6NOy3/59Ca00SsykRk8TwH+XSTtoEzxEFk3huzTW7WQm+//57YcJEWeSaU4C2AD1tol9R5vAA9EY5RyOlNhxzzDG2qGmLipDrR75QuT6AUDVBgCh6Igv6jkN/2oKlC+NxbAbkQEdy1bCBDA3Wf13xd+an84dHcCkYaAHbDODW18g6rY2AqxsEurqWI3eDeBv+rq8V8JKhy9ShKlin1TS1WbKGpQzytPA3q65pNyFVaSpFXGnq6n9+/ge1cK38RCg6kxSZj9+ynsTcbL4xQzGj551/fviXmA3Gb9+ug3bxUrC3BM7DlszDfEXi0KGAoQYVEkaYiE05ALi28oNOnjzZDHjueeeGLTbfIhOGo2GfrDFmr2FGrLamEkzKB8sWQUOYsI7YeAdhw4oDbGBo6sNuT/ZVqj34YQE7JtjGjx/v2NzfKl6YxR6ryOURrxEzGttGHRAGrEsEME9hcskPjHCRP0IaLTGNChTg/+KLL4leA7UWvouHi4UtimTdyLUhKxWmJB9CxrBKzOwiFz5A/MJjx4wJj2mRApM2SYB5DmUF7TkmogRraaH8mAAKPmv8gl7MIZoASigdgIA6qiDTFL8ntMVdYbrJit5M4HO2Joc27KuYSVXGH1u+Eezx56JkAehq1QGJwipPfEJdFss6ht4VAtqXXhquyabz9Fs+Ua1SjNZqRtAAXMBA9cFfyodJs45y74wdO9b1vuGGG9x26I5bhn42uKs/UsKNc/lll3ujofbaeQv3DH78dD/AVSRXwCyNrNZeZx0v5sFFdPsdt4du3daMrpWWWs5cIh4RyJKYM4i0Ul+oTVjK1N3nTBdNmEk5P/fsc+G4449XbHnX0ErASVnQBLrRudCJY3gPRYqi4xj3ABExbOqDkuceRox8c42+RanRRxMmjLeSOPaYY8PhmkxFQbLaDR87cyOEslGaesFlZmUAH4XmUzCZP/yOx6h4qQ45AeKzVJen/dEfAJxHAFsDNn2VrGZ4tVZ9WCvFk3koi3XA2eIH8bJPpmiE9FPf9QrY1RhFOUpWs2SkELWwEiliyko8+A0f+eEBVxWjr0h0hOTBjF4vsEVeYXgmEs4448zwztvvKhylsy1CGJN7I7Nh6aLped6wJZ9eXFrLBAaRATAvTAeT4hdef/31w/kC8o037uvJLhgYZiSqIOYZ69TYX5iYegG6T2q2+sYbb/QMM9YO1oBEwJM/+J5hZgCGejH5NU+WCi4EfjORd+KJJ9qPCshSdo1AGxDFJcH6/MhlsRaAWLVWKHEvVlplhSwi1aNEs+/mWjEZE1NPPP5kuPjiS6Vg2su9IpgRb7peogHMD0iYocWM0BwQZoIR3+P62tqQQPjkx/VsewZ4aC++byxX0r333evJTZQjy5SxynEDwPcMv1kuS77RZ6xnpWE5P27c2HDCCSe4T6s1EsEPDM3LZc0yGdlC/ljKUXeKzlI4gK2uM+lFfdX17kt4pFgB8igEJtmKtVjmueeeU7jWFaGFVikysRo381H+tFuEoC5sngINiwR806TQo8Kqd6iVFafaA4BGnqIWSxO+6jvv/KtxoaSITW+iC4z6cz9lsA0kliPKuFxK6ZBDDnGUQEmJ9s0QLxIKV4d7w5SKPKuHhR9AjxoIiHGk37XiByIzyjWyu+KKK8Ott98Wuvfo4WXT0JK+4z7louM4gYwLapHux1pm1IZbgVEeIyTmEsgcXy3Pw8uETAK8kydrgYrO40I47rhjQ/v27amWEwrKQBdrpnMqk4mxzHW+6XcnA614KwEokTeybtXTvof7/NEzqqqOyUSd6ky40iBTF8C5hoCp64CGM9ElEo/AHJmTfkx0JGWpr33av77dH/r0+0w/LOCKPrFBMI2axUftw7KgAxguwoQ5AjEm0a64/MoMUzDLzRaMWDsZJuVREYd+0PhBQFQh98MCW44IF2AAgyFIyb2wyy67GPC6ymLwEFYC+m+T6kikACDKfrmXXHyJ1qAPd5xptMbYgCQtIWbHpmjp4X4AHLFWJ2v4f6n8an/USjgsRcJyEFQEzZMXFuIoyAzxaCcWiK1TtQ9lEwkWAcmTgNo6T44GKQ3tVaot+IYOfTBce831nrQRvBgAaJuHfxBZNBI8mOGJWGAyZ97cMs/ef6UZbPKHnlYeGeWCK0UnPexk/f0ppwwI//r009BO+wbg9nDUhZ7D8oXmbCmZLFuAlH1hsVrPlgvigD//OQPQCphXezkf9/nNk1Iq86iE/Y1xC8V6u2gvx6W9KFTYRSEIAkxFIQhs6Ht83uwVe/11N9h1w1CfnbOi1YiLQJa9Wk59CmVlArhYfmPGjHE5I0aMcFSL2662JOWLxck5/LcsPmAlZL7Kgk745AEuEoDFvSgRXChMjj388DCt6FvH/YgbIEcrqFRr3YtylmJBoel596u6Br83Yk7ZlVJCBRoZlMtnfcCfDggffvyR9glZQ21ShEiGzraEaZNogEEBz6C84XVWYHKe8Ej6jD7ig4y5j3QPsewTJ04wj/Xv3y8cf/wJlgcWQ5AXPmEMh7hEVjxg8BOI4TfVL3CNj6q7JKXjCKbQXBdtiepGCylPKvmYAx7WRy4CdaZdLnC0SB60fkHuCMWwi1/ZMwGqseos5eMJUEITbHXI5SGLOEshkuw2SAWzCpQvMLESiT7/PtMPCLhYA7ExUUtDbDVNpzhfrXXYbMCSJ0tlvgSQVWcI91laHcQyytYClRiaFUOAvCxUz2INgcGSAQtwpcAPYYjMFUN+YDZiGqdpue1vfvObcM45Zzv0hXuwdvIFFEnQILaJrrw5R6gSkz3k+fjjT2h3sptsyXTt0tVMzDAqWlHRagNwsGrwxbHqZ6Gs6DO0LPJAxUXC+ORHQmgtOP4ZJ2wgiIVSbWHtPW1jOA8zJz5IxwhajraqIz8mzMZrW8DrNYk38tNRAtu49SFAYMDRQ1gW1JU2QX/KKpXlP23aVE3CPa0IiS0sZLE/4G62s9R6eAEz1jIr6G66+SZPjOGqQaAAGa+qkyWHhTddflo20kbRofAIkmdP1iOOOMJKCQXEKIDGpL0YUj4qUAqKYbUGmmoT9cSqVzGiA1fpY4F/jfynqg/9X1GuhSTqp5Gfjgy33DwofPH553pGEQKiWQzFw2+J8Csb5Vcm5cTOchPk3jFtJPwD/jLA1ij5mS7Kz2MmAQ/toL8ffPBBWdYlNgaiMmSiSvyqPFEyVsbiWSxEhuR33nlH6KQQL7sLRGtUHTGqKF94nbrBewYlt0x8xrUMnxXJSl2o8K2ddtpZrp+5YRX5ugF2ABf6YH2SqAu+fXgE/qS+zH0A5tQJNwKhd/DdAhkj3A8oM9HbUiMU3Ft/PvBAR1jgRycPRlqUAc28rlbOgYheWJwo5Tji4HK8aem3n/FPFLc+0JIH+MBYS779S2fUDnyyCLAe9uSX7ozb5C4FXK1Uj8t89bzz40SGh6lbtibZlgHcfGUWSaTcGkvUp/HkKjZ+6Ts5u9KAK15TEsskKuvXf1JZtmSrq49+RxCUCSQsx9dff11LEq/2EBKsYoKCIRNDSrT+ArkQvHTWYJ4qA0ETUbFuxPR6eKEEjrCoQ/odEg49tL/yKXZedDbD0cQcMB6CwQQYw32us/sXFve7771rP2Oh/KQITY58x14PL0uGyTCWauJjhNnZlOfoY44Op55yqvNAONijNQGKrfVMNSPtYCjoGhMg0XTSjQIg8kLQeI7duW6/9XZPNGKhcI3VagAUbfOmPxImipDL0xMuX3/9tVf6/e53v7MvFl/5Ev+vygeYPpXiu+yyy8KokSO98xf1pm7kQ9mMFhBmllgDvEw0QUMselworRSOBLhgWeMmQdk0lRq2P91DOSQm/uhXlCSUwQ3BsBml85BA8Z577jHQ4AqhToBi9N9G/zt9ivKg3+ZLEeJq2lO7qV13/fV2RQBGdm1kKsEM/xVa2DF8+HCPHMgX69TK3vVBeUGLGInBBO+vf/1r0epSKyboD90Z7bjCqSF6dpmk5wFj35sZdbF9IoBIWNyaa67pfkiuEGhv3tBz0CH9bZgnSgNy4U6hD6EH8kR/lYgH2UWOxRFEebg9MSMDsvmT/qJhS1LD4yhdjfVVvKuphi7JrMHBik/EqINomHCVdrjr01N+hDIiD2Z5RlInU7Exy3T3ct/LythyF7/3nz8awJVe0zAzvo4GH5Y1vgQEv9iH2ij5qiuv1hB1YujRo4fBEOYGaOF2sYYEPFplS6meqM+wPXYM1g6REEyksbz1V7/6lS3dLIBA3JN8rzAhggywMKGGdfz3vz3jnfHxUbJ2Xg/YgqlSnQuL5e6wELDMMoZTjRQ4bb311tom7xaFp3Wyj5R8ExBaeGGkDFMn5qUeKcVLjXOPfYlqjyMn9AzPASDXaZktdSUkjuEh7hTawHUsruiSURmyEvCnQovf//73XmcPmABICD+JZ9jD98mnnnTcLTGwRFwAyuzqRdm0F+uIbywpwrmY9e7Rs4cmju7waieGqMSnRkHWMFyA11RSkc0kFAyTIwITEYcyqQuKhJjViy+62Ft2soF2mggFbPBjEpWC5Y8iYOhM9AN+64033khtG+x+iX5vjbjUNuqB24EQq48++tDKFHBNIEolqUMCXOYLCLcjjOv88wfqahRs7on9yBONJ/eNaB/zIsKlyjGxe+21p3g31y4Q2kF7uTfmKb6ANVRPfjdM6TdnW2pCj3kEABeZceyuyvq53pBBtIn5UPfZhSBLmTKoB+Xg3ot+5oa5Lz1uvq+W3vfjOvof4Lo/2FawRkv8SDAB1iCMzxAbZn7ggQfCXwcP9gQLjEMoFOexShbMXyiGIZyGhMQmqY3f4htbVfjTUJXs3oV7gR2VttxqS4diwaQwGZNu+GZtOal8hsAAPSuqnn7qbw4eBzgZ8sOY1LlAEzkM3XieSQuGb7M1K3/nX+8M2223nauDwGD9YWEAGkw2wbDk4VpnqkweKUU5WlaY0jVBT7REdYK6AyRYbo8+8piG17e4LghRQ3IkICFfLFx8YbhAGAazDwTCxrJkXCSJhOPHjpOr4vowQr5OJsqwTvGfAgq4TbAuKZff+GAnTZrkY57ZfscdokDrHlw9DH0dbZIa0ch3g+Y3dtW0A/QAG5QJNKXtgO5ll16qDc//5tEFD+PycD11D5NK0JxhOYoB/uKYBR/3Dx3qzWGi5a581VckRigXXnihfdHeP0HnmgJcfPNztZiDVV4nnXSS86dfoA0p9qUPV/iT+i6NAFicwKhizz33dL3on+YAN+UfgXap9WvOgvZyLzDKYHTH6k321YBup2j3OCJUKJdwRMrgE+WPmGstCslY3CtUWiea76vGnvgxnPsf4LoXANxaLe0DFPDVGniEPQg34AcTDBbg3nHHnWZmfrdv38FAhxWQkRE9F4ciZAoo8RfLBSsLgQcsYTziUHEpPDTsodCtW3fdpaGf8kyTPgizTknA6r3C68orrwxTJ08TOLU2U2JX49LgRXrVAl37biXIhAR98cUX3suBZxx6pjIRPAAttQWfHLhBma7rtwRcFAfAmACFbwSXhRHXXXu93qbxtpRSGwuN26JCAItaFIUEjP0MCKMDfBg6v/XWWz7G+oT2Md6zLrzw/AvhGq2yIqa5o+gdwQgrTJudqF3MdkNfEAW/LJYmr7i5SqudmAwrUv5uuzoI4aW9jasQk6F5IVabeZa20l+AN2USqUG9eLsE4VhEn+DWIeEeMY1FXwCC+wBeNm+xUhdQP/CAljn3XsvXaTv34IrAlXCRrGYsYSaluNYU4FImyvriiy/WNqH7uS+iOyPSM4Khq7TCH/gi8QH5E5LFSjis5bXXXts8S524jzqQl/ODGDTKKZ7zNbkR/K3zFVIqTE4yCkHBlGixD244RjYbybo//bTTbXSQt/tQ/UMZJEYJ/7NwTYrv7M+PxqVADJ2DqcVM7I0KLwG84gLHPdr3JL8ow0asGJbLTps2wxZooSY0sDhJCCJMmL7jmQi6WHxlZdqbVSAAQI4dN1Y+xhMUy3muLbDE9LY6lQ2TB8w833ffUG2uc6uCyNvEIbfAGEsPvszRZIhEgWJsbQMGhIE9oM1seq/V22BDvpzHsgWkbRmLwREKlIXrrefjd+ZAP3SZv/xZMQl8sOrIl3aRF4CLpc2M/f33D7Urgxlw4pKdmbLmGLDP01sBFy1e6GB+rFJWr62xxhoGRSZvKBfFxJaLDz30kNtGXgTs0ztMcDE5yF4HTLRg7eK7BQDvv/9+70uMFQWAEJHASAFrmNb8Jy4FCA0dcZfQbpRODJ+rtgvgvPPP86tv2N0KmqDAsfAYCcURUQtbd4xCmFyC/vdpefZaa/Uy0HgSVpXk/OOPP66Nxq8UjeMEFMq3OcDFQuaVT7zMk3xQNLEPV+y+hmfgI0ZhvCUCg4E+vUeREezh26dPHyuIpgCXtpMoh/bSb3zz8bySMkfRESbGPAW8x7XF+j1HGy/x/ruTTjrZ/YXi5IOswbMsT4avm0rU+78vQeP/u1r/aAAX65ZJEU9eifFgsMg4GQaRdoZZ+NwyaJA2Thkiv1RxxjLA1wQ4Q0ygNhI1WrsxL0CWWWiYKQIuG6bMVxkhPPbE4xK4tTzJgkuAZEtbUjBu3HjvkP+P5573GyXwcxqY1WkEwOMLLdAWgNSLWf3JkyZre8h9wvUKqmctPZYWlg7Cyj0Mcz1bLcEyQxuCVPMMEyTrgjpQNwSo8SThVzsJeIdWJACIvNkInFApFiQwwQgIUzb05BihYqcyJvsIUcPnCqj26tlTwskrgOIoAUv9KgHOxx9/bLcDG/NQPxQR1mELrUTCvYNPFMAd9dln4cAD/6x3Xl0W5szVRthyMQDe8Rnajh8D32BTbVpKh8baTH8CttA/8Qfth0aAG2GBbLL+6ohXHR4I4FM2E5m0CxBkGTT3AqLUneE6I6fu3bu7yGRt8tyQIXeb11AQtA+eaAxw6SIUMyOuO2Rhd+/ew3lRT/IhxcgQH674J0OOmD8RO1Xe3QvFxWbp+F//HeCSaZQXH7kMyOxYCB2wyjJtBoXiYwkxIWQw2e9+93sbHlyHT1Ibo4WbqZxzXPZPpmnLnvzR/4rY8H9VzR8N4BKY781GBHKAE//oeD4MiehcLBWYCkY+9bRTtaHJOwYPhJ+4VT1iBvfTmWNORiaKcZAcR59Z3HFszNgxYf/999NM9XXOPwkJzEY9PvzgQ1nA5+gtBtPkw2ztZwEsrBFSrSIrAFwEgs/nX3yuTdWfCRttqLeHyvJLFgihSggU9yB8tCdaQCvrw42WXsLjJCRMID726KOOH6UMrHJCuyiLtpfrhYAAZE6+FERmZR6KhwUAnbX6zfe5D+rCiBGvhCu11BqfH0KPsvFEigAXKwyhhZYkZvc/UszoSy8N17u0tojnJau4L3iGkDCAlrLpp6ZSc0IM4AKwnqRTuYAjS4uZAKPf4A18rrSFtgKmOuUhOvRBUUReYN+BPE8ysrDmdiknIgHoFyxnYoEJtbtZYXDsLIbSos/pu0Rn6k955EfC7dBTCosNjVDaprF4KPY3hkLTwMXzsd2AgfYblg+3X79+nqxjSe83BVzyMT80pK/agyvNC2KkrOKoQKCeGWFhFDDJiKJiEpnk+/Uc/bWyytEZ/Sj/QOP/u4p9a8CFgZem+COd+88agm8KWRQ19B9mhvlgcECAb2ZY8UdynuHuLbfcEgbfNdjr1qsU/sRuSDA49eAejuFALEyAwcKu37gT8Mmx/Jc1/kwesYST5bbxeQmkAJx1+v/QyxAvvPAi/waEGR5j8RC2Rr0A3BSzAgAQVA7w0AYm3xAAW8sSTFwAtANri/rpFoPRUnpS74a/mj720NP+SYatMeyNPMn0ySeectQB5/EpA7i2fkU7eowi8D3zGm5CpwBPNqQhlI1JM/KhLaxAu+6aaxTXGuOURaaMdRmjHRjOAzjQjD0EUIjvvveefeNUhesAMYl2cx+v/XEFfPbb/aFeLFN2mWoLedKnAC4JcGd/CRYq0FA2bcHiT4oawKWtgDMLaaZOnaKRTW+7AXCn8BAWNO4EgOgatR1XCxNmuGGSzxe64j6gPtQFPiCaZvPNNzdPci9lxftcNd8Xjxr/G/OOoyd49Ze//KUXLnTWe8ei8o9uFMpU8S6fNgKItB9rfr311pNvdpIneZEF2u7tMWWwMPpiUUaH9u3tPgNwkQsWwODb3UBviQB0N9hgA9fboyDJG4YFyiK6WqIsMUpkdKPubTZRTxK8ENOSg8zvzA3p8jf+Xj6fb/xgg7p882e+yztXAnBXlkj/vtqpg5qSSMKzAA6YnU072P1owIC/hA80m9y2TTsDMgKAVZmjGVYmdGD6yPxiTgkBKVpGDJ21R6oEZZaGVlddfZXjEiNIxwkDQonuv/8BC6QXXqhckhWALABbr4qFrdSG1zA8Q3OY/sGHHsxY3rw2SJZ3k6l5Wi5l1BUziHAt4UMJCcgQRIAEhfTwsIe1Rd81tlSKFApVLtcHdMOdYJ+uhC9XFq6MYU/0IFwvvshWjXJ/AKDKgwmgu+66S9bfbQYu18B0BbRQXsQoaycxWU9MWrE3A4Bz39D7THPud3jkclUHtP+ThKKhrRFs1ACYRr8BXz64B2697VbTHXcJ4EA9IzBGaxh/LiDCdop9+27sBSO8UDH5aAGiKVOm2n/L5BWWclLa0Bo+Mp+hUMQT0L20dKYsxN21Iftlal40Fqga4E2dub+pRHOiQoobFFFnQgr5ZlPy1L/UL8pG9NHC26y643mU5RFHHO76/FXRMbhLKDNX9YPfUUYoHvjUYKs6Q0fqBpjOUP3ZuJ+4afKyMaHnUI7QCyVAHfHXkzfftK25RPtJ1C9+Zw70I15rnv/jUyv+df+vePq/4syPFHAb0i52EszCh8gCGA3rlE1iJkwYr9emXBk+/+wLMxNMii8KRkkdE4EW4I1DeRjYLggVQ+zk4vJFeo34+t7IJT0DmPJep1tvvc0habydle0AydjCputie4dXVeiVMTAoS1mPO+44r65iuL1YljQg1nRqnuESozb6PMilxy1MEizqhEDwbrgH5PvD0mM2nn0KsICYOImbruAG0ObYLbVxuSbNsHDZcJoZ/qhIBCgSUpaFMoJ4XO6J9rIUiQggfywqrDELm8qnnawMZJVZv/79NRq4YEl1f3jArQ13y7ePoqCP2V8WfyV9ihLJVv9xDK24nqxSVpMRfQK9aSMWKnHUl2nTGnZH47U08Bygg8shukkiL9FY8iudVRoOVfsHDDjF9wHQnAeQSRFgfLjCH/oQ0CbRV6xQ3HHHHTRCam2wp87pY8aG75QhH2QCQ6RLl67a1ewsxRVv7K07Bw48X6956qTBF3sKz3Uf0jaiM3DJMNqyjKhM4pRxG6FY4F+WwLeUW4T8awXoKGSYDXD2knVe/aSU6uwfjfxJbYauJNqQUrzWPP+ne5f/bpjP8td+7L//CwAXErJLVtwJDNDEumXWm28AgO0Szz77HLsKGMZznlViMbwMVsEKzLgsECoJDUyHQMCsDK2xUBAuwsYicFU5xIoNRF599VWvsGo4oSTeszWYrVc2s+KLuFsEBaBj0gz/LeU0z5TNM1wD/lyRjwS4DNkROCwQwBJAYEd/fJJMuBCrjIWNRYrlastUv70BdcbCRRhZ7nypYlgBIRacUPevv/rKFt6br7/p5bq0I0UoUC+sLSYAKRvgYitAQsH+rD0T8AG61xpp3vdp4VL/2xVVwSvCOWYXL0ADBQKosVgjunNiJACupZ///BdyHVxtBWyFkwHcESNG+H1i9CmAS5uhmwFXtIQPSdABIJo5s9T+Y0K56BN8yyh6rgG6CXz80HJ/AFloRl4oww8++FAxuHuE7t27y4iIk70JcKlHAlsvYlCbmPzq2bOnJ9oIbyMRecD2jq3lUsK/jAulWMYK8dA0BiuXeQXydfSGXASztXCmV69e3s4UPzxtAHCRE9qCXLB7G0DNcVImyzVnyc/UZupMagiU8VojDBJvbfZvw3yavfFHePG/BnChHQyPhmXhAkNq3jDKMUxE4D6WStTKQkP1KKBMXzNkSpNcMAm/WVARJ1wUw6kIiSny5xF3SbQCCbD84vMvte/COQHQQrwAAEAASURBVH49SUdNXtiHK0a1kAE4YkQWELQoKrBFSIQCs/3bbLONhd1gm2E2Z7rCn+YZLjHqCo9xQsjFP0AWCwQB4JgXWrIE+c0337DlSvB6CpkDMGm3w8m02U+rNq3cNhYpoCQs1ICS8iPwntV4o0aOygypiYeOwsq2kZQlf4aBwls9jh0r6/Lu8Mtdfrlk4cEPbuEK3FhpR5gXbSDYH6CFJxixYJkToQJdAUXaQLvZ68JgIquUBMA88cSTBmKGzykGN0aEADTRl8k3vIQxMFdRGewstuOOO0YFZwuXjW1YuYULoum+pl7KyvXD9fOEomYOP/wI82JUXjwLsPOJgEt+8DJlE+u9oSZpsXB79SKeuM4vkzz22GPDIi0KYptQokZIKEjmIbBqUTC0lV3joBNKClfSXnoJJW+/JsqFl3AyUqJ84oOpD4oW9xQg3lyiTaTExw2BMl5rmibxycb/Nsyn8Tt+vGf/awCXoRDMEWf7xeTVvLKEjTuIr9S2c2K8O7RpCAsjVlt1tUzsZ9w9n5hR+1uxdTOAC7PB3AjdIr1Sm8238f/9TG8oRZAo66MPP/bmJliB+AOl511mBNyo4TVYDQWFWJFV4bPPPvPQfN311vWLBmEM8mo6NXdtKaM2+nwGcCNQROsDerz5xpvav/UKCdxE+15xBdB27qM+yS3CkmS2DfxcG76grPA9s0+F79P9n376Lwfxf/3V1wYc6NEQcK3EJNj4cllUMm7cOPlObwu7/3p3gxp1/qEBF1Bgz4eHHhrmkQpASb+6H9T38AEuFtoCzzBCOOH4E7zAANpxPgJjlkYIQ/2qcZ51hIbuxbrlN584MRZHDbhlMAZQtkw+oayhDxN65BsBOs4fNNqXOsnog3vZWpTXmd9ww416E0YXu2xwh5AolzbCwwZc2qGyJ0nR7777r6w4ePcZdQEk2VviooEXylLu4TrM1oQub6Eg2gRXEOAKeOKCQw6YPGPDIeKTjzzySEfvMMmG0kBeaAf3UX50mTTfpsT6rvaS+tMS20P89fG3/RPp8G2f+nHc/+MCXGjSRB8QNoZlBoPRkQz98b0iDMRUsqppupbr8lppXAzsfE8IFLGf+BsBRMGoGJUVXzHGFz8uE2e8omfO3NkGXF4umEDn9dffsEBiLbGsVXwah9WqABYzVWXRQ16BylC+n478NNx9190apv7coTYw7vflUsC6jRuLM0EYGR8QeVCrpu64/Q5zF8NnCMqQGuvFgqJ6Qj+2C5wxc7r93kQo4IqBpggjgv+vf/0rXHbJpX71SgyvkjWHJaZyiXlmBSD9AX0RQgCX92cdethhFkYq8EMDLu2/5NJLvEcu+2wwQQSIABQIKf0OPRjZYK1hCV4ri/jnP9/OfQ7gci9DbKx1Jp/oe/KBfuRhZavvBLi4A3BLERHBirXVVouvwiEP3hpMNAsgmfoIujSWYr5x4u/QQw+TW+EDjxSYnKLeCWyBXPozKQes4+nacpJlwAMGDPCCINrASIbolEP7HRo+/ujj0Gftte1nx1fNMzAv9MLowPXGijxijVGquEd4/dQFF5wfdlG0BK4XlAejA9oLAOOuEfmaTfAZ6X+AG+nA3+8YcIGBplKG+k1c5mrqoMZu4RU6ACvMD/MhLDAy4S5YBTA2/i/CeABdGA7rF1CFwbBOZN8afBMD48cFcPFLffbZKIWA/SNsuummBhxWZL3y8it6Fc6x3oDFO5Ipj2RRJou5Vq8FIQ4XwZ6gPUZPP+00TzzEIP84PG2sPfFc8zRJjNro87Zw8UXiYyOcqd5REtdec51ePfOoXn+zRnxMqIewYyXZShENmPSp0HaYY8aOtqDi9wRk8feiJKAvr59h0QMWMK+AQUDrMoqKthew6kyCR38DuF+PHq19VY8P5yhmGTAgfdeAa95Svxt8VB+AJzKNgFB9gy8ZN8hbb73tvo8WGf7RFla4KFsULyBKf5HPUPm6/T4xNdD5qkWEHDLaIQYXfoOPGgNc6AlwYymus87aYciQIQZJ+Iv8485wkVebA9wUagiNednorrvuJmCLLyylbPgg1s1kdX9bOYjOtHvcuLF6NfrRit3tL39ze9eXRSAYGlNk/e6m/NZeZ10v4cZAwYXANQAU+UFGkL0YmxujcJjT2EyycMYZp3m1G+Fj0A2XAoo7zR3EGjX+N8lz4uOGbYjXVOhKpIb5rMTj/6ePNAu4MCwpEY5jiLf8bwjAPwS5VpYoCebmaXaPooPyNHSRnIpByzWsY8Nl3rIbw5VgHgQhV8DBLv+6xH+DADGvKd7TtdGfRHB/q2xiPbG+GA5N0F6nvNnhMwEFrgUEhQpHgFS9lB/HcWhEefHtqgzDAFxCYrDo2MeWkLCLFEjPLH17gQ6gZMClPACMb4FOMevTdb+3+5OlwXJQJlvW7NZNraC+ESR4wwGWAnVAUAD8JYkGKyXm5JjysMY452MF5GNZQ8M8bWotEluxQAcsqocfflhLkG/LgEp8oaAab0sHa4a2EVvcQTuJjZ84JkydNkUumDsc8A4gEMkAeLBY4l9yKVwqC/dzuUk6duzoPJnwoiwUFyBBvyDgTJihuPpusoktQ4SRt13AAMkitOWsZ/Cru0H0I41cLsFziQapn81wup8LKAQE34swMnQkJ+r0yT8/UX9dFEZ/LTeI+jDGqGrjFk0csdoMPsSKY5krO5+xSTfD7tUVg0v7DariDcIEb9HkJ4qrg9pOPihs+t6Th2oHEQRs/k7CItxuu23tzqIuKHv4i3q6bhaYpa2lffA//0kYCgAr7eQVU/vs81svk15jjdVdJwwGy5NpoyeVATJDnbE+8R8fddTRDmtklzjLkvqS+ubJmBg06BZF8lylfRnW9VJsXklUpzc6UkcSdYFHUdwYH5wvUxwycbv9+/VT3kepLXEfEq5hYDjGV6DtppEJ/UPKtCn1YTy54t8lfbvipZ/0me8UcCuqtGxUAMbkEpqTzoFB49A97tJVKA3LkPTLL78Mzz77rLZb7Gkri1fN5Gi2H6ZnmAOzwjCJuRL4N+yodIxQA0iUO3bcOC1tvSM8J/BkmMdz5MN1BDYF4nvGXdcoB38wgMnrsNH6lM+CCCaT7hp8VyD4nE23eYa8ANoYZiQBVnt4EwTtJA+2whupCScEEkuJvGiTASjDSrQVAcaP5pRhUo4bMiq+UerDbDQrnwAyD++jAambVR8JCnvezta6+Gv1dgJ2NGOSBHABhJAELLzk88NyJ2h9/kK900wWLpNj0CnRmeW7gPxITZZdrr1gP5B7hvCi2A69+FB1gN64H7CILKz6zYYoi+Uv/ViWMXXGxYObAnrwnQDNcck0sgnARYLJM9IifhuEoY3KwaXE/r4oEECKfFFkKAtePkq0BUoaRcBGQSxpbctqO9ESJcHIA17AL7/WWmuFIfcMsYKBPvQJVju7w11/w/VhuHzbnTqt4rpwLfEzAGjrUHlDZxZQ7Lfffn5XHdfgBe6Ft5YAUkIiWqdmuY2xeaJnjO3FRcObkPfRPrgYI126dhF4KjJCozdoEGUgPg/gUg6Ay0rBk08+WT7X/eVv1053qgN9CG+Ulk5TGzrofXI/cz5FRSXqJ5QQr5aKURT0PXXIkvzhKsFVxauCcB9gwQ+R5b711lu5Lp7EU98tWqgXh4r3l7Tvf4BrPvl3f747wIWLZHEBDnQgFqD9XGJI+AoLDKFlccDw4S87dIkdqvbeex+9I+wmLSvtqE4n7CaulScPGAzG4kPiXErLHsddoADBSZMn+yWPrJIivjQOyWBSmGop48ZjQrs0zBTgAgosyaWO3DseS1kvKHz1tVc9AcZyTawqhD6F42D5FMqXxdtgATIYkJ238KXtvffeemFhJypti4owNVISHCxjfMpMWiRZbNC8eK+azRsVPPwrkh/RghdpySY8CBLWDKMIwsDY1Yv9JTp0iAA5R9sFAhRMHgG+LBlliIyFN3X65PCLX2znYTOFWSkpHybBaOe4cePCzYr6+Mdz/7AlCMDg3wOQsM5RFoAXws4mNiRWmd2jLS/33mtvt4voBcoGeAA5QAiwhOZNAq5zUn0SUTK/I9joB/2o8gFaFBD5MptO3zOy4AWfXbp0CcWaNCJWm/NEswDKORpdJP6in9g6c/Bdd8USlC+AhwWNsuFFn8Ti8p42aEOFAZ8EprYGpeBJkyZN1N6yZ+utt0cb7NI9jGZoZ2xK4t0VAZe2QRv6kqXhv/vt78yPrHxEscSQxpgRPALI0X7oD3/gfuBlmvAcgEh9kRn4uLZOr3IU+M6aOUvuss0FvFv4hZgIKzwNOEfZkJ9YMxK5snB5FtAlpnuc9hLZcsufKWLjWo90kCfKoB4k6uKUvjPn0/XM1RW+KPP/x/SdAq5EQX47hjvRnUBv0PlMXqGJmcxiUxU2QwGQO3RoL2Eotv+pf/+DdW+c0aXDlzj0M4yzRODUSw07Kx7HCR2Gw1M1ccam0exlymu4YUyAgl3tqQt8YQDP1A1wIWTmqKOOtO81gcOYMWMUGnOsN6MBjD0U1rMxD3IRw+h/rawIfJVYnvgU8XmyLp+XTQLAlEXdEVCUDpYN4MWQjLwAOFJD/kvt49vPo29UFhYHeSHIWCRM1uAKGTlqlN+1Nnr0GA+BkXKsfb7JI00aoiwYak+bNjWMGfe1Q8e6devmCAzq4KR7ACXyxrpnyE37yQfrNykwhtMlGqpzHgufTVa+/OpLbZa9qsOaWN22qiaQSIBJAjpGCc7DV1b8k/qZfBu+WYHzgD1xxtDa10W/1L8A67XXXuv6dpIbAAWDYkQpmnbigQK9jZYQQqzsyVLMvFHhGj2jzCCV68hmO2/KELjooos8GYWlzPPwNH5Z+ot+Yz6B2X0W37Bi7dZbBzmeGYsUHqKuAC9Zp+F6bO2KgAtvsDSa/nnttdf0/rcDQrc1u2nitY0VOUrT9Fdmys58ZsAVbxNji5FwsbaF3Fk7f5k/1WbKpg6VlYsFuFiyWX6V0vHHnagXqm4gC7/Mrj3cH7Q9ur0wSKJrkDrBo4xOmUA9UK/iwVXHJB6KgZA7sT4iHlP6poJKtLu5RHv+f0zfKeBWasVVXFCQpT0F5npYw5Dr9dff0JtlnwjPv/C8/IitPDyHMQACQlW23mrrcP7AczV072SAgVkQMDoFQeUTh2fxXOqo1Gl8V0obY/G89OKLHlpzjmEmK41I5Be3HYzWAa4FgIBnZs0q1eKGEQrD6WrmhaFGCcQO+vOBuqdKw9MOFlzAz1au8sOtYEtLwsUMry04fTOcBViZQDrwoAPtb8WHiIDEevKqa63u0XPQxnk24L3UJqQcAWfojkTgnrClKsaOYUjs1lXgGegLtLqLnb06r9LZ/mEsYeoDsKMECIei/Vg0bMQ9esxo7fi/rbaQvN++QiwpaEGdAFXqBM2xmq8TIDFhiKgDXmwkRH0s6LJ06M+ZmmDBEoTWozT5SKjVgFMGWDABpTRBRfmkpW30z2X+pH5f/h7Ok6gnypv24ZP2JKrKBWCJkmDRA6FM0NvALhBDOQEcjCq8Cb3uBXAPP/wwTfKda6Dz/IPaDKI9+9yz3gaUehNGxTn6CguX8qgLfEN74B36mw3y2YeAmykX/oaOuF+wFuGLmFYEXM6TH/S/7757vVqtd5/e7nvAFuCDHuSlqrtPAUTqxN4dKPiBAwdqafVmNlSQHz4o49y8bK+mJExskdxSBx90SBg/foLyLjFNlK3bA/1UgmkF+KawL+jNhxHPAw/cH7baaivTFsVD+zLd4nq5fcqPRL7NpeX7t7l7f0rXvlPAReVhGWGZ4AMar2H5o48+pnX6L2UmAdZw56Jt22vCAosU3yOdf8JJx4d99/u9BZ1eJF4SKwKmiq96jto9EX9Jh6ljYW78ifjertRQ8DW9Bw0rJ1ozeVYCAEgCywToABd+17ZtW3vzGoAWkCK/t+TPPfjgQxyb2k4rjbDMsBq5hgAmhmaiDlBB+BFmhHS6XnrJfexa1WftPn7Ok4UZny1+RZ6Pq56WmgZLmTQKJQwNs1MvrBhABJpwDqH/6KOPNJv+1/CKVkXRXu5HsKBZUlLQCaFFmPHlspqONj7y2DBvug2A8BwCj+WXwInvF/7xvN/pxXu12LjaE5iAEsKpfKE5bYc2KB1e8068NKOTq7Xxyw477BCFMtOOmDcTSU2nBKwN+xehBhCYF2AJasM30jKhB83zRJvzzx/oicPVpThpFzQAnMWQBq8atQmrd4GG4SgwXD+8up4RAzSjz/gMGzbMLgVAuKV2CqMu9A0jjDTpGV0VheZxlA0TltSL6/QVNI9gxCgvutdiq1cEXO6zy00KjL2Z7xo82JvqJD5l2A/YUg/TQnUlAYz0zS+2/0U4RUuKe/bqIR83Kw+jUgRAeRM28yooUhZxzJhR6g3ScT3hBmNjIhKKGdqgyOrExxxTFsqD8lGwXHtI+4Sso4gHeJG+4h6n9J0BWujVXFrSv83d9BO89p0CbrV8SayrZ7b4Ac3wjxAQQPjOGtqzLyyTKrwPDOYi0eFsWD1fm8SsvU5vg+6GG23ozmd5KX43WxR0vv6l1LCzLAy6UFo6Kzz62KN6xcyj3kgFyxAtDdDArIBUei4xMmDLDC/rx9mInOswEUL3rPy5vHGWBQ+AaZXqjMWMMuE+fJF+e4MErFztpn7UmZVvq8jSnDFjugGOZaObbLKpAQ0BRrkA/PgLzeSauCCluoHm0IxE/aEN4UU0n+XDAAM0+eCD9+2zZLjXtevqqqOsV4ELz8bhIa6L+A4vhAMXDkDI4ozTTz89nH7mabaAcHvQXhJtABy4H+t9iqxALNxnn31OkRrtDcjUPSYN13VfAnYrWSkw3gbLyid8u0/IrdJF4EfdGC47skH5M6GzfHLvqu7QXxSADKYJ5xMIAwKVGrK/NPwlR1fwwsb+/ft7zwpcDRdedKHfUIHF10KgR/gTPIZlTp65Ooc/c5pcAPjOLxh4gd0ATOSmdkFDtli8TYs46Hf27qDeDJ8jiEb3EEoKYP3iiy/lF91Ub/Z9yHRkyA1/AVIkT0KJZvRlTLF/Uxs5B18QM0ueDN3feecdvxMOmnGuRiOW2KeRFoAcfQYAQmeWUx922OHiu06WLUASAvJsRYWUkXiU/keh8hbgF154MZx04snacH5NK1+UB7TFt06+iTeJWKBcFDU+byYaN9tsM7+VmJENskVdnNK3+o2UeDj+WvHvUn5f8dpP+cy3BtzGiJE6/01Zln/XJijvvPuuLVqGwAAfnY2vCOYzI8rChSkQJISCUCV23Npmu638TqhevbQ8Uf9gBDqG/LkfxgQUOAezAQwI/Ay9aeCxxx73sA7hgBEQIAdyC2ixwHB1ALqAJjzBs1g55PPkk0+Ebt3W9LlkUQ7TqiH8eFiOWHEALoJE2XywThmyUR6hZQw3qSOCzC5jABlvQNh8i83DMYqR3HCjjSygCClgRgI8+SAcMV+fXuYPAAANaWe0yOdbYIZo5njGjJn2ZybLMQpNHMbSDqxSA44Ej2dn6n5C3J5++ikBY4nf50X7yRsQpw7E2qY20l5ej87KJ2harDalxRRYe3YXaPZfDxicyqTA0rNEBTBpeYHC6tZfbz1P8EDzCEBYyQk8MpIKXQUwJICClOriiUVdW6Q835B/lZ3dsPqJSCBumpHH+HHj/FJEFgx0UbnUl7YBtly3Fax+QklMmjzJC1lY9LD1NlsbiFyg/uAiuOmmm708GCUD6MKHKG36Crp6MljgBIh+/fXXYbfdfuVFEmnegfvgDbXQPKOWmNdjGfS1e5w/TvA1xgUWPPtaTJk8xW/fAPiYILAvm4ecIr3oM9xdRIfgwjnggD+prmxPGl9iStuhAYUsXLjA7g8UBiORUoWxnX322Yoo+adirNubTrSP+8md+2gj/FQjCxn/NRNzyPCECeNliAzwSjT4A4u+YTIPSfZ4pvm0lOeTQuVZANxKNzW3+Uz+666uHODSKzCNPuAFa/UBhr/oBXrPaBjNEIvOY/YY66FM1gc+tMgqpqiO+eY/wqXhopaazlAICzPc/fr1c0gMAIagAF4OJ3Kx+BLjEBiGYOnp32WNPqDXZMMQlAsjJKGlE5k0A7QY/jOcdp76njRpUvjDH/+o/RLO1vUiMx6djdXAiwVvuOFGuz68yYeYMDKEaqzyaYtYBjL4o68lQtWQgfCxdZWVt/+f9g8777STJpJWs7ULcMGUgBD58oEO8dn4G+XEdRQO4D1lCns1DPM+tdAYywMA51kEjTZzfxJGJpeITAAI6B+E5jqFjm2voT6WmxuxfL3pV5VHfuTzpSw43DTvacKzi+KaXR/TAhhRubqX+kGPLJVNHQBDhrWlDP81QmDYjnuBtgNSxGoT00tb+fAMz6MY7RcXXfC3Uz7XALmvv/oqvKMoiKEPPRDGy1W14YYbeqMgQJ1n2ajlvPPO86QlG6lDFxJ1wXIj73xZn7iZWCDByIU3Oqy99jrOn/sBOMKyAGLeVMz+GWnCkOeINIGe8BI0JU3TJO3BBx8k//GFmT70af+J7dOhmYX+JdG3kXcS46Q2EscN4KIccZWgaIgU4MmlWUTghza4bwDWM888yxOA9E0CyjQ6hENtHQtQyQRaMLL7SvQ844wzPdcSjaG4IhOehGYYJvQV772L9asSz7R0RAbup5tvvsUr9HBN4E+GByO/omwA/WhQucmN/AE3mGuAd6gzCcOMvGh32vukkUf/q099K8A1o+gPWggCJ4FBOzJbe/VVV2rz53sc12lrTwzAPTwHE9GxpAiy+iYjJwGFdt2aM2+WGZm9QHff/dea+e6qVUDr2SrBAqOjYR42zuBNDQyn39CE3CfyS+I/hDGwYPg2gypvg4c6lfogxPgd8UUyK4yF+6RiN/us3TtTjzgpA0Oy69fQe+9zW1YWcBOD272g+u+w/Q4Cu+1DD61tZ1af0Kp8bQSD+CVaJnrRToSbGE+EA98rk49ffhm3oSQagEmQaJnG4SUCEgE4TkgiOPh8GQqyp8BRWh9/3HHHWyGxNNNEUumpH6wETQkAnLAgvaxRtBs8eLBf28OyUATW75yTxMADxHo6mSfiIflSLwLnp2ibx1ayEnkt94477qg9G9YNXVfXHgECZCxHwBQl6eGsQJ69HtihapH8rCwomCylOGrUSL9U8UNFt1QIAFDiLJ++/fbbXSBCy+gKa7pUigmwwqqlfgk8aA/+ykpZhWy7iRK8X/sl4O6K90TeZMHHZXpF0HsCdyYTaQcAApigrIlC4BseARzGjRvnDeqPOOIIl5ehQCSJ+NssbmYENkkrAi5naQMTjvvpBZS4AFAIIK1pLPlChuAJrGf4GwuaORA2R2eDpV12+aXvgQegP5FBuG4AYRJWLjLAOdxU1J1RIbHWuJ6wdOG3/Pw40kHWgl7sChhCA2iENUt/EZWB++JubYW55pprmDYYRSghQvCoa3RNreg6cmX0B7rQZtqX6kgfUXnaAKb8FNO3BlyIlJiGTqPzITBMOUrMeszRR7kDEGKsA6xJ/Lb4WOlwJw2TYIqlAq4fLHpQHC5MtlATbwzl1lprLS0v3CysoU4FSGAC74GrlU0sUmBmnnIIT7LzX9nwPIkvOpPK8Q0T4zumzjANEwj9+/d37CTWHsxC/VAMTBAQAkPge4f2HewyYNKBfCjvm1q41APG4hmAnr0eeGUKb2Lt27dv6N2njwPQKR/fLpY5jB19oAtsgbPEdrh8lgwdAS6EPVpYvLmAyRmsYHzVWHRytahtTJYwDEXBALjshLbvH/f15tKd9UoZr4OHNPpH3VKKR/qrZ+Nw1jd5x7DLr7jcCzrYwLxAr6THEiIkjsRIA5pg8SIotoKtMDTLL7cSYM9EYisdb73NlmEj+em7d++emWTKz6w+C/bFlssSJ5ICWvF6IxZesPoK5VQoOi0oX2T3xG677aZN1q92X1LvxwUeuBrwq2NV0y54lb7G347lzOQRSgB/JPvGEoVBnzPMBqB5hq046XssV0YREdzipBUjCujNlom8EYL+ggcffvgRv6HB/GaKxD/kZ/JSQdE0phUBl3riVnjm7894PoFy6WPqThkM8aErgAttoxWq/UPmlZmOZ511pneoo3yuqStsGVN3QIyVYV4wgktFF5lLARBLZVHfcP2NCkV73fJWrgk3dpfDMKI8FkIoC9MRblFPWzkyUhqvUcbuu++ucLRLzJMAbgTKDM2btHATHTDEoqsF/iHhUooyFpW5T/7E/nwrwDVR1KkQBf6BmWAqjiEe1tB5WkvP7Dx7sdKp0R8Ut4LDookpEtj5gbwC4Lx8CaxWTgHCdCjPpRl5XkZICA7DYiZHAAOGPEy42ToSg9CNrpeOqI//wPA6xOr16jAri+BXee+k4f2litdtpxCiYm0yknylgDrDd8K6Ph/1ma63M9OvLOBSV0KpYOAkALgZEATCzbBQGgIubQfwcWsQwUF9EMjOegstflMEkOWbMzXbnK8l0gAsworVDqjTD7hHENZZs0q9Mfau2lD69DNOl19QVrUEAZrVGwnogWWTl+8aOCUM7uMsW1KEPTERyqRgsVYrxc1rgNjIA/hK469gFxDhfoAZwEFkAe4l6jRv/jwJZpaXF7OEGEsXsEM5EP60QKOOMs28M/qA5tAOJYNA5+reMm2aPrO01Dt8EQZGn/MsL84cpFhY4qUJw4NmfOxKkDKiH1gogG8ZMN1zz730gshbfA+NsOGgA3j33HPOtQGBlUkeCQQi+OLvLnD/ENY4ZswYg/R68lNzX8P0jQFXfUa/stCE3c66awQEsBLNgiIFiJAH8uc+gA0DgdBLQtFOPfUUhYRtYVmkjnQt93Nftdx9LAOH3+CTauVJHrxAlEgg3pZy8UWXaHe5yTKQ9A64KDG6RxZ/FhOoWlUmucMK5jn4kv7AMEFxnSQ3InvvwqdYzxhe8Gmr1prozZBjKVkysmkimXNEd1UWISXpFHISH0wnfeUn8+dbAy4tjwSM1DTDi0h0MmAxbuxYWY3HuAOwShEyfDWEzGDtQl0/iZXrI76ZGMDJH4HDE1FiNJgqxbhyK0MbBIDJBQOtuAEGA1C9BaNuom7uKlUoMjxDlMhwMB1DTvx+Z2sYxs5gDIFi3RXILqGmvuPGjVOM5uEaepY6ZhgNvHKAy+Y61baSGdbDsJRl61PtAGCYgaadMCy0hGnxf/FNWxgeE0lBYqQAo0M3XiHEe9xsTUq4UG48Qxkw/ew5sySQs8Nmis08RxMkays8DWDPktBRbhQolKV7w/n7j35HAY+xo9AbgeOV2ldo+DlixAjVQ1a/hp4k3e08UpsgvoFOdWLSDtAFPBFS/L1VWv7NRkReaqt6YnkCmFkqF2XAO7gA4CL1tfcz1jP0Ce1kpdichfMdhYJf+KyzznJbsd4G3TIo3KndvfBbl2i0wIQb7g76HAuXb4i/UG2ZNn2aQ8JOPeVUP0/kAglwfkRRLgA59ab+aYITcAXEsHDpH/qBPFkA8uqrr5mnlqflNwVcygYMzzj9DG2mM1RvT+5lBUE/xrdR008AbpzsBUiZpIWn2HuZ1+IAvMkXmroUS5dUXYWhI55R1MF8lloLDOvFL0hKmQB02EMPy4U2SFYugCv6S/b4rqxiwlZvBpGSRU6IQGHiFZlDVhiJUQ9cO8gStCFxHf5y+apzqk+kT+Q3jrkvSmtGbhEO1RP+wXXyU0wrDbimjSiShAtNxTp7tP+Fmt1nE2jiIeeIKfAPQeD4gYyRsEs7gt/SpjKpAFIAFyFEEJJliNB5YktgwZJNO+tVCcCKgW0tmek3OSWg5ZtzCAaARsgaVs7555/nHZkAcCws8qajKZv8Ro4cacDl7Qde1QSoSNioP3l+Y5eCimeyz6/pVt4ACuCNv5JyEFwmCmI144SXNb5qA10j0GTAQG2gbM5H/xg+Rw0fM/cy0RAtD23go4kfhrw777yjw9369t3YLhWsfLVE+bJoguW4PI1ARCHQAWRwAqwAm3qVi2BgPb+m4fa111yrNxhPF3i38jA/9pHqCnhaUBRDLeGE3pyjvdAApYg1LsjScWwfE4eAhEFNz+bqAlYXIyWiQpIPmXrTN9pvJcyYp9A4/T7hhBM8uQrwYXXfOujWcLcmwVBQLNQAPGkPIAngEiMN4LMMm8mp27QEGCvXvkmBK/eSFzuEsUSYtyM4BlcEoX4M1VNfodR4jiE95f3tb+xfEVe/RerFv5EPdQyZE43pAZN5Ka2hPzTGxTXi1RFeyMBELyBPX3n/j0y/cB/5YtwwGb3HHr/RSs1jQrdu3XR/dO8BztznIvWc+0F1QCEvkmVrxSyrl3tox9ix47XU/s7w8vAR6jtNgmVFpV9VzSRz3AmPOrJPQwzpjIs72EGMOQYmMK/U5jg9evQwL1NveIEVbiRVJ34rj8Rr1BElSoKuJH6raZZX6P1TTN8acCEYHZmGAswmAgD2HQkwGS7zOfXUU8P48eOsLS0A6gATGD7LMI+Jb0tXxJZCq5eVi8BzH5YtxzBXtNq0S5GEEQahMwEXhJrJgxYSsHIdRwZfatm6w9SBDHFQBlib/fodok9/D3Vpg+Np8eFJiEho83cV1nasrHQAsa0ECfBpFHBpi9qcaY7LJw/q0TBhkWPtY3nhLgAcAe3ImEuZEAHgw/PQhmMsKDa+wR1De1EQtKMgT5a5JpgQTPzT1J+JHF63gitmW1k+Rx9zlH2VKEGDtMotlw8URZMj/+/ygEuZao4Tx9AZ4KIegA6z4q+8MkJ7Nlwnv+rM0K5De7t6yAflAJ1i2xmxIHDxRZ60PZVVpTdN5GRGMpQBXXFHOFZWvJSj47SKz/5o3YP7CCKXa8+LabNLvTyZyR4iHyiPkQh7HzwiXyqjF8LXbNGqVL7zBeyADgsfGGVhcfMOt40UqhdpGrdfpO/ZB/fGG2+0TxMQpe3cQ/1R/kwcYX3Bh5MnT3ZYGu4W+JH2NEzUTf9j0xtcc7tpUOZ2r37T8b777Wt/OUvSyZ89KmJ8LkAUXQUpf64zD7H//vs5CoRNdlL5lIkMxRWHTBYyGiLaQLTNjdZyUuz0W2UF+0d8po3rrxT4TpDy0Hacam9WNko+ugXJO/ZtlH3qg4LiPCMp9uMlSoSNk6I1jkWdAVzaSXN1b6ojvOXrOodS4Qb4BT7A4MIo+SmmFQDXDLKkpcsCB6cTwRIziV6cdWfAOAAbQyEmtY448ghZuavbmmsjfxhWXbRqGJ4tDfuJ/ikJaEZDR03NBFDcjSp1NMM8ykcA+OY8AoHV6lhF1YR8OY8AwEwIESDHb5iC2WQmjuhQhnHcD2QCCjAldWcTmzP12hXeBMxeu0nAeCGfk76wxmh7BNzISDBaUgr431p7C784O0w9AUWG59QPgaANfNt9oIxt6akuFm7lRR2JtYyWcFyWylsZqCO+OSZvLBiqD20lhIvFF/vss7dDldZZZx1bhpRNH9FeuxM8hG7Qt+5D7kjYENtDPbE2oS13Qyvqz7AbUMLC6dWrp4a282zVMlmF7zZaN7KSZNmiHPitrNRXhLhJOZOZPmmSBICNk1YMf7WKjst6gH/UnQ/Av1hW3Qz5pdlj4Pbb78jsXVzt/S4A4L8/83fzmyec1JdYtJQLHaEzw1/OoTiGv/yyQv54mwExtnGHtOnTZ3jBw5AhQ7xDHCOSOCkZlTH1IB/cEtARS5mJI17thAUeKaivJYmW0Bb+JupyrF+iKR/OA+TMGxx00EEyUsY7MoY2ULekZIkgoG8TTwBSWLn9+/fXcwd7cQz1oy18It2gNzwGn0czE7eC6+I+Z3JU0TDqR9xTbJ4/ePBditXuSBUFxIqC0eujMEqwbCMtAP/Urtg3pVJ4KKITTjhRfHew84dOAGdKPIN88RorZJIPr6b/haJXPvzwI/HSQrtHoClKk4lSliBzzEIWErwD7yNH/60WcCOAG4mZCLXsN0wSz0SaZzR45iasGoZ3gBfgyz6ab7/1tgEOywzggskgfGS2zNASzSZmATQaJpWW4Y34TSfScZTDMcxHB8CUgBbDZJiH5PxkuQIQANmhhx6qJY1/dEchsKx8I1QG1wTWNLPg3EsaPHiwh87sTcCkBWVSTo5WhcHM1B2AoHrlVWJKDaFRBgiyGU3WKG1hhh46ACzUEQGCNtxLPg6Ox6TUf66RLLjqAsrjvMtVW2Ey7gE0aTeJKAX8aAzJmMBgYpEt+giCZxURw3Xqnj5GMh5Uvs0l+pg2xuc45hP9odSbLRfffON1WZVXhsmKDe7Zs6eBEjqwpDvO5keFSh9S3wgAWMpScOoP8uYc3ylRpvtW93OettM33Af4AfzjJ07whtiE7XXr1s00Ye9hIgteFogS0YIrgGehV8qT/gJwcQOwoIE9N6AX7QFM4J9JkyZ7AxxicNlLGWWLLxKggcYAXOy/uGz4yy+/MEgC9lFVpZas+N2gmb4YaRpBFyAh1IoXUDKiwU1hflHdbO3rOnRhZIJCSjSh7kcdeZT4el/zYBwx4Y6L9MUQaa6vAWN4EBpBq/EC+xulPD54/wP1IfHdWMoANAZCdOsQFofhBG9ZzkUXthFlFMk2n+edd27YdtvtYj+qfPeuGk9/Ev/MBkOMMNjcvNdaa4UN5XueOGlSOEBt580jgDQTwGxwNUwx56ziO/DAg9xX5EGbkbH/1vSdAi5DWjQd4IAPkTXrrGhhiA6RmPWFabD+sF7sFtAxgMQzMJVTBhCSMPKNLxBGYniOtQMzEaLE0AjG4R/xueQPAwGeLGPk1TiHHNIv/P73v7cbgXIYqpFHGhYRJkV+DDcBSlaYsfl0l9W6Giw4Rx3yNFGVBJnwGcrxCySnTTHDEhsLM8KcADl1QJBhZgQXJkXZ2IeqekIrvyZH9Y8TDtHyhak8MahnSAYr5YlVxTVAGWHAdUO9CLnr3r2bJ0+22WZb+xOhC/eZdtBPn2+ayJu2xWfjU5yjbICXNmJ5v/veu4pKOc+CupaEh9n/VbV3MAHy3Eu7UTjRclc+qgL9jghjocATlEGe3M8H0PBz6h8S9EPpQTsWH7Aj2cYb97VSRKEBPmNGjzHgfvzxR/+vvfuPtay66gB+pbFtLAGBVpAp9Q2ZJnVKE4qllDgaHRhIWyuhKYhCDUmZoVWjFvkRkjZOKbH+oY0kMn9MC6GYSPlDIKkJoW3UhFhorVgiGIjMG8wQI8ZYa2uLkFTXZ+277693z73v3feD++6cPXPfufec/XOttb977XX2XjuPC6cdVj6RKeWjoRUhTz31dOcXwvfA4cOHo+wy6yi0+b+03Tsa/etffzy1LzMLmhgTjbf0eGewRFeDzj89/XTuwnP+F/5OCqPkrzRGZwP10aNHO5dxaxl83rXrrWkaUr52Mwl5QZYhaGjw0D594oaP3xBuGS/L8outt4B40jraNw1wgT26G1AA6KOPPpprcw1iVsOQ1VRIot05Ywka4ClbO5k1y1E/s0h0tFrDAKQvmMrIU9CHzJbYuy0TvGjvRemz+MjycvLG7NOsad++fZ1jsezzj2J3485YrWEGsWvXrpQJMo2PaFfzzcy30Z8NBVwd5ZWws9FECCUA5kjZNIP3LVOI1GCiowFbRMMIQAkwc+TqdnY0LB2+AAUmYTiBFzBd52UHcgXihAAYsC39W/gyeMc55+RCfx1Mh9BhvKnX7eVHE6prfqOwrIvR1yoL50DRctSBtgEmmEO00cdv99+ydFZqVQ5tfPbZZ6KMV+IEgbOyrupkiRI66CDap4P5TnB0wtDpMl/tZ7OsUz/PBeUDX50CkKArLd4LE4BrO+eVV14Rnys7S0s7k64AjFAqj5DKY61BPRMeJa3Ju7zxTEcFFJZoHTp0KAGQvZsfCe3z0sngB+zwA78ARdHYon4xyOQAq5yoH9udeqb9LuqNzwZHZbFfAxfPAJOXNLyCAVzP+VU+ePBgHpy5Y8eOlAly55l08qUh02S/8Y2/SyWAkxg0LXQ24MXGg6efisH29nQjumPHmbmOHNChu2rS5IA2utr1Z0PKl770l7kJA18mhajCUJCf+vmg5WOPPR4vvz4adT0hp9G0aTJrFkYLVSaaknV0IwPWud96662dvXv3Rt6RYQTpC7+6BZbb+WzcH+WXAa6YL9Dk3nu/kPwE+Da7qIcBls2YbPntqs22zOu/RdbinUPU1+YNM8qTYyYpkEHKl/7ObeqzzzzT4QfDqofIqPOnd96ZVQasZ8ds6fuhqHg5e/XVV6eStnPnznS1WsqkeVPMRgiaJc3/nw0FXDTwEkfnon0CHNMIL4huvuXm8Br2lexIp4eBn9AARxsLdCydEtMATxXESj5C5p7nVROWFuC5ryN7W+63feIEgT3M9NppDaZhlrFUu64OqKNZmqQzCeRSXmxItGG7kd70xrLwvYIskwJG6zxA4L/Cp+hFl+ztXP/RA6nVOcHCVJe7QvZMgKMDvDGmsIRUGwkfwas2MS80EnxC0K0V1Vb1t7sNaGhvTmkT5OM4lwA49j4AcvHF+2I1xYHcSFCnk/yUAjlafwXbQcCNJmYYBYByt/93KN6IbBen6DSNHwbNw0dvtInpiPOYJ7/1ZOfMACv8135tYQbRDnWWFUBmWmA/RPPKDzzxwUdxpPFMhzb74EvB1Rrpm+PsON/RjMOiT9/+6Rzk2PwEeagX2ZCnunw7zAn/8MQTaafdv39/xlMhvGQjNRNzJtqRI8v50sxuKnSgFJgFWeVCMzdoHzv2Qqzn/uf0hGdAr/Qqma78O0pv8bXdx0aEz33u87myx/IrWqW20+7RQVqKhVUb1sHmYBTPvFy75eZb0vaJDvJKGgLdCFhNnpoCGQGwtGjl+OhjDqW0Hviv4kw/szAvwsisAQc/yHKdDbqPtgZf9zw3I/nYb3wstrP/WtYpgbnLy6899ljuEOWLmJ8S5gSmx4MxYFLIHo4+dM8993SuP3AgXUEyLdD8tes7MauQv0FPW7dj2FDApUESEgFIIRICPf8vz6dPgocffjj28v9J52isXnjzjjdnZ8RgDIlo0TGLtjokI13BlA+BkC9hlA6wA1PTvqNHl9Mxy549e9Kude47z80ODogBGk2WhpqgHfcAoQ5ES4hun3nLd3l5Ofelk9YfPzmORo9OSygdY0N4M33EUy7nMe//pfd1brz5xuyEBA8APfjgA7HdM7aZBmizExYhOSk3OrCNCbQHtDJdpcEalAgvQQLMBhQCDHitM/UyivZtt9mVYbPbf92BztLSUnS+YkJBayHtwnEl9IX+0ekQN0KV0dIxmztiRm76I1lkpOMDIfa252MZmk0M+PPlr3w5z4EDYH4b0E459ZS0meOdutjMoG5VPtQHjX3c027mGOnlo6P5zUbvGPabbryxs3t3OMSJsgXH4Rjo8JcMAnh5mhFVucFb9lt23Pvu+/PYCntpgrL7PkjEK5qF/OTQgAFEgIu2ykd5Bm2rF4AP7dcuMy8nDeiTQpcFvSh4oY6FFyfk8j0HoJIXMlRmcuWIdgMu0EdLH/LCQZJybwxa2LVYZgu0yb5dvOTdbO8sgFv6KdrrE8rRTprooUN3xsvvr8W9l3MNOGCWRt1K/zb7eznf0aAFGpFR/dfW9d+LutlgVLGA3PxtzEaeey4OL/3AB7IcWu5nwgmRePk9gN4mGaYqigWaeCcB9A2A6lnCjPLb48Cr82VDAdeYSrMoWk1hNGHxQsf03MkKGPPQgw917r777gTi1HADeDDZdt6cdsZ3goNxdeoJ7Ey9TCt1RALHjmbU95KBM+l9+y6JgwzfmeClLt4mey4vgmr7L9uyF2aAzK41ZdoMoKOqwxOhAXGRxw55YuyoEpSXYBFmBFNf7aMV2et/2eW/3Pndj/9OTu1pA8CfcCjnueeOpAczmu9y+H7QKQE8swNwfcOJ4bs28ieofitfPcwM5E/4TdGADf8S1p5e+J4Ls85MCZY6GTTYi3UCwqiT/WgcNpmzLqNGlFA7u04ulI64OoGtaUrK8vf7sduL3Q59mXGULU+DGrOI1RNOLrj3z+7t/E0sI/MWWxxTYkCGfmyV2quTS8u+V96Yx7S1W8c6I3j3uy8I71QH0p7HTomnzCneCdDsHKtz1+fvyjK8yUdP/2q90FQ6mjlXlp/97B93dr99d9C4rGJgTkAzfjmcFlLbbHZmEMUzA69ZxIv//mK8QX8xgPf1Afq7U1v2Eq7Qe5BKw98rD+pdZWS74wv5Am7cJuI5eQVyBgfl+NCCaddmFQYOjtFp6Y7VwQNtrqF+L9f+/fp88EoWlWXQKfJTnmr3/fd/MZSHh9I2X2dc6kdpALT4Z208/jLl4BfTQTH3dWIb98/m4PgT4ZNCXO1i52dzPyfMfWYK+SI0XtYZPB555JGk7XnnnZf2XWY6JpULLnhPloNObM3yIkPbMWwo4CI0QEoGBkFogYSesH8njOoAB2MBCC0GuN11912xR/+pAJrYGx7gAXARs2gdxZQQ3TE6GfNBASfPLe3a83N78g3t+eefn89pjfI12gNV2m2idvzVoT0jSBhPg8yXdpHv61Kgy+oGQGGK42jwN8S6WYBv0NCBy64fttHIN+ryn9EhP/ihD3Z+67d/M9/QEnDaUIJ4dFAORHQQgviP0cavhm+Gx2JK9cILx9Iexk5nEDFd1Pnq4GCquPPsnZ3d4ej5iis+1PmZd70rAZ/GplNohzWLHN/kMp+oC81DnzMwyItQArOBfpj080wAIBODxxG1gEI/pvxM1dnZkpZRDuc81lrnQZnRXlqpZ+L+R/jwffLJJ8NJ+l93Hg875dGjR9OmrR2plUXWVjHQntCVNuyId24T3/fe96ZbS1qml5xV0+N8hecxMoO2PV5HfdXNy0WyWDVcNEEvgS9cdmarAciYgdhz9DKVRxdtBsIGQXIiaAv50unJn98A4ayoq7wMgNOCNDVgQ6GtVTs2DBXH9+gC/B3SiCbK0m6zIWaolO2gtYHNwJxL6rozN/Knr/ifYKvA+N4UgBcAVQY5LLMp/kYsIytmDWWiE9AvikLQMbJVPwqDYOASH//QTzwDKnqSf/1eWfq975QSVWODl1kdTNRDmw0o6HDqaQ5utQrCy3CO0MsSQwpGleOswDb6swJwp9W9jJpFADPugBAFFSYSAhAn/+MPJloZAEiNkJYXOd76uSNHyhQuGKEjYK4NA4SfU49db92VTm1+Mt6CMtgTFEzBrFmD5bU6FoaawlhZYYrstFpCojNyk2fanz52Q2Oy4cPLsAPX7+9c8+vXxJTrlFyParoZ0VJ7piUTQMKjISeEDwGuLGn5pku23zquWydGD2l5qKKxm1oS/OZQCV+vzTE39kkB9kl5lvaOj+Ft9rEXjoX9O8wEobURCMvJDHCnnXZath0tBLI2+CELKRAuGbqmiADH7IDxvMpnjdG/hjyFnNAS0RUglPy6MaIeQGHWQEZmDWS4Ow6uyAIw+TQFA4x/TaHk2/y8KZ37+DgrsJXBpJiI0BxfgK+BzBWPKQRNYVKb62DVlHae788MuBrVI0rl5xTALWkKkGJI0cLK6oD6DPiYmp+QWmRZrlKBx+hdhavXsbpl1/vyWWuogEtbMj09fPhwaKxv6pwapgHamnbm9DNKJyipRYZGSYO/4aZYlnP5Zb1dQUZw8p9L1AJIBGkJr06uLb6bkgFj2kxd7qVN7I9AyFS5amjj21OJXq/jY2383emAO6mT4mEF5ML/sjZXeyuf1bnyd/SaxK2N6sobrc9MRPrBPGq0ei2AGjTOeEG3UdIF3WcNQGDW0OtHjRnMnnmp12hDGwsaejC9XkPRh35kufEn+ad4H82ID34VvjbXa1LZ8p4kY0MVmbMfMwBubUEhVo8wSdDJGm5OnwNIdTpTRMELCpojEDMN1AlTW0iiVs0w7HzRoQrHyt8E2ChzPUCbFYg/Ojv7oakORyB2yVlJQbM2pTIiJ5NDqzUqA0ogaYr5qdsOdvb8/J4A4vKm12gu5ICSu3r8iDKiffIgaOWTsTIeeqABbaWiAPpMAo8ar3+V31aEVQCuBjeENNHocPE8aRVfaJ54j2ZMUMxSNYfSMQcyCzkYvSedT2p7E7Smsh54kP79fJM3zQpXP2LDt2jSzGFClUueKjdjKElRe+0h+/ZsSUsnHay2fAZ+59eB30O1i7g9XBl6UH4Ufo95sA1urRlwa5sKQQo3KnEQYoiqNXL3aspOQwSy0AfQ6YAJOKZ5wCoyAzb1zT1TAYADfDqa9AnIUbTycudS5M/2O2uwoJ4/AtPdyy+/PJfFeJmXO6YCDGo9fxiaKhBUp+9993/SbvuZP/yDztvfEU7So45sWGxZyKCeaOG7ZzWYUtWpGjeF8isaXwXz0utTC1ihgtVcXGue9Tr4bDO/115SryvLGgXEwRiF2+VOkRcsLyDobk1bnw2m1WHZ4jU903RpMBi3ph9K1/2BF5l46GG/HZPSDiUZ86PkPebBKm/VPjQaXdsM+E1hep3Jx+wy0lSvpvrU+0mPrHvUvypLXT7369xQr4bb/bz7PKv3tst1BsDV2EKRwoz+9yL4qyBGJClED00mOhDASdCJ+0BXpxQqAOfC767m6H6vnKgAzTCrs4pipR0XXsqXFq+P7ZX/2nlvvKhRF9qtdaMEp9iJ+9NWS64c6PjTb3tb57bbb+ssnb2UoMrOXJbalLWNxV7VNZ3A0cgrBTHbh27dzoQe8StpkkT1S9zoaI3tKnFKyoy+RX9UqLFSWYd+h1pZJatMqvnAYCOuD56iew6mK5OVO1EsXtQ0kbIXs8hEUrR3b/hLV1biZp8H9Tva978Pp1vdr0ltnpZDrfv4eNNnFOPT1bto1KdTvbu6K/lcXczRWFliJC587cpMELlscOn22aZ6VQ9Ko5l2f89ap4bstvT2GgG3MIBwVib2v1fO1OvKdhBK4AmUTMFNKSPHIPugQb0wx7PaIQcBOft6lN+bgmdxRTtcWeLq7rwSWimN1Nv0q666Kt9cW9NZti8WIz87rDIJkLrZYMGx90233NQ548zTo8Na3E9Dj45LCXONuiV90Cu+a3fVVsS3rZeGbirsbXOlR0/rN5g0BpkK9Vp+bf5fHIvGTJD6ieCjukVoEmDRU3y89t1HqHnUa97MYpkjCkjnvfhT6lN/NV/RXCjllHilKltNw1L26v5OBtxBmo3Lr7T5VWofVuInvsa/HCBztjetPsnRcc3Z9vdmAlytroJar8S+hHrt/hy52JctKk1GZypaDU2nTK39hiHJnG7antaDT8m/fhm0JffKFH6ksNX+jHxpXpxnWOvqbbnyfyx8g9ZlQbLiS8GaTvZYDrmv+8j+znXXfyRPhfAcLbSpyFgxP7hfA8BV2YIpXaAJs4L6l0DLi08gNtCt25br0+ErYgj1Wn5t/t/SebqNGFvcEEiOxMiuVISmt8wHf30qeNT0roPfM6sg3qBsuFfTIcXos8HiyVjhTeFDxlZGb/bRY8RgslV+Xw8fppQ7SeOLpNrfFNYHuM35NpXXu1+T1msKeZdGXf4PCH4vWf3SS1ZvLMh13YCLDj36TSUKMPGCiJCHlMd30+6ytIUGWN5e0vR0HqADfFLTjbxrZxnUEkunLM+y+Ox0tSLjOkFh5aCM/kiAnrWD999/fx7IV7eH0nCtja11sWoA4Dr9115220uv+tVfiTWYsV43MgSW7LWlnmV67B76VOCoNSvlR11UMX6U3+VpsfmWaXaN33wd18bm2Kt/MlnkEzibMpuQtKQrGm00vORAHuJbmckUenUfrKQdkg00OXMYpN/As9HqlVL6dC35xN1umjIgjqbq1mRCvrWu41Ou9m4z0SbSekr2tc1Too19PAnIxyYYuJnkam5SkfuB+KNfJyUdjbudfq8RcCc3rQpwU6wq2E3PJ90fBKSV8YYBq4LbuPJqPoPCZFmYzn4onGjw9v9TS0sJAIDe6oVEw8iMX1CAa4OGF2dng3QYAAAFEUlEQVRcAr4/vBkB4nkL49q+2jqi0SB9RtOVvJsRaFJaeVX+jOY7z7/XQ8/1tqvK7HrzGZd+UrvwcTPLHlefRb/XAm5wmA0XuPK89MX77uss7QS4RRMqy7lsl3XY4WtyI4RzoGxO+NTBg+lAOV/uzZmkTOpI06raAu5KCq2HnitzW9udzQS9Se1qAXdtfFpN7C0F3NVUaLY4wyNx1aDGCVMV3kEt7GXu7wJwrwrvYn//zW+Ge8W3pBbG85m8LGMTHyiz6XLQsTO04E+Ei78L4/C8eQTc2ejYTzVIn/7d8q3Q9fjScEdpcDz8niQDx0P7N6ONLeAGVe1J99Ls4vBYxGEJXwZszBzx1Jd71hBblG+N8IuxLZfzjd+PM5zOPffc1IY3gzmvXp7DA9hoPVrAHaXIYv5uAXfj+bqlgLseBk7u5MMAMYuGy7fBpZdeElrsa3KVAvOBDRG0WtuNXR25wsP98vJy+iB1MoS1uPXdz8azZz05DtNkPTmNpp3Mi8n2X3lV/ozmO9+/N4+e09q9efR69do0rc2L+rwF3OCsbaXfijW4zpTiQSy9mgXgWsJWl6vx4crZTjpfOXYsD6T85Cc/0Tl76ey5lI31DG7TGnQ8Au5m0nM6vZvNN9PSTn7eAu5k+mz80xZwg6YvhZvEr8ZpouVo9HBaHdosjZYZgUnBd+t8vUD7X17FQuO99tprMz43kWXpzcYzZz05biZAtIC7Hs6sPW2r4a6dZvOaYkMBdzMbOa2TD8/rhzWCTOtWLncqtQRIFZSsA/6LBx7o3HHHHekWEbBWvw+OJbd22G+Cz98tkP3wh6/p7P3FvXlm2WZ1iFq/zaTrIuU9TUZaei4St7dnWxYIcJsZMA1w84SFWG/LT60XY2y2Oicgda2ezfjC5R/Xxg3Lwmi+9die5tJnf9ICxNpo1wLu2ujVxt56CrSAGzTPwyTD4bfAqTgzwolxdIjdLunXoKvh2gRB+7XpATADX7ZdoLsZoQXctVG1Bdy10auNvfUUOH4At0vbwM4Mg2DmJIZvh2vGk046Oc8IOyWOd44dubksTGRrdL0wo/kK7LlV+2Wp2Cwb7mAds+D2z0QKtIA7kTztwzmgwHEFuBVsK90roIWrmDzm54wzTs9THPjGdTpAdZhOq31d3APCGSIjS8aAbfrrTe8n3WcbeKn128AsFzqrFnAXmr0L0bjjAnCncqp47Qt7bZgXwjEN2yyzQvmUh5zY2AjhMMI8PDHQNvHXnwrEUwtaW4QWcNdGrxZw10avNvbWU6AF3KD5D2JZmNUIP3jJCbBxemoXQDlHL2esvbb3Ei3V2njOnsuRzWvDfguYNyO0gLs2qraAuzZ6tbG3ngLbDHA3h0DpMjIOb/zuf38vXS06TBLY1SPVuZCkxlqfa8UCz2JMCQ6FTDNF/tn4um1Sthtf0TnKsYDu+Aq19BxPl/bu1lFg2wDuZpJkPetoWy10MznT5t1SYLEo0AJu8LMF3MUS6rY1LQXmlQIt4AZnWsCdV/Fs69VSYLEo0AJu8LMF3MUS6rY1LQXmlQIt4AZnWsCdV/Fs69VSYLEo0AJu8LMF3MUS6rY1LQXmlQIt4AZnWsCdV/Fs69VSYLEo0ALuYvGzbU1LgZYCc0yBFnDnmDlt1VoKtBRYLAq0gLtY/Gxb01KgpcAcU6AF3DlmTlu1lgItBRaLAi3gLhY/29a0FGgpMMcUaAF3jpnTVq2lQEuBxaLA/wMjC1JfpUXwIQAAAABJRU5ErkJggg==;" vertex="1" parent="1">
          <mxGeometry x="1000" y="1351.73" width="88" height="46.53" as="geometry" />
        </mxCell>
        <mxCell id="ETWkTozmqkmJkBLLcPK1-54" value="" style="shape=image;verticalLabelPosition=bottom;labelBackgroundColor=default;verticalAlign=top;aspect=fixed;imageAspect=0;image=data:image/png,iVBORw0KGgoAAAANSUhEUgAAADAAAAAwCAYAAABXAvmHAAAACXBIWXMAAAsTAAALEwEAmpwYAAAGOElEQVR4nO2XbWhb1xnHn3vOuZJsWU5LNkq2QdotoZRug9GxNwgMChtsKduXdGG00HY0y1yrluTYsnV179HLfX+Tru04uW1GWcv6IdQb+7BRlq3QUtiHBrqFSXlr1jbJ5jpO3MSJ7TkvO+MoiecXuYR+GAroBw869z5/Hf3/90q65wC0adOmTZs2bdrcRQRBt+gHfxArI2+QSpCBMBThrsL3N4mVwIcgiBJ/tE+sBG8TP3iF+NXdYFkJuBsQK0GBBMF3lk6Mjm4UverTolt9Ezv+Y9DyhKFI3ODXwJgAUs9mGOr9SeO853Vgxx/Htqc1eq0M8So/x7b/vcYBD7G8Z3kD2HAr0NLwq235B9Zr8wDIcHdBK0Mstw9b7qNNm2EoIs3+CxjG/dCyHDyIse68uF4bq+b3cckcg5bFsh5EutOzbp8xARW1d0DXN0IrgjTncaKa3/pEjVJ+GsvFArQiSDN/Sor6N6FkPoSKeqapiNIIGqZHIJvdAK2GWDIeQQXtZ1hRLaSU/wppr6OZDmXzzwiD0m9gaGgLtBZMwHLxV0gqvIVzxcdQTqHrSjPZrwn9WU9ID1hAaQxahiy9H+Xyz/AhyuafgIH81k/Up9NbhGRmFHrSrXY3bjEwsJV/76EZPamHUW9qUOhNh0Jv6vdAKQLijXxD9KoO8YIsfzo2ex/x/W2iV6kSp9oL9KU7un2MAmK/7H6cHej22YEN4Y0Xb1civB4m9nDN1f3dX78WdrvXwkR4lde+RPjvfYlwcV/CWAzjX+Gahf1du+fH4+HCWPcWIZlyhd70y9DfH1/6INGrTotulfHCbsVd48QMvkAcf444PiO2z0TLv6PH+9Uw8erVMMEW9yf2LoZdOxo1frMW9sW/Oz8W2zy/t2txfm/84txYvHd+vGvH/GjXjsuj8b7LY/ErsyPxhY9Hog9cGu2cmB3pZLMjsW1AKRGSqVEhmXoNenq6bl5dp8KI453Hll8jtj/LNxzLjWDTNYnlMWx6f+OvxHSlOwkwP9Y1Nbc3zlgITTcsl6qdP7g00skuBh2vrO7NVGMvzFQ72IVqx44LfnTiQiXGzvmxbUuC55//MkpmJNiV3cBXfoyY3rRoubuI6TFiuH1LQjrWRQx3hujuJDGcLDYchnRbQrqzG2nOIaytXMdg1RpHmnUINO2+i0Hn2YtBJ7tcjd/XLMBMNbL9vB9j037spdW9j9xoMOVG2aQj7py0oxOTToT90yL/C3CbVOqLQAyXEd2e5n9NWLOnsGafbPw4Gg8aO4k1myHNyiHVTjXGqi1h1fSxajGkGU8snw+VjMO4ZDAolzef86LPTnuxK1Nu5MNzbuTQFC8n8seP7Ghw3uv4/KQV2T5pc2ORNQHOGmJw1hTZaVPcedogE6cNwj7UmgRoXDXNZlizpm+OLZUbw6r5Qx4Cl62TuGzO8bUIKuopbg4VdAkXdR8XNYaotjKAUj6MlTIDqdxY358IIHrGFr/6L0N8hNdZk9AzpsjOGOR3H+h4Ozf2gY7XBHhfxdV/qJi9r6Gdp8po4lQZs1NFWCdA2WS4pDcCgKpuwkV9ERW01zHVfowLKsNUHWmYk9UUN4eUkoTloo/lIkP50soAOXoY5ygDSVqxQVkyVoKHuLH3yuitUyW8/b0yYieLwpoAxwtC5XhBYMcp7DxWECaOUYHV5PUCUJVhuTy9dJwvvYzlwn9wvngU5+l1kMpfumUuxc2hnCLhYbmEh2WGsvmBFQEGc4fRoMSgv3mAY0X4ETfGTdVl+PZRCqxO4cjpNHScGIbP1hX4U12Bek2Gd+oKcNOP1mR44dZ4d/MAEmV4WFkKAPn8VjycP4Oy+RtCVtKXmUtxc2gwJ0GGfkYYGD6I9gxfQXuyH6P+oRmUGZxB/dnrKJNl0N+/uS7DyboCM8urpsB8XYbf1nOwiQEINRn0ugwXajIsNDQyzHGzDcMKvP13CpFjEjxQl+HPXFNTYHb1nABDQ/dCH72nSbaVm+pkMtrQrl6H8FXiL/gcAw+ivswkSqZvwHPPbXyXwj1HhuDe28WPm15BADhBofu27iiFz9UUeKMuw7WjeXhquW71nLzg0yAk0xpKpmbWVG/6XZRMPfmpJm3Tpk2bNm3atIH/O/8F3QzYxkVGwuEAAAAASUVORK5CYII=;" vertex="1" parent="1">
          <mxGeometry x="1014" y="1485" width="60" height="60" as="geometry" />
        </mxCell>
        <mxCell id="ETWkTozmqkmJkBLLcPK1-55" value="" style="shape=image;verticalLabelPosition=bottom;labelBackgroundColor=default;verticalAlign=top;aspect=fixed;imageAspect=0;image=data:image/png,iVBORw0KGgoAAAANSUhEUgAAAGAAAABgCAYAAADimHc4AAAACXBIWXMAAAsTAAALEwEAmpwYAAAKZklEQVR4nO2daXAUxxWAJ3ecVI7K4VSSyvEvyW//TuxUwGz3iiMGOc7p3L4SBxPHSZxUVEmVA5pegcQRwMRgDDZIGGODy4ABC3XvroTEIXSCkNAthO773u3Ua7Rid7TS7s707Mwo81W9KpU0O+p5b7r79XuvexXFxcXFxcXFxcXFxcUpbClc/WkSWH6vspQhgeX3+oq8KwjFT6sM7VAZPqsyXKEy1EAY6iMUTRKGp2d/biYUX1MZOiWupWgDYQiBosxom0rx3wjFTypLiayLGR9Ti/BqlaE8oWiKw4RhbkgoCqkUVaoU78z2e3BWVeaHjbaTnF7+cZWhbsLwecXpZPGs9xPmfYAwtI9QNGRY4QlEZaifULzfRz3f41x5n542E4qfiRh3c9GKLypOJKvw/o9CF1YZumm20hfuHbhKZfgx6HnJtjvvHc9HCEXtcwal+PeK44YZhp9VGe6wTPHaXkFRJ7wMuy/e96FE7QeDxX4WM8UpiPGdoiarFU4WFFTno2jNQu3PKrz/g/N6LEWhnKD3y4qd2Vi44uuE4RPWKxgna4iCeC4mofin8a73MfQHxa4Q6llHGB6wXqk4NaGoRy1Ca2OdBVQT71qVoYBiN+5MVni75Ypk+kW4wRQRGHoI9T6y2HW+oge/otiFf19Y81mV4mKrFUhkGYLhc4Ti+sWvQU8pdiDbv+pLsIiyWmnEZHmvYbfWAKes1r3iC2R8U2W4xWrlEJPl9ap/8JnwNM8LrovuJRPZ/lWfsEz54IrZ28XEUsTnz+Ddo00cOF67Mfbv1LPOsjF/IQ9hqUmw5TUeoabrPY0B8H5LvJ2lNOGSRSS/8nkeDofmDDAxPcJz/KuiDIB6CgoyP5BWAzjd1SRJyu7SR/nY1CDXcrjizzHXZfu93073IosvddlR8iPeM9rM4wFDUvS1KkNqOsMLA0tf+T+cm3Tj0T5UqzEArk6LAVSKj1utHGKy7Cp9dFHlA6HwDN9anHnXABSHc4tXfsFU5UPE0GrlEJPlYPkGPjLZx5Phjep/anqBN9PceP4S9/dP1m3hM6EpniyX2t/SGADtMM0AkEyxWkHExMm2rifIU+X2SEOsASiqNEX52nTc0hEvf/uaGtfNTIZQeJpvCay5ez+KQnklnk9KNwCk7axXFpYqr5Zv4K2DVdwoMGdojPqAVOVDQsLSBDqTK7CAaugr5bI4W78z5v4qRc9JNUC2H3/XaqURg7Kt+GH+7o3tCV1LPVTdPhv7/yg+LNUAKsN7rVYg0RG53HfpCX6uYRdv7i8XPrtZgFFNm4hzgpn32G3VmxdcJ+IzL19+ih+qeE744uA+Bppf5ZWdZ8QKdSo0wdMFBOk2B1ZH9QA0CalMaeUk6Vbw9pJHROKDNb0iFNo8cJX3jbXx0amBmIiknfjvxd/EPMOm8/hbcgzAUF46lL730mPc33yAd480cidypPLvmmfyrJRkAHNzvPmVf+VN/Ze53RmfHlr076dvbNU8G/qdYeVDgZKUKuU4su/yk7x9sIY7gZ7RloQGKGktiH1GiohhA4j6fMmKhyySv+mASGw7hau3Tia8prarKOY5VYryjfcAip+W7b009V/hTmJ8eogHmg8mvC5ObuCcYQNAZE+W8nde+AnvGrnJnYa/+QBvGahIeB14aRoDXDbeAxg6I+fNX+tI5Q9P9vKXLv42Kdd3ZLJXOwQ1Ge8BFFXKWJHKjLukk5N1mzlt2p/UtVMz45oegLplGMBw8uV840vcibQMVAiHYXCiK6nrIYkT++yoT4IBcK8R5e8p+1VaQwKymJwZ43vKfs1P1G5K+jPTocnY56doyLABZreC6jZAXU+AO5HjtRtjyhB1GmDSUgOIyYuHudO42H5MtB9Wtqm6qxovaMLSIaj81jvcabQNVotxH7y2ZKsiIvSPt9tnEs7xr9SdY7WKgfFOsVaB9he3HEr58x1D17UGuGmZGwoBNicxNNHNXyz7xdzQCeN5qtzoKdbq4aplCzFIjDiF0akBvvfS47M9d5V4k/VQ2vq6ZhLGpy0LRcDb4ATGpodEVi3S7gutR3TfK044eqtlwbjesVZud/rH22OyWFApYcRr05amSNm4pzccDW+WnWkbrBJpz0h7d5X+jA9P9ui+Hyw2N0dv1rhTI7rMsAFeoJ7P60nI2Nn/r+kqjEmgQ3Wz0TQo5Kxjx38Ugq1bilUpST1ehNnAW3qmfocoRYy0E97aZgn5iaLGvfJD0XMGoDg3VQOAZ2EnOofrRdI/tp1eXn37nIS7h/nu0p/HGoBinzQD+PzeVaka4NZwHbcDofCM8Gy04zMsFKGaTQaQ156ngyLstbQwC2p5rKa5/4pI/GvbBsa43s2k/R+orNa8/YOgM8XK0sRTN/K4VfSOtfKj1Vlx25UbfEhqCUz/eIeImmrG/z2KbFItzoXNDun2hDqH6/nb10js3t0oebHsl+IamZyqy403/HxHugFmy9MbUjFCOtKQ4XCI1/eW8PyKvyzalmM1/xIbq2XSMVTLfVEelRCK6/UeBih9g8ZrV5/lZhDmYTHxnWvYyf9z4ceLtgF6Q2nbUfEpmcCumHjzC5wpp5iFni1KtV3npTzw1My4iC/B3JJI6RE5dPVPpuwFACDPHUf5HXAapGImhKE/pmIAWGVCnF3PG9Y2WC2iqqBIrRuZaP6542KaMwfN24wxZwDPesVsYJsqYbgxFSPAIiWREULhaX5r+Dova3uDH63K4rnBtUnfPyLbin8gKthkj/XRXOumYg0xX/moQbrruRBwJrOeLf/RwxFky+p7SzhtfFlssMgNfD9lhUcEdsFc7jghKhnMpKzt6DyXMyLZFGUo6UTvUQUHy9eLjJNeZZOochfauE+6WxmP0al+/lbtCwu2RWX4mJJuSAB/TZzDbFCRJMU3HXpM5/ANng6geht2wUeHrecL6tvEMr6adgMIIzDPSrP2DpDZkEFB5fNCCXomciP1oFDrDzmCxdo3++wPWaL8u0ZAW5NRJvjjJa354uEgUgq+eU6cyQyUDmEE8DTMnEy1izlwV0HpB8ufmb+4Wkgo2qJYjTiyjKFAosbGK/Moac03XelQrzk+PSzGcTh0Ceo94aw38LYgh3vgynq9DoBfxncRSGHTmWWfghKMxRo8OHE7YTk3cYjAoUw5wQc/o9iJRMdWLhUDqBS1WTbpGjm4Nfq4xwgXWo847c1vyfav+IZiZ+Do4njDEUzCxS2HReUBFLFean8zpfCC9YJqbHVA92LA+EgoClqvNCxL/LYb8xMBXweiMrTJzHUCSYOoDO22jbej/5wJ1Oc4xVM8SBh+WFkKiLCFo465RG/a1tMxHLqw8albKqRcZZaT2BGRT4AvQrPR4X8qRW2QTElbPN8O3Dl13fNEqol+6W+8Hz0ObVH+n/Ex733iTCKKetKg+AGVoVegctm06gWnkhPMvAcySypDm1WKyqHC2LDC4R4UXSEM58D4bnrSfCnhK8z4nI+h5bDRQaV4m0rxu2AYGDrE7k3YQkvRJPx853dgNHxaXAufYd5lcA+rn8PFxcXFxcXFxcXFxUWJ4n99JEWqxma+gwAAAABJRU5ErkJggg==;" vertex="1" parent="1">
          <mxGeometry x="679" y="1330" width="56" height="56" as="geometry" />
        </mxCell>
        <mxCell id="ETWkTozmqkmJkBLLcPK1-56" value="" style="shape=image;verticalLabelPosition=bottom;labelBackgroundColor=default;verticalAlign=top;aspect=fixed;imageAspect=0;image=data:image/png,iVBORw0KGgoAAAANSUhEUgAAAGAAAABgCAYAAADimHc4AAAACXBIWXMAAAsTAAALEwEAmpwYAAAGU0lEQVR4nO2cW2xURRjHR9QoajCYaDTRGB+8RH3z8qDGxMTthTvlVtpuqWW7u93ubvdSoPY2M2dmaUkppKhAwagEjFAFwShGJZZQdqZVEtEEHzRREzUSURMIJojCMYshIQq2ne/szvac+SXz2vnPfN+Zs/1ldhEyGAwGg8FgMBgMBoPBYDAYDAaDweBZiGQHqeS26ggPrLJ9VQGlMS/eeBJjPMWpteAhfM3caONp1TxNr7Yq70NuEMHenXjobOZhKvmfgEntefGIchFqeHKDUwWoYYntqjkWpKIX1qJcAMH/sA5b9ysFJ5JtglQ+vbvTLqluUFr4jEDor/DG9G3Qza/qjdxdXh88p1SA6oC9Ym8nrPslX6McHgt8CxHsF0iAKtys/BRUdsUPQQuwpD32mer8/kwSevQc7znSczNoAVTwKCRE+0fULlsWVNqAUn+DXb8+/bRq9vre9MySGrUnsKwuaLcfoKACWILXIiiDg4NXU8E+hwRZ3t+i/BQsSEd/VM1ekYycUJ03tGklaPOpYJ9i26EPEnQk8wwkTNcws2eFw8pFqO1OtU00s7871aM639xoo42zoBfvOSz448hJiGBvQYoQ396mXIA54fCZ4AC+YbxZYxhPmxUOnVWdL7GzHdj9/BXkNOwTdhcV/HdIsEWtMeUiVNP47vFmXYqbD6jOU9kRB20+kewUP8LvQPmASE4h4Va912WX1KhtTFldw/ng2tQDY2UM9Lc+Ulqr9uIt8TfYre8TYAEyaZQv+kTfVCrYt5CAy3pSyk/B4rb4sbEyLlwZ/U7179evS8OOHsm+7t/ffx3KJ5bILIaE7Dxo2TOWq30s9VUH7GW9Cf+VstX2JEM+xX/8ZjWE7K5DgBfvP6McFQIq+BAkaHgLyBOdupwngvqe6GvPQ8/+d1ChsEath4rNE1VbzTt0+h48uvo+VEio4BshHZPe0+GYJwr0pu+B+J6WfV2wo0ewHlRocp6ICn4CEnwpwBMt6YwNX8xS2R47qvp3/JkE7OgR7DgewdOQDkiWNenyRCX+BrtubcpXty4xW6fvISPsih8K8k7uxUck/0KnJ5qfiPyq0fdI27av0laAC0WQ7Cki2HmIJ5oN8ESu8j2qUMHfhHRSDOCJtPkeyV9GxULOExHBTuvyRL4JjiXF7HtUoZIRqCcqVXyZFtr3UMlSqNjQ7Yl84xz161tg3S/4V3n3PapQwRdp80RVLvM92jzRVnVPNNZo2ga730MF34eKHagnooLb85NNjm9+Rbpp8vkeVYhgL+nyRL58+R7JVqPJQvdw93Sdnsj3r+FfDbvfQwX/SZvvUYVKHtHliXyXjPLngnbHx8D7PTJTgyYbuftERPCjkIUHAJ7o4ghthvkeIpnQ7nt0eSJ8GOaJXOV7VKGSD0I6ML5D3RMldsF8D5FsK5rsOOGJFit4Iuj9Hir4STyKb0dugAiOC+mJSp243yOsJHILjniiNclxF6B+Pex+DxH8y4EjA9ciN4FHrIVwTxQac/NnBnO+xwIVAAtWhtwIEexDyMY0jsMTRbcB7/cIthe5lXx7ogoHfI8lrXuRm6GCvwjp0JY9V/jemTPf58ogt+OEJ6oizY77HiLZD3gI34S8AJGs0UlPVO6A7yGCVSOv4Ign2rDiEt+zyru+RxUqMk9CPdGcSNieG42AfQ/N0seQFyGS7YJ0bvz1Njs52AHqfir4FuRV8Ai+E+qJgJvvHt+jChWsS2MBEsjr9Im+qUTwbwq9+a70PapQyRcUugCu9T2qUME/KGAB3ta93qIDj2QeJIKdzfvRI9kZ1/seVYhkL+S9+wXjutfpak9E/7/7veN7VKGCh/NVAEtkqnSvr+jBNp6S+62dPBQg6znfo8sT0f+c+x72PapQwXc6dvYLNqB7PZ71RESy3zKHMrfqXs+khEje6cATENe9jkkLHsLXQzyR8T1OFEFaFcrdn+WlTmTwPFTBExHJ9nh+43R5ImJ8j/NQyTdM4OxneYjgbbqHu6cTyX4exz9d3/ce7b1Rd15XQgQLjVUAS2Yqdef0sifKGt+T7yJk2ROX9US573ON8kfzPb8BXTiK3rhM9282m6PJExHjewoPlazjEtsZ0xDB2/Tv778u99s9VLBj5n6PJqjg87Fgz+qa32AwGAwGg8FgMBiQAn8DveIHdy4+38YAAAAASUVORK5CYII=;" vertex="1" parent="1">
          <mxGeometry x="380" y="1338" width="72" height="72" as="geometry" />
        </mxCell>
      </root>
    </mxGraphModel>
  </diagram>
</mxfile>
